<svg width="35" height="35" viewBox="0 0 35 35" fill="none" xmlns="http://www.w3.org/2000/svg">
<path fill-rule="evenodd" clip-rule="evenodd" d="M17.5001 0.729126C13.3457 0.731281 9.32745 2.20271 6.16394 4.8803C3.00044 7.5579 0.897953 11.2671 0.23243 15.3445C-0.433093 19.422 0.381737 23.6019 2.53124 27.1369C4.68074 30.6718 8.02473 33.3313 11.9653 34.6397C12.8346 34.8011 13.1621 34.2623 13.1621 33.8041C13.1621 33.346 13.1447 32.0177 13.1389 30.5655C8.27055 31.6172 7.24182 28.5111 7.24182 28.5111C6.44782 26.4941 5.30027 25.964 5.30027 25.964C3.71226 24.8863 5.41909 24.9065 5.41909 24.9065C7.17808 25.0304 8.10249 26.7016 8.10249 26.7016C9.66152 29.3611 12.1971 28.5918 13.194 28.1423C13.3504 27.0157 13.8054 26.2492 14.3067 25.8141C10.4178 25.3762 6.3319 23.8836 6.3319 17.2162C6.3078 15.487 6.95313 13.8148 8.13436 12.5455C7.95469 12.1076 7.35483 10.3384 8.30532 7.93538C8.30532 7.93538 9.77453 7.4686 13.1186 9.71893C15.987 8.93899 19.0133 8.93899 21.8817 9.71893C25.2229 7.4686 26.6892 7.93538 26.6892 7.93538C27.6425 10.3327 27.0427 12.1018 26.863 12.5455C28.048 13.815 28.6947 15.4902 28.6684 17.222C28.6684 23.9038 24.5737 25.3762 20.6791 25.8055C21.305 26.3472 21.8643 27.4046 21.8643 29.0297C21.8643 31.3579 21.844 33.2307 21.844 33.8041C21.844 34.268 22.1598 34.8097 23.0466 34.6397C26.9876 33.3311 30.3319 30.6712 32.4814 27.1356C34.6308 23.6001 35.4453 19.4196 34.779 15.3417C34.1127 11.2638 32.0092 7.55464 28.8446 4.87751C25.6801 2.20037 21.6609 0.729915 17.5059 0.729126H17.5001Z" fill="#E5E5E5"/>
</svg>
