<svg width="37" height="30" viewBox="0 0 37 30" fill="none" xmlns="http://www.w3.org/2000/svg">
<path d="M-113 -33.75C-113 -32.8086 -114.119 -32.0455 -115.5 -32.0455C-116.881 -32.0455 -118 -32.8086 -118 -33.75C-118 -34.6914 -116.881 -35.4546 -115.5 -35.4546C-114.119 -35.4546 -113 -34.6914 -113 -33.75Z" fill="url(#paint0_linear_54_2489)"/>
<path d="M-98 -33.75C-98 -32.8086 -99.1193 -32.0455 -100.5 -32.0455C-101.881 -32.0455 -103 -32.8086 -103 -33.75C-103 -34.6914 -101.881 -35.4546 -100.5 -35.4546C-99.1193 -35.4546 -98 -34.6914 -98 -33.75Z" fill="url(#paint1_linear_54_2489)"/>
<path d="M-83 -33.75C-83 -32.8086 -84.1193 -32.0455 -85.5 -32.0455C-86.8807 -32.0455 -88 -32.8086 -88 -33.75C-88 -34.6914 -86.8807 -35.4546 -85.5 -35.4546C-84.1193 -35.4546 -83 -34.6914 -83 -33.75Z" fill="url(#paint2_linear_54_2489)"/>
<path d="M-68 -33.75C-68 -32.8086 -69.1193 -32.0455 -70.5 -32.0455C-71.8807 -32.0455 -73 -32.8086 -73 -33.75C-73 -34.6914 -71.8807 -35.4546 -70.5 -35.4546C-69.1193 -35.4546 -68 -34.6914 -68 -33.75Z" fill="url(#paint3_linear_54_2489)"/>
<path d="M-53 -33.75C-53 -32.8086 -54.1193 -32.0455 -55.5 -32.0455C-56.8807 -32.0455 -58 -32.8086 -58 -33.75C-58 -34.6914 -56.8807 -35.4546 -55.5 -35.4546C-54.1193 -35.4546 -53 -34.6914 -53 -33.75Z" fill="url(#paint4_linear_54_2489)"/>
<path d="M-38 -33.75C-38 -32.8086 -39.1193 -32.0455 -40.5 -32.0455C-41.8807 -32.0455 -43 -32.8086 -43 -33.75C-43 -34.6914 -41.8807 -35.4546 -40.5 -35.4546C-39.1193 -35.4546 -38 -34.6914 -38 -33.75Z" fill="url(#paint5_linear_54_2489)"/>
<path d="M-23 -33.75C-23 -32.8086 -24.1193 -32.0455 -25.5 -32.0455C-26.8807 -32.0455 -28 -32.8086 -28 -33.75C-28 -34.6914 -26.8807 -35.4546 -25.5 -35.4546C-24.1193 -35.4546 -23 -34.6914 -23 -33.75Z" fill="url(#paint6_linear_54_2489)"/>
<path d="M-8 -33.75C-8 -32.8086 -9.11929 -32.0455 -10.5 -32.0455C-11.8807 -32.0455 -13 -32.8086 -13 -33.75C-13 -34.6914 -11.8807 -35.4546 -10.5 -35.4546C-9.11929 -35.4546 -8 -34.6914 -8 -33.75Z" fill="url(#paint7_linear_54_2489)"/>
<path d="M7 -33.75C7 -32.8086 5.88071 -32.0455 4.5 -32.0455C3.11929 -32.0455 2 -32.8086 2 -33.75C2 -34.6914 3.11929 -35.4546 4.5 -35.4546C5.88071 -35.4546 7 -34.6914 7 -33.75Z" fill="url(#paint8_linear_54_2489)"/>
<path d="M22 -33.75C22 -32.8086 20.8807 -32.0455 19.5 -32.0455C18.1193 -32.0455 17 -32.8086 17 -33.75C17 -34.6914 18.1193 -35.4546 19.5 -35.4546C20.8807 -35.4546 22 -34.6914 22 -33.75Z" fill="url(#paint9_linear_54_2489)"/>
<path d="M37 -33.75C37 -32.8086 35.8807 -32.0455 34.5 -32.0455C33.1193 -32.0455 32 -32.8086 32 -33.75C32 -34.6914 33.1193 -35.4546 34.5 -35.4546C35.8807 -35.4546 37 -34.6914 37 -33.75Z" fill="url(#paint10_linear_54_2489)"/>
<path d="M-113 -23.5228C-113 -22.5814 -114.119 -21.8182 -115.5 -21.8182C-116.881 -21.8182 -118 -22.5814 -118 -23.5228C-118 -24.4642 -116.881 -25.2273 -115.5 -25.2273C-114.119 -25.2273 -113 -24.4642 -113 -23.5228Z" fill="url(#paint11_linear_54_2489)"/>
<path d="M-98 -23.5228C-98 -22.5814 -99.1193 -21.8182 -100.5 -21.8182C-101.881 -21.8182 -103 -22.5814 -103 -23.5228C-103 -24.4642 -101.881 -25.2273 -100.5 -25.2273C-99.1193 -25.2273 -98 -24.4642 -98 -23.5228Z" fill="url(#paint12_linear_54_2489)"/>
<path d="M-83 -23.5228C-83 -22.5814 -84.1193 -21.8182 -85.5 -21.8182C-86.8807 -21.8182 -88 -22.5814 -88 -23.5228C-88 -24.4642 -86.8807 -25.2273 -85.5 -25.2273C-84.1193 -25.2273 -83 -24.4642 -83 -23.5228Z" fill="url(#paint13_linear_54_2489)"/>
<path d="M-68 -23.5228C-68 -22.5814 -69.1193 -21.8182 -70.5 -21.8182C-71.8807 -21.8182 -73 -22.5814 -73 -23.5228C-73 -24.4642 -71.8807 -25.2273 -70.5 -25.2273C-69.1193 -25.2273 -68 -24.4642 -68 -23.5228Z" fill="url(#paint14_linear_54_2489)"/>
<path d="M-53 -23.5228C-53 -22.5814 -54.1193 -21.8182 -55.5 -21.8182C-56.8807 -21.8182 -58 -22.5814 -58 -23.5228C-58 -24.4642 -56.8807 -25.2273 -55.5 -25.2273C-54.1193 -25.2273 -53 -24.4642 -53 -23.5228Z" fill="url(#paint15_linear_54_2489)"/>
<path d="M-38 -23.5228C-38 -22.5814 -39.1193 -21.8182 -40.5 -21.8182C-41.8807 -21.8182 -43 -22.5814 -43 -23.5228C-43 -24.4642 -41.8807 -25.2273 -40.5 -25.2273C-39.1193 -25.2273 -38 -24.4642 -38 -23.5228Z" fill="url(#paint16_linear_54_2489)"/>
<path d="M-23 -23.5228C-23 -22.5814 -24.1193 -21.8182 -25.5 -21.8182C-26.8807 -21.8182 -28 -22.5814 -28 -23.5228C-28 -24.4642 -26.8807 -25.2273 -25.5 -25.2273C-24.1193 -25.2273 -23 -24.4642 -23 -23.5228Z" fill="url(#paint17_linear_54_2489)"/>
<path d="M-8 -23.5228C-8 -22.5814 -9.11929 -21.8182 -10.5 -21.8182C-11.8807 -21.8182 -13 -22.5814 -13 -23.5228C-13 -24.4642 -11.8807 -25.2273 -10.5 -25.2273C-9.11929 -25.2273 -8 -24.4642 -8 -23.5228Z" fill="url(#paint18_linear_54_2489)"/>
<path d="M7 -23.5228C7 -22.5814 5.88071 -21.8182 4.5 -21.8182C3.11929 -21.8182 2 -22.5814 2 -23.5228C2 -24.4642 3.11929 -25.2273 4.5 -25.2273C5.88071 -25.2273 7 -24.4642 7 -23.5228Z" fill="url(#paint19_linear_54_2489)"/>
<path d="M22 -23.5228C22 -22.5814 20.8807 -21.8182 19.5 -21.8182C18.1193 -21.8182 17 -22.5814 17 -23.5228C17 -24.4642 18.1193 -25.2273 19.5 -25.2273C20.8807 -25.2273 22 -24.4642 22 -23.5228Z" fill="url(#paint20_linear_54_2489)"/>
<path d="M37 -23.5228C37 -22.5814 35.8807 -21.8182 34.5 -21.8182C33.1193 -21.8182 32 -22.5814 32 -23.5228C32 -24.4642 33.1193 -25.2273 34.5 -25.2273C35.8807 -25.2273 37 -24.4642 37 -23.5228Z" fill="url(#paint21_linear_54_2489)"/>
<path d="M-113 -13.2955C-113 -12.3541 -114.119 -11.591 -115.5 -11.591C-116.881 -11.591 -118 -12.3541 -118 -13.2955C-118 -14.2369 -116.881 -15 -115.5 -15C-114.119 -15 -113 -14.2369 -113 -13.2955Z" fill="url(#paint22_linear_54_2489)"/>
<path d="M-98 -13.2955C-98 -12.3541 -99.1193 -11.591 -100.5 -11.591C-101.881 -11.591 -103 -12.3541 -103 -13.2955C-103 -14.2369 -101.881 -15 -100.5 -15C-99.1193 -15 -98 -14.2369 -98 -13.2955Z" fill="url(#paint23_linear_54_2489)"/>
<path d="M-83 -13.2955C-83 -12.3541 -84.1193 -11.591 -85.5 -11.591C-86.8807 -11.591 -88 -12.3541 -88 -13.2955C-88 -14.2369 -86.8807 -15 -85.5 -15C-84.1193 -15 -83 -14.2369 -83 -13.2955Z" fill="url(#paint24_linear_54_2489)"/>
<path d="M-68 -13.2955C-68 -12.3541 -69.1193 -11.591 -70.5 -11.591C-71.8807 -11.591 -73 -12.3541 -73 -13.2955C-73 -14.2369 -71.8807 -15 -70.5 -15C-69.1193 -15 -68 -14.2369 -68 -13.2955Z" fill="url(#paint25_linear_54_2489)"/>
<path d="M-53 -13.2955C-53 -12.3541 -54.1193 -11.591 -55.5 -11.591C-56.8807 -11.591 -58 -12.3541 -58 -13.2955C-58 -14.2369 -56.8807 -15 -55.5 -15C-54.1193 -15 -53 -14.2369 -53 -13.2955Z" fill="url(#paint26_linear_54_2489)"/>
<path d="M-38 -13.2955C-38 -12.3541 -39.1193 -11.591 -40.5 -11.591C-41.8807 -11.591 -43 -12.3541 -43 -13.2955C-43 -14.2369 -41.8807 -15 -40.5 -15C-39.1193 -15 -38 -14.2369 -38 -13.2955Z" fill="url(#paint27_linear_54_2489)"/>
<path d="M-23 -13.2955C-23 -12.3541 -24.1193 -11.591 -25.5 -11.591C-26.8807 -11.591 -28 -12.3541 -28 -13.2955C-28 -14.2369 -26.8807 -15 -25.5 -15C-24.1193 -15 -23 -14.2369 -23 -13.2955Z" fill="url(#paint28_linear_54_2489)"/>
<path d="M-8 -13.2955C-8 -12.3541 -9.11929 -11.591 -10.5 -11.591C-11.8807 -11.591 -13 -12.3541 -13 -13.2955C-13 -14.2369 -11.8807 -15 -10.5 -15C-9.11929 -15 -8 -14.2369 -8 -13.2955Z" fill="url(#paint29_linear_54_2489)"/>
<path d="M7 -13.2955C7 -12.3541 5.88071 -11.591 4.5 -11.591C3.11929 -11.591 2 -12.3541 2 -13.2955C2 -14.2369 3.11929 -15 4.5 -15C5.88071 -15 7 -14.2369 7 -13.2955Z" fill="url(#paint30_linear_54_2489)"/>
<path d="M22 -13.2955C22 -12.3541 20.8807 -11.591 19.5 -11.591C18.1193 -11.591 17 -12.3541 17 -13.2955C17 -14.2369 18.1193 -15 19.5 -15C20.8807 -15 22 -14.2369 22 -13.2955Z" fill="url(#paint31_linear_54_2489)"/>
<path d="M37 -13.2955C37 -12.3541 35.8807 -11.591 34.5 -11.591C33.1193 -11.591 32 -12.3541 32 -13.2955C32 -14.2369 33.1193 -15 34.5 -15C35.8807 -15 37 -14.2369 37 -13.2955Z" fill="url(#paint32_linear_54_2489)"/>
<path d="M-113 -3.06823C-113 -2.12683 -114.119 -1.36368 -115.5 -1.36368C-116.881 -1.36368 -118 -2.12683 -118 -3.06823C-118 -4.00962 -116.881 -4.77277 -115.5 -4.77277C-114.119 -4.77277 -113 -4.00962 -113 -3.06823Z" fill="url(#paint33_linear_54_2489)"/>
<path d="M-98 -3.06823C-98 -2.12683 -99.1193 -1.36368 -100.5 -1.36368C-101.881 -1.36368 -103 -2.12683 -103 -3.06823C-103 -4.00962 -101.881 -4.77277 -100.5 -4.77277C-99.1193 -4.77277 -98 -4.00962 -98 -3.06823Z" fill="url(#paint34_linear_54_2489)"/>
<path d="M-83 -3.06823C-83 -2.12683 -84.1193 -1.36368 -85.5 -1.36368C-86.8807 -1.36368 -88 -2.12683 -88 -3.06823C-88 -4.00962 -86.8807 -4.77277 -85.5 -4.77277C-84.1193 -4.77277 -83 -4.00962 -83 -3.06823Z" fill="url(#paint35_linear_54_2489)"/>
<path d="M-68 -3.06823C-68 -2.12683 -69.1193 -1.36368 -70.5 -1.36368C-71.8807 -1.36368 -73 -2.12683 -73 -3.06823C-73 -4.00962 -71.8807 -4.77277 -70.5 -4.77277C-69.1193 -4.77277 -68 -4.00962 -68 -3.06823Z" fill="url(#paint36_linear_54_2489)"/>
<path d="M-53 -3.06823C-53 -2.12683 -54.1193 -1.36368 -55.5 -1.36368C-56.8807 -1.36368 -58 -2.12683 -58 -3.06823C-58 -4.00962 -56.8807 -4.77277 -55.5 -4.77277C-54.1193 -4.77277 -53 -4.00962 -53 -3.06823Z" fill="url(#paint37_linear_54_2489)"/>
<path d="M-38 -3.06823C-38 -2.12683 -39.1193 -1.36368 -40.5 -1.36368C-41.8807 -1.36368 -43 -2.12683 -43 -3.06823C-43 -4.00962 -41.8807 -4.77277 -40.5 -4.77277C-39.1193 -4.77277 -38 -4.00962 -38 -3.06823Z" fill="url(#paint38_linear_54_2489)"/>
<path d="M-23 -3.06823C-23 -2.12683 -24.1193 -1.36368 -25.5 -1.36368C-26.8807 -1.36368 -28 -2.12683 -28 -3.06823C-28 -4.00962 -26.8807 -4.77277 -25.5 -4.77277C-24.1193 -4.77277 -23 -4.00962 -23 -3.06823Z" fill="url(#paint39_linear_54_2489)"/>
<path d="M-8 -3.06823C-8 -2.12683 -9.11929 -1.36368 -10.5 -1.36368C-11.8807 -1.36368 -13 -2.12683 -13 -3.06823C-13 -4.00962 -11.8807 -4.77277 -10.5 -4.77277C-9.11929 -4.77277 -8 -4.00962 -8 -3.06823Z" fill="url(#paint40_linear_54_2489)"/>
<path d="M7 -3.06823C7 -2.12683 5.88071 -1.36368 4.5 -1.36368C3.11929 -1.36368 2 -2.12683 2 -3.06823C2 -4.00962 3.11929 -4.77277 4.5 -4.77277C5.88071 -4.77277 7 -4.00962 7 -3.06823Z" fill="url(#paint41_linear_54_2489)"/>
<path d="M22 -3.06823C22 -2.12683 20.8807 -1.36368 19.5 -1.36368C18.1193 -1.36368 17 -2.12683 17 -3.06823C17 -4.00962 18.1193 -4.77277 19.5 -4.77277C20.8807 -4.77277 22 -4.00962 22 -3.06823Z" fill="url(#paint42_linear_54_2489)"/>
<path d="M37 -3.06823C37 -2.12683 35.8807 -1.36368 34.5 -1.36368C33.1193 -1.36368 32 -2.12683 32 -3.06823C32 -4.00962 33.1193 -4.77277 34.5 -4.77277C35.8807 -4.77277 37 -4.00962 37 -3.06823Z" fill="url(#paint43_linear_54_2489)"/>
<path d="M-113 7.15905C-113 8.10044 -114.119 8.86359 -115.5 8.86359C-116.881 8.86359 -118 8.10044 -118 7.15905C-118 6.21765 -116.881 5.4545 -115.5 5.4545C-114.119 5.4545 -113 6.21765 -113 7.15905Z" fill="url(#paint44_linear_54_2489)"/>
<path d="M-98 7.15905C-98 8.10044 -99.1193 8.86359 -100.5 8.86359C-101.881 8.86359 -103 8.10044 -103 7.15905C-103 6.21765 -101.881 5.4545 -100.5 5.4545C-99.1193 5.4545 -98 6.21765 -98 7.15905Z" fill="url(#paint45_linear_54_2489)"/>
<path d="M-83 7.15905C-83 8.10044 -84.1193 8.86359 -85.5 8.86359C-86.8807 8.86359 -88 8.10044 -88 7.15905C-88 6.21765 -86.8807 5.4545 -85.5 5.4545C-84.1193 5.4545 -83 6.21765 -83 7.15905Z" fill="url(#paint46_linear_54_2489)"/>
<path d="M-68 7.15905C-68 8.10044 -69.1193 8.86359 -70.5 8.86359C-71.8807 8.86359 -73 8.10044 -73 7.15905C-73 6.21765 -71.8807 5.4545 -70.5 5.4545C-69.1193 5.4545 -68 6.21765 -68 7.15905Z" fill="url(#paint47_linear_54_2489)"/>
<path d="M-53 7.15905C-53 8.10044 -54.1193 8.86359 -55.5 8.86359C-56.8807 8.86359 -58 8.10044 -58 7.15905C-58 6.21765 -56.8807 5.4545 -55.5 5.4545C-54.1193 5.4545 -53 6.21765 -53 7.15905Z" fill="url(#paint48_linear_54_2489)"/>
<path d="M-38 7.15905C-38 8.10044 -39.1193 8.86359 -40.5 8.86359C-41.8807 8.86359 -43 8.10044 -43 7.15905C-43 6.21765 -41.8807 5.4545 -40.5 5.4545C-39.1193 5.4545 -38 6.21765 -38 7.15905Z" fill="url(#paint49_linear_54_2489)"/>
<path d="M-23 7.15905C-23 8.10044 -24.1193 8.86359 -25.5 8.86359C-26.8807 8.86359 -28 8.10044 -28 7.15905C-28 6.21765 -26.8807 5.4545 -25.5 5.4545C-24.1193 5.4545 -23 6.21765 -23 7.15905Z" fill="url(#paint50_linear_54_2489)"/>
<path d="M-8 7.15905C-8 8.10044 -9.11929 8.86359 -10.5 8.86359C-11.8807 8.86359 -13 8.10044 -13 7.15905C-13 6.21765 -11.8807 5.4545 -10.5 5.4545C-9.11929 5.4545 -8 6.21765 -8 7.15905Z" fill="url(#paint51_linear_54_2489)"/>
<path d="M7 7.15905C7 8.10044 5.88071 8.86359 4.5 8.86359C3.11929 8.86359 2 8.10044 2 7.15905C2 6.21765 3.11929 5.4545 4.5 5.4545C5.88071 5.4545 7 6.21765 7 7.15905Z" fill="url(#paint52_linear_54_2489)"/>
<path d="M22 7.15905C22 8.10044 20.8807 8.86359 19.5 8.86359C18.1193 8.86359 17 8.10044 17 7.15905C17 6.21765 18.1193 5.4545 19.5 5.4545C20.8807 5.4545 22 6.21765 22 7.15905Z" fill="url(#paint53_linear_54_2489)"/>
<path d="M37 7.15905C37 8.10044 35.8807 8.86359 34.5 8.86359C33.1193 8.86359 32 8.10044 32 7.15905C32 6.21765 33.1193 5.4545 34.5 5.4545C35.8807 5.4545 37 6.21765 37 7.15905Z" fill="url(#paint54_linear_54_2489)"/>
<path d="M-113 17.3863C-113 18.3277 -114.119 19.0909 -115.5 19.0909C-116.881 19.0909 -118 18.3277 -118 17.3863C-118 16.4449 -116.881 15.6818 -115.5 15.6818C-114.119 15.6818 -113 16.4449 -113 17.3863Z" fill="url(#paint55_linear_54_2489)"/>
<path d="M-98 17.3863C-98 18.3277 -99.1193 19.0909 -100.5 19.0909C-101.881 19.0909 -103 18.3277 -103 17.3863C-103 16.4449 -101.881 15.6818 -100.5 15.6818C-99.1193 15.6818 -98 16.4449 -98 17.3863Z" fill="url(#paint56_linear_54_2489)"/>
<path d="M-83 17.3863C-83 18.3277 -84.1193 19.0909 -85.5 19.0909C-86.8807 19.0909 -88 18.3277 -88 17.3863C-88 16.4449 -86.8807 15.6818 -85.5 15.6818C-84.1193 15.6818 -83 16.4449 -83 17.3863Z" fill="url(#paint57_linear_54_2489)"/>
<path d="M-68 17.3863C-68 18.3277 -69.1193 19.0909 -70.5 19.0909C-71.8807 19.0909 -73 18.3277 -73 17.3863C-73 16.4449 -71.8807 15.6818 -70.5 15.6818C-69.1193 15.6818 -68 16.4449 -68 17.3863Z" fill="url(#paint58_linear_54_2489)"/>
<path d="M-53 17.3863C-53 18.3277 -54.1193 19.0909 -55.5 19.0909C-56.8807 19.0909 -58 18.3277 -58 17.3863C-58 16.4449 -56.8807 15.6818 -55.5 15.6818C-54.1193 15.6818 -53 16.4449 -53 17.3863Z" fill="url(#paint59_linear_54_2489)"/>
<path d="M-38 17.3863C-38 18.3277 -39.1193 19.0909 -40.5 19.0909C-41.8807 19.0909 -43 18.3277 -43 17.3863C-43 16.4449 -41.8807 15.6818 -40.5 15.6818C-39.1193 15.6818 -38 16.4449 -38 17.3863Z" fill="url(#paint60_linear_54_2489)"/>
<path d="M-23 17.3863C-23 18.3277 -24.1193 19.0909 -25.5 19.0909C-26.8807 19.0909 -28 18.3277 -28 17.3863C-28 16.4449 -26.8807 15.6818 -25.5 15.6818C-24.1193 15.6818 -23 16.4449 -23 17.3863Z" fill="url(#paint61_linear_54_2489)"/>
<path d="M-8 17.3863C-8 18.3277 -9.11929 19.0909 -10.5 19.0909C-11.8807 19.0909 -13 18.3277 -13 17.3863C-13 16.4449 -11.8807 15.6818 -10.5 15.6818C-9.11929 15.6818 -8 16.4449 -8 17.3863Z" fill="url(#paint62_linear_54_2489)"/>
<path d="M7 17.3863C7 18.3277 5.88071 19.0909 4.5 19.0909C3.11929 19.0909 2 18.3277 2 17.3863C2 16.4449 3.11929 15.6818 4.5 15.6818C5.88071 15.6818 7 16.4449 7 17.3863Z" fill="url(#paint63_linear_54_2489)"/>
<path d="M22 17.3863C22 18.3277 20.8807 19.0909 19.5 19.0909C18.1193 19.0909 17 18.3277 17 17.3863C17 16.4449 18.1193 15.6818 19.5 15.6818C20.8807 15.6818 22 16.4449 22 17.3863Z" fill="url(#paint64_linear_54_2489)"/>
<path d="M37 17.3863C37 18.3277 35.8807 19.0909 34.5 19.0909C33.1193 19.0909 32 18.3277 32 17.3863C32 16.4449 33.1193 15.6818 34.5 15.6818C35.8807 15.6818 37 16.4449 37 17.3863Z" fill="url(#paint65_linear_54_2489)"/>
<path d="M-113 27.6136C-113 28.555 -114.119 29.3181 -115.5 29.3181C-116.881 29.3181 -118 28.555 -118 27.6136C-118 26.6722 -116.881 25.909 -115.5 25.909C-114.119 25.909 -113 26.6722 -113 27.6136Z" fill="url(#paint66_linear_54_2489)"/>
<path d="M-98 27.6136C-98 28.555 -99.1193 29.3181 -100.5 29.3181C-101.881 29.3181 -103 28.555 -103 27.6136C-103 26.6722 -101.881 25.909 -100.5 25.909C-99.1193 25.909 -98 26.6722 -98 27.6136Z" fill="url(#paint67_linear_54_2489)"/>
<path d="M-83 27.6136C-83 28.555 -84.1193 29.3181 -85.5 29.3181C-86.8807 29.3181 -88 28.555 -88 27.6136C-88 26.6722 -86.8807 25.909 -85.5 25.909C-84.1193 25.909 -83 26.6722 -83 27.6136Z" fill="url(#paint68_linear_54_2489)"/>
<path d="M-68 27.6136C-68 28.555 -69.1193 29.3181 -70.5 29.3181C-71.8807 29.3181 -73 28.555 -73 27.6136C-73 26.6722 -71.8807 25.909 -70.5 25.909C-69.1193 25.909 -68 26.6722 -68 27.6136Z" fill="url(#paint69_linear_54_2489)"/>
<path d="M-53 27.6136C-53 28.555 -54.1193 29.3181 -55.5 29.3181C-56.8807 29.3181 -58 28.555 -58 27.6136C-58 26.6722 -56.8807 25.909 -55.5 25.909C-54.1193 25.909 -53 26.6722 -53 27.6136Z" fill="url(#paint70_linear_54_2489)"/>
<path d="M-38 27.6136C-38 28.555 -39.1193 29.3181 -40.5 29.3181C-41.8807 29.3181 -43 28.555 -43 27.6136C-43 26.6722 -41.8807 25.909 -40.5 25.909C-39.1193 25.909 -38 26.6722 -38 27.6136Z" fill="url(#paint71_linear_54_2489)"/>
<path d="M-23 27.6136C-23 28.555 -24.1193 29.3181 -25.5 29.3181C-26.8807 29.3181 -28 28.555 -28 27.6136C-28 26.6722 -26.8807 25.909 -25.5 25.909C-24.1193 25.909 -23 26.6722 -23 27.6136Z" fill="url(#paint72_linear_54_2489)"/>
<path d="M-8 27.6136C-8 28.555 -9.11929 29.3181 -10.5 29.3181C-11.8807 29.3181 -13 28.555 -13 27.6136C-13 26.6722 -11.8807 25.909 -10.5 25.909C-9.11929 25.909 -8 26.6722 -8 27.6136Z" fill="url(#paint73_linear_54_2489)"/>
<path d="M7 27.6136C7 28.555 5.88071 29.3181 4.5 29.3181C3.11929 29.3181 2 28.555 2 27.6136C2 26.6722 3.11929 25.909 4.5 25.909C5.88071 25.909 7 26.6722 7 27.6136Z" fill="url(#paint74_linear_54_2489)"/>
<path d="M22 27.6136C22 28.555 20.8807 29.3181 19.5 29.3181C18.1193 29.3181 17 28.555 17 27.6136C17 26.6722 18.1193 25.909 19.5 25.909C20.8807 25.909 22 26.6722 22 27.6136Z" fill="url(#paint75_linear_54_2489)"/>
<path d="M37 27.6136C37 28.555 35.8807 29.3181 34.5 29.3181C33.1193 29.3181 32 28.555 32 27.6136C32 26.6722 33.1193 25.909 34.5 25.909C35.8807 25.909 37 26.6722 37 27.6136Z" fill="url(#paint76_linear_54_2489)"/>
<path d="M-113 37.8409C-113 38.7823 -114.119 39.5454 -115.5 39.5454C-116.881 39.5454 -118 38.7823 -118 37.8409C-118 36.8995 -116.881 36.1363 -115.5 36.1363C-114.119 36.1363 -113 36.8995 -113 37.8409Z" fill="url(#paint77_linear_54_2489)"/>
<path d="M-98 37.8409C-98 38.7823 -99.1193 39.5454 -100.5 39.5454C-101.881 39.5454 -103 38.7823 -103 37.8409C-103 36.8995 -101.881 36.1363 -100.5 36.1363C-99.1193 36.1363 -98 36.8995 -98 37.8409Z" fill="url(#paint78_linear_54_2489)"/>
<path d="M-83 37.8409C-83 38.7823 -84.1193 39.5454 -85.5 39.5454C-86.8807 39.5454 -88 38.7823 -88 37.8409C-88 36.8995 -86.8807 36.1363 -85.5 36.1363C-84.1193 36.1363 -83 36.8995 -83 37.8409Z" fill="url(#paint79_linear_54_2489)"/>
<path d="M-68 37.8409C-68 38.7823 -69.1193 39.5454 -70.5 39.5454C-71.8807 39.5454 -73 38.7823 -73 37.8409C-73 36.8995 -71.8807 36.1363 -70.5 36.1363C-69.1193 36.1363 -68 36.8995 -68 37.8409Z" fill="url(#paint80_linear_54_2489)"/>
<path d="M-53 37.8409C-53 38.7823 -54.1193 39.5454 -55.5 39.5454C-56.8807 39.5454 -58 38.7823 -58 37.8409C-58 36.8995 -56.8807 36.1363 -55.5 36.1363C-54.1193 36.1363 -53 36.8995 -53 37.8409Z" fill="url(#paint81_linear_54_2489)"/>
<path d="M-38 37.8409C-38 38.7823 -39.1193 39.5454 -40.5 39.5454C-41.8807 39.5454 -43 38.7823 -43 37.8409C-43 36.8995 -41.8807 36.1363 -40.5 36.1363C-39.1193 36.1363 -38 36.8995 -38 37.8409Z" fill="url(#paint82_linear_54_2489)"/>
<path d="M-23 37.8409C-23 38.7823 -24.1193 39.5454 -25.5 39.5454C-26.8807 39.5454 -28 38.7823 -28 37.8409C-28 36.8995 -26.8807 36.1363 -25.5 36.1363C-24.1193 36.1363 -23 36.8995 -23 37.8409Z" fill="url(#paint83_linear_54_2489)"/>
<path d="M-8 37.8409C-8 38.7823 -9.11929 39.5454 -10.5 39.5454C-11.8807 39.5454 -13 38.7823 -13 37.8409C-13 36.8995 -11.8807 36.1363 -10.5 36.1363C-9.11929 36.1363 -8 36.8995 -8 37.8409Z" fill="url(#paint84_linear_54_2489)"/>
<path d="M7 37.8409C7 38.7823 5.88071 39.5454 4.5 39.5454C3.11929 39.5454 2 38.7823 2 37.8409C2 36.8995 3.11929 36.1363 4.5 36.1363C5.88071 36.1363 7 36.8995 7 37.8409Z" fill="url(#paint85_linear_54_2489)"/>
<path d="M22 37.8409C22 38.7823 20.8807 39.5454 19.5 39.5454C18.1193 39.5454 17 38.7823 17 37.8409C17 36.8995 18.1193 36.1363 19.5 36.1363C20.8807 36.1363 22 36.8995 22 37.8409Z" fill="url(#paint86_linear_54_2489)"/>
<path d="M37 37.8409C37 38.7823 35.8807 39.5454 34.5 39.5454C33.1193 39.5454 32 38.7823 32 37.8409C32 36.8995 33.1193 36.1363 34.5 36.1363C35.8807 36.1363 37 36.8995 37 37.8409Z" fill="url(#paint87_linear_54_2489)"/>
<path d="M-113 48.0681C-113 49.0095 -114.119 49.7727 -115.5 49.7727C-116.881 49.7727 -118 49.0095 -118 48.0681C-118 47.1267 -116.881 46.3636 -115.5 46.3636C-114.119 46.3636 -113 47.1267 -113 48.0681Z" fill="url(#paint88_linear_54_2489)"/>
<path d="M-98 48.0681C-98 49.0095 -99.1193 49.7727 -100.5 49.7727C-101.881 49.7727 -103 49.0095 -103 48.0681C-103 47.1267 -101.881 46.3636 -100.5 46.3636C-99.1193 46.3636 -98 47.1267 -98 48.0681Z" fill="url(#paint89_linear_54_2489)"/>
<path d="M-83 48.0681C-83 49.0095 -84.1193 49.7727 -85.5 49.7727C-86.8807 49.7727 -88 49.0095 -88 48.0681C-88 47.1267 -86.8807 46.3636 -85.5 46.3636C-84.1193 46.3636 -83 47.1267 -83 48.0681Z" fill="url(#paint90_linear_54_2489)"/>
<path d="M-68 48.0681C-68 49.0095 -69.1193 49.7727 -70.5 49.7727C-71.8807 49.7727 -73 49.0095 -73 48.0681C-73 47.1267 -71.8807 46.3636 -70.5 46.3636C-69.1193 46.3636 -68 47.1267 -68 48.0681Z" fill="url(#paint91_linear_54_2489)"/>
<path d="M-53 48.0681C-53 49.0095 -54.1193 49.7727 -55.5 49.7727C-56.8807 49.7727 -58 49.0095 -58 48.0681C-58 47.1267 -56.8807 46.3636 -55.5 46.3636C-54.1193 46.3636 -53 47.1267 -53 48.0681Z" fill="url(#paint92_linear_54_2489)"/>
<path d="M-38 48.0681C-38 49.0095 -39.1193 49.7727 -40.5 49.7727C-41.8807 49.7727 -43 49.0095 -43 48.0681C-43 47.1267 -41.8807 46.3636 -40.5 46.3636C-39.1193 46.3636 -38 47.1267 -38 48.0681Z" fill="url(#paint93_linear_54_2489)"/>
<path d="M-23 48.0681C-23 49.0095 -24.1193 49.7727 -25.5 49.7727C-26.8807 49.7727 -28 49.0095 -28 48.0681C-28 47.1267 -26.8807 46.3636 -25.5 46.3636C-24.1193 46.3636 -23 47.1267 -23 48.0681Z" fill="url(#paint94_linear_54_2489)"/>
<path d="M-8 48.0681C-8 49.0095 -9.11929 49.7727 -10.5 49.7727C-11.8807 49.7727 -13 49.0095 -13 48.0681C-13 47.1267 -11.8807 46.3636 -10.5 46.3636C-9.11929 46.3636 -8 47.1267 -8 48.0681Z" fill="url(#paint95_linear_54_2489)"/>
<path d="M7 48.0681C7 49.0095 5.88071 49.7727 4.5 49.7727C3.11929 49.7727 2 49.0095 2 48.0681C2 47.1267 3.11929 46.3636 4.5 46.3636C5.88071 46.3636 7 47.1267 7 48.0681Z" fill="url(#paint96_linear_54_2489)"/>
<path d="M22 48.0681C22 49.0095 20.8807 49.7727 19.5 49.7727C18.1193 49.7727 17 49.0095 17 48.0681C17 47.1267 18.1193 46.3636 19.5 46.3636C20.8807 46.3636 22 47.1267 22 48.0681Z" fill="url(#paint97_linear_54_2489)"/>
<path d="M37 48.0681C37 49.0095 35.8807 49.7727 34.5 49.7727C33.1193 49.7727 32 49.0095 32 48.0681C32 47.1267 33.1193 46.3636 34.5 46.3636C35.8807 46.3636 37 47.1267 37 48.0681Z" fill="url(#paint98_linear_54_2489)"/>
<path d="M-113 58.2954C-113 59.2368 -114.119 60 -115.5 60C-116.881 60 -118 59.2368 -118 58.2954C-118 57.354 -116.881 56.5909 -115.5 56.5909C-114.119 56.5909 -113 57.354 -113 58.2954Z" fill="url(#paint99_linear_54_2489)"/>
<path d="M-98 58.2954C-98 59.2368 -99.1193 60 -100.5 60C-101.881 60 -103 59.2368 -103 58.2954C-103 57.354 -101.881 56.5909 -100.5 56.5909C-99.1193 56.5909 -98 57.354 -98 58.2954Z" fill="url(#paint100_linear_54_2489)"/>
<path d="M-83 58.2954C-83 59.2368 -84.1193 60 -85.5 60C-86.8807 60 -88 59.2368 -88 58.2954C-88 57.354 -86.8807 56.5909 -85.5 56.5909C-84.1193 56.5909 -83 57.354 -83 58.2954Z" fill="url(#paint101_linear_54_2489)"/>
<path d="M-68 58.2954C-68 59.2368 -69.1193 60 -70.5 60C-71.8807 60 -73 59.2368 -73 58.2954C-73 57.354 -71.8807 56.5909 -70.5 56.5909C-69.1193 56.5909 -68 57.354 -68 58.2954Z" fill="url(#paint102_linear_54_2489)"/>
<path d="M-53 58.2954C-53 59.2368 -54.1193 60 -55.5 60C-56.8807 60 -58 59.2368 -58 58.2954C-58 57.354 -56.8807 56.5909 -55.5 56.5909C-54.1193 56.5909 -53 57.354 -53 58.2954Z" fill="url(#paint103_linear_54_2489)"/>
<path d="M-38 58.2954C-38 59.2368 -39.1193 60 -40.5 60C-41.8807 60 -43 59.2368 -43 58.2954C-43 57.354 -41.8807 56.5909 -40.5 56.5909C-39.1193 56.5909 -38 57.354 -38 58.2954Z" fill="url(#paint104_linear_54_2489)"/>
<path d="M-23 58.2954C-23 59.2368 -24.1193 60 -25.5 60C-26.8807 60 -28 59.2368 -28 58.2954C-28 57.354 -26.8807 56.5909 -25.5 56.5909C-24.1193 56.5909 -23 57.354 -23 58.2954Z" fill="url(#paint105_linear_54_2489)"/>
<path d="M-8 58.2954C-8 59.2368 -9.11929 60 -10.5 60C-11.8807 60 -13 59.2368 -13 58.2954C-13 57.354 -11.8807 56.5909 -10.5 56.5909C-9.11929 56.5909 -8 57.354 -8 58.2954Z" fill="url(#paint106_linear_54_2489)"/>
<path d="M7 58.2954C7 59.2368 5.88071 60 4.5 60C3.11929 60 2 59.2368 2 58.2954C2 57.354 3.11929 56.5909 4.5 56.5909C5.88071 56.5909 7 57.354 7 58.2954Z" fill="url(#paint107_linear_54_2489)"/>
<path d="M22 58.2954C22 59.2368 20.8807 60 19.5 60C18.1193 60 17 59.2368 17 58.2954C17 57.354 18.1193 56.5909 19.5 56.5909C20.8807 56.5909 22 57.354 22 58.2954Z" fill="url(#paint108_linear_54_2489)"/>
<path d="M37 58.2954C37 59.2368 35.8807 60 34.5 60C33.1193 60 32 59.2368 32 58.2954C32 57.354 33.1193 56.5909 34.5 56.5909C35.8807 56.5909 37 57.354 37 58.2954Z" fill="url(#paint109_linear_54_2489)"/>
<path d="M-113 68.5227C-113 69.4641 -114.119 70.2272 -115.5 70.2272C-116.881 70.2272 -118 69.4641 -118 68.5227C-118 67.5813 -116.881 66.8181 -115.5 66.8181C-114.119 66.8181 -113 67.5813 -113 68.5227Z" fill="url(#paint110_linear_54_2489)"/>
<path d="M-98 68.5227C-98 69.4641 -99.1193 70.2272 -100.5 70.2272C-101.881 70.2272 -103 69.4641 -103 68.5227C-103 67.5813 -101.881 66.8181 -100.5 66.8181C-99.1193 66.8181 -98 67.5813 -98 68.5227Z" fill="url(#paint111_linear_54_2489)"/>
<path d="M-83 68.5227C-83 69.4641 -84.1193 70.2272 -85.5 70.2272C-86.8807 70.2272 -88 69.4641 -88 68.5227C-88 67.5813 -86.8807 66.8181 -85.5 66.8181C-84.1193 66.8181 -83 67.5813 -83 68.5227Z" fill="url(#paint112_linear_54_2489)"/>
<path d="M-68 68.5227C-68 69.4641 -69.1193 70.2272 -70.5 70.2272C-71.8807 70.2272 -73 69.4641 -73 68.5227C-73 67.5813 -71.8807 66.8181 -70.5 66.8181C-69.1193 66.8181 -68 67.5813 -68 68.5227Z" fill="url(#paint113_linear_54_2489)"/>
<path d="M-53 68.5227C-53 69.4641 -54.1193 70.2272 -55.5 70.2272C-56.8807 70.2272 -58 69.4641 -58 68.5227C-58 67.5813 -56.8807 66.8181 -55.5 66.8181C-54.1193 66.8181 -53 67.5813 -53 68.5227Z" fill="url(#paint114_linear_54_2489)"/>
<path d="M-38 68.5227C-38 69.4641 -39.1193 70.2272 -40.5 70.2272C-41.8807 70.2272 -43 69.4641 -43 68.5227C-43 67.5813 -41.8807 66.8181 -40.5 66.8181C-39.1193 66.8181 -38 67.5813 -38 68.5227Z" fill="url(#paint115_linear_54_2489)"/>
<path d="M-23 68.5227C-23 69.4641 -24.1193 70.2272 -25.5 70.2272C-26.8807 70.2272 -28 69.4641 -28 68.5227C-28 67.5813 -26.8807 66.8181 -25.5 66.8181C-24.1193 66.8181 -23 67.5813 -23 68.5227Z" fill="url(#paint116_linear_54_2489)"/>
<path d="M-8 68.5227C-8 69.4641 -9.11929 70.2272 -10.5 70.2272C-11.8807 70.2272 -13 69.4641 -13 68.5227C-13 67.5813 -11.8807 66.8181 -10.5 66.8181C-9.11929 66.8181 -8 67.5813 -8 68.5227Z" fill="url(#paint117_linear_54_2489)"/>
<path d="M7 68.5227C7 69.4641 5.88071 70.2272 4.5 70.2272C3.11929 70.2272 2 69.4641 2 68.5227C2 67.5813 3.11929 66.8181 4.5 66.8181C5.88071 66.8181 7 67.5813 7 68.5227Z" fill="url(#paint118_linear_54_2489)"/>
<path d="M22 68.5227C22 69.4641 20.8807 70.2272 19.5 70.2272C18.1193 70.2272 17 69.4641 17 68.5227C17 67.5813 18.1193 66.8181 19.5 66.8181C20.8807 66.8181 22 67.5813 22 68.5227Z" fill="url(#paint119_linear_54_2489)"/>
<path d="M37 68.5227C37 69.4641 35.8807 70.2272 34.5 70.2272C33.1193 70.2272 32 69.4641 32 68.5227C32 67.5813 33.1193 66.8181 34.5 66.8181C35.8807 66.8181 37 67.5813 37 68.5227Z" fill="url(#paint120_linear_54_2489)"/>
<path d="M-113 78.75C-113 79.6914 -114.119 80.4545 -115.5 80.4545C-116.881 80.4545 -118 79.6914 -118 78.75C-118 77.8086 -116.881 77.0454 -115.5 77.0454C-114.119 77.0454 -113 77.8086 -113 78.75Z" fill="url(#paint121_linear_54_2489)"/>
<path d="M-98 78.75C-98 79.6914 -99.1193 80.4545 -100.5 80.4545C-101.881 80.4545 -103 79.6914 -103 78.75C-103 77.8086 -101.881 77.0454 -100.5 77.0454C-99.1193 77.0454 -98 77.8086 -98 78.75Z" fill="url(#paint122_linear_54_2489)"/>
<path d="M-83 78.75C-83 79.6914 -84.1193 80.4545 -85.5 80.4545C-86.8807 80.4545 -88 79.6914 -88 78.75C-88 77.8086 -86.8807 77.0454 -85.5 77.0454C-84.1193 77.0454 -83 77.8086 -83 78.75Z" fill="url(#paint123_linear_54_2489)"/>
<path d="M-68 78.75C-68 79.6914 -69.1193 80.4545 -70.5 80.4545C-71.8807 80.4545 -73 79.6914 -73 78.75C-73 77.8086 -71.8807 77.0454 -70.5 77.0454C-69.1193 77.0454 -68 77.8086 -68 78.75Z" fill="url(#paint124_linear_54_2489)"/>
<path d="M-53 78.75C-53 79.6914 -54.1193 80.4545 -55.5 80.4545C-56.8807 80.4545 -58 79.6914 -58 78.75C-58 77.8086 -56.8807 77.0454 -55.5 77.0454C-54.1193 77.0454 -53 77.8086 -53 78.75Z" fill="url(#paint125_linear_54_2489)"/>
<path d="M-38 78.75C-38 79.6914 -39.1193 80.4545 -40.5 80.4545C-41.8807 80.4545 -43 79.6914 -43 78.75C-43 77.8086 -41.8807 77.0454 -40.5 77.0454C-39.1193 77.0454 -38 77.8086 -38 78.75Z" fill="url(#paint126_linear_54_2489)"/>
<path d="M-23 78.75C-23 79.6914 -24.1193 80.4545 -25.5 80.4545C-26.8807 80.4545 -28 79.6914 -28 78.75C-28 77.8086 -26.8807 77.0454 -25.5 77.0454C-24.1193 77.0454 -23 77.8086 -23 78.75Z" fill="url(#paint127_linear_54_2489)"/>
<path d="M-8 78.75C-8 79.6914 -9.11929 80.4545 -10.5 80.4545C-11.8807 80.4545 -13 79.6914 -13 78.75C-13 77.8086 -11.8807 77.0454 -10.5 77.0454C-9.11929 77.0454 -8 77.8086 -8 78.75Z" fill="url(#paint128_linear_54_2489)"/>
<path d="M7 78.75C7 79.6914 5.88071 80.4545 4.5 80.4545C3.11929 80.4545 2 79.6914 2 78.75C2 77.8086 3.11929 77.0454 4.5 77.0454C5.88071 77.0454 7 77.8086 7 78.75Z" fill="url(#paint129_linear_54_2489)"/>
<path d="M22 78.75C22 79.6914 20.8807 80.4545 19.5 80.4545C18.1193 80.4545 17 79.6914 17 78.75C17 77.8086 18.1193 77.0454 19.5 77.0454C20.8807 77.0454 22 77.8086 22 78.75Z" fill="url(#paint130_linear_54_2489)"/>
<path d="M37 78.75C37 79.6914 35.8807 80.4545 34.5 80.4545C33.1193 80.4545 32 79.6914 32 78.75C32 77.8086 33.1193 77.0454 34.5 77.0454C35.8807 77.0454 37 77.8086 37 78.75Z" fill="url(#paint131_linear_54_2489)"/>
<defs>
<linearGradient id="paint0_linear_54_2489" x1="-40.5" y1="-35.4546" x2="-40.5" y2="80.4545" gradientUnits="userSpaceOnUse">
<stop stop-color="#2C2C2C" stop-opacity="0"/>
<stop offset="1" stop-color="#027800"/>
</linearGradient>
<linearGradient id="paint1_linear_54_2489" x1="-40.5" y1="-35.4546" x2="-40.5" y2="80.4545" gradientUnits="userSpaceOnUse">
<stop stop-color="#2C2C2C" stop-opacity="0"/>
<stop offset="1" stop-color="#027800"/>
</linearGradient>
<linearGradient id="paint2_linear_54_2489" x1="-40.5" y1="-35.4546" x2="-40.5" y2="80.4545" gradientUnits="userSpaceOnUse">
<stop stop-color="#2C2C2C" stop-opacity="0"/>
<stop offset="1" stop-color="#027800"/>
</linearGradient>
<linearGradient id="paint3_linear_54_2489" x1="-40.5" y1="-35.4546" x2="-40.5" y2="80.4545" gradientUnits="userSpaceOnUse">
<stop stop-color="#2C2C2C" stop-opacity="0"/>
<stop offset="1" stop-color="#027800"/>
</linearGradient>
<linearGradient id="paint4_linear_54_2489" x1="-40.5" y1="-35.4546" x2="-40.5" y2="80.4545" gradientUnits="userSpaceOnUse">
<stop stop-color="#2C2C2C" stop-opacity="0"/>
<stop offset="1" stop-color="#027800"/>
</linearGradient>
<linearGradient id="paint5_linear_54_2489" x1="-40.5" y1="-35.4546" x2="-40.5" y2="80.4545" gradientUnits="userSpaceOnUse">
<stop stop-color="#2C2C2C" stop-opacity="0"/>
<stop offset="1" stop-color="#027800"/>
</linearGradient>
<linearGradient id="paint6_linear_54_2489" x1="-40.5" y1="-35.4546" x2="-40.5" y2="80.4545" gradientUnits="userSpaceOnUse">
<stop stop-color="#2C2C2C" stop-opacity="0"/>
<stop offset="1" stop-color="#027800"/>
</linearGradient>
<linearGradient id="paint7_linear_54_2489" x1="-40.5" y1="-35.4546" x2="-40.5" y2="80.4545" gradientUnits="userSpaceOnUse">
<stop stop-color="#2C2C2C" stop-opacity="0"/>
<stop offset="1" stop-color="#027800"/>
</linearGradient>
<linearGradient id="paint8_linear_54_2489" x1="-40.5" y1="-35.4546" x2="-40.5" y2="80.4545" gradientUnits="userSpaceOnUse">
<stop stop-color="#2C2C2C" stop-opacity="0"/>
<stop offset="1" stop-color="#027800"/>
</linearGradient>
<linearGradient id="paint9_linear_54_2489" x1="-40.5" y1="-35.4546" x2="-40.5" y2="80.4545" gradientUnits="userSpaceOnUse">
<stop stop-color="#2C2C2C" stop-opacity="0"/>
<stop offset="1" stop-color="#027800"/>
</linearGradient>
<linearGradient id="paint10_linear_54_2489" x1="-40.5" y1="-35.4546" x2="-40.5" y2="80.4545" gradientUnits="userSpaceOnUse">
<stop stop-color="#2C2C2C" stop-opacity="0"/>
<stop offset="1" stop-color="#027800"/>
</linearGradient>
<linearGradient id="paint11_linear_54_2489" x1="-40.5" y1="-35.4546" x2="-40.5" y2="80.4545" gradientUnits="userSpaceOnUse">
<stop stop-color="#2C2C2C" stop-opacity="0"/>
<stop offset="1" stop-color="#027800"/>
</linearGradient>
<linearGradient id="paint12_linear_54_2489" x1="-40.5" y1="-35.4546" x2="-40.5" y2="80.4545" gradientUnits="userSpaceOnUse">
<stop stop-color="#2C2C2C" stop-opacity="0"/>
<stop offset="1" stop-color="#027800"/>
</linearGradient>
<linearGradient id="paint13_linear_54_2489" x1="-40.5" y1="-35.4546" x2="-40.5" y2="80.4545" gradientUnits="userSpaceOnUse">
<stop stop-color="#2C2C2C" stop-opacity="0"/>
<stop offset="1" stop-color="#027800"/>
</linearGradient>
<linearGradient id="paint14_linear_54_2489" x1="-40.5" y1="-35.4546" x2="-40.5" y2="80.4545" gradientUnits="userSpaceOnUse">
<stop stop-color="#2C2C2C" stop-opacity="0"/>
<stop offset="1" stop-color="#027800"/>
</linearGradient>
<linearGradient id="paint15_linear_54_2489" x1="-40.5" y1="-35.4546" x2="-40.5" y2="80.4545" gradientUnits="userSpaceOnUse">
<stop stop-color="#2C2C2C" stop-opacity="0"/>
<stop offset="1" stop-color="#027800"/>
</linearGradient>
<linearGradient id="paint16_linear_54_2489" x1="-40.5" y1="-35.4546" x2="-40.5" y2="80.4545" gradientUnits="userSpaceOnUse">
<stop stop-color="#2C2C2C" stop-opacity="0"/>
<stop offset="1" stop-color="#027800"/>
</linearGradient>
<linearGradient id="paint17_linear_54_2489" x1="-40.5" y1="-35.4546" x2="-40.5" y2="80.4545" gradientUnits="userSpaceOnUse">
<stop stop-color="#2C2C2C" stop-opacity="0"/>
<stop offset="1" stop-color="#027800"/>
</linearGradient>
<linearGradient id="paint18_linear_54_2489" x1="-40.5" y1="-35.4546" x2="-40.5" y2="80.4545" gradientUnits="userSpaceOnUse">
<stop stop-color="#2C2C2C" stop-opacity="0"/>
<stop offset="1" stop-color="#027800"/>
</linearGradient>
<linearGradient id="paint19_linear_54_2489" x1="-40.5" y1="-35.4546" x2="-40.5" y2="80.4545" gradientUnits="userSpaceOnUse">
<stop stop-color="#2C2C2C" stop-opacity="0"/>
<stop offset="1" stop-color="#027800"/>
</linearGradient>
<linearGradient id="paint20_linear_54_2489" x1="-40.5" y1="-35.4546" x2="-40.5" y2="80.4545" gradientUnits="userSpaceOnUse">
<stop stop-color="#2C2C2C" stop-opacity="0"/>
<stop offset="1" stop-color="#027800"/>
</linearGradient>
<linearGradient id="paint21_linear_54_2489" x1="-40.5" y1="-35.4546" x2="-40.5" y2="80.4545" gradientUnits="userSpaceOnUse">
<stop stop-color="#2C2C2C" stop-opacity="0"/>
<stop offset="1" stop-color="#027800"/>
</linearGradient>
<linearGradient id="paint22_linear_54_2489" x1="-40.5" y1="-35.4546" x2="-40.5" y2="80.4545" gradientUnits="userSpaceOnUse">
<stop stop-color="#2C2C2C" stop-opacity="0"/>
<stop offset="1" stop-color="#027800"/>
</linearGradient>
<linearGradient id="paint23_linear_54_2489" x1="-40.5" y1="-35.4546" x2="-40.5" y2="80.4545" gradientUnits="userSpaceOnUse">
<stop stop-color="#2C2C2C" stop-opacity="0"/>
<stop offset="1" stop-color="#027800"/>
</linearGradient>
<linearGradient id="paint24_linear_54_2489" x1="-40.5" y1="-35.4546" x2="-40.5" y2="80.4545" gradientUnits="userSpaceOnUse">
<stop stop-color="#2C2C2C" stop-opacity="0"/>
<stop offset="1" stop-color="#027800"/>
</linearGradient>
<linearGradient id="paint25_linear_54_2489" x1="-40.5" y1="-35.4546" x2="-40.5" y2="80.4545" gradientUnits="userSpaceOnUse">
<stop stop-color="#2C2C2C" stop-opacity="0"/>
<stop offset="1" stop-color="#027800"/>
</linearGradient>
<linearGradient id="paint26_linear_54_2489" x1="-40.5" y1="-35.4546" x2="-40.5" y2="80.4545" gradientUnits="userSpaceOnUse">
<stop stop-color="#2C2C2C" stop-opacity="0"/>
<stop offset="1" stop-color="#027800"/>
</linearGradient>
<linearGradient id="paint27_linear_54_2489" x1="-40.5" y1="-35.4546" x2="-40.5" y2="80.4545" gradientUnits="userSpaceOnUse">
<stop stop-color="#2C2C2C" stop-opacity="0"/>
<stop offset="1" stop-color="#027800"/>
</linearGradient>
<linearGradient id="paint28_linear_54_2489" x1="-40.5" y1="-35.4546" x2="-40.5" y2="80.4545" gradientUnits="userSpaceOnUse">
<stop stop-color="#2C2C2C" stop-opacity="0"/>
<stop offset="1" stop-color="#027800"/>
</linearGradient>
<linearGradient id="paint29_linear_54_2489" x1="-40.5" y1="-35.4546" x2="-40.5" y2="80.4545" gradientUnits="userSpaceOnUse">
<stop stop-color="#2C2C2C" stop-opacity="0"/>
<stop offset="1" stop-color="#027800"/>
</linearGradient>
<linearGradient id="paint30_linear_54_2489" x1="-40.5" y1="-35.4546" x2="-40.5" y2="80.4545" gradientUnits="userSpaceOnUse">
<stop stop-color="#2C2C2C" stop-opacity="0"/>
<stop offset="1" stop-color="#027800"/>
</linearGradient>
<linearGradient id="paint31_linear_54_2489" x1="-40.5" y1="-35.4546" x2="-40.5" y2="80.4545" gradientUnits="userSpaceOnUse">
<stop stop-color="#2C2C2C" stop-opacity="0"/>
<stop offset="1" stop-color="#027800"/>
</linearGradient>
<linearGradient id="paint32_linear_54_2489" x1="-40.5" y1="-35.4546" x2="-40.5" y2="80.4545" gradientUnits="userSpaceOnUse">
<stop stop-color="#2C2C2C" stop-opacity="0"/>
<stop offset="1" stop-color="#027800"/>
</linearGradient>
<linearGradient id="paint33_linear_54_2489" x1="-40.5" y1="-35.4546" x2="-40.5" y2="80.4545" gradientUnits="userSpaceOnUse">
<stop stop-color="#2C2C2C" stop-opacity="0"/>
<stop offset="1" stop-color="#027800"/>
</linearGradient>
<linearGradient id="paint34_linear_54_2489" x1="-40.5" y1="-35.4546" x2="-40.5" y2="80.4545" gradientUnits="userSpaceOnUse">
<stop stop-color="#2C2C2C" stop-opacity="0"/>
<stop offset="1" stop-color="#027800"/>
</linearGradient>
<linearGradient id="paint35_linear_54_2489" x1="-40.5" y1="-35.4546" x2="-40.5" y2="80.4545" gradientUnits="userSpaceOnUse">
<stop stop-color="#2C2C2C" stop-opacity="0"/>
<stop offset="1" stop-color="#027800"/>
</linearGradient>
<linearGradient id="paint36_linear_54_2489" x1="-40.5" y1="-35.4546" x2="-40.5" y2="80.4545" gradientUnits="userSpaceOnUse">
<stop stop-color="#2C2C2C" stop-opacity="0"/>
<stop offset="1" stop-color="#027800"/>
</linearGradient>
<linearGradient id="paint37_linear_54_2489" x1="-40.5" y1="-35.4546" x2="-40.5" y2="80.4545" gradientUnits="userSpaceOnUse">
<stop stop-color="#2C2C2C" stop-opacity="0"/>
<stop offset="1" stop-color="#027800"/>
</linearGradient>
<linearGradient id="paint38_linear_54_2489" x1="-40.5" y1="-35.4546" x2="-40.5" y2="80.4545" gradientUnits="userSpaceOnUse">
<stop stop-color="#2C2C2C" stop-opacity="0"/>
<stop offset="1" stop-color="#027800"/>
</linearGradient>
<linearGradient id="paint39_linear_54_2489" x1="-40.5" y1="-35.4546" x2="-40.5" y2="80.4545" gradientUnits="userSpaceOnUse">
<stop stop-color="#2C2C2C" stop-opacity="0"/>
<stop offset="1" stop-color="#027800"/>
</linearGradient>
<linearGradient id="paint40_linear_54_2489" x1="-40.5" y1="-35.4546" x2="-40.5" y2="80.4545" gradientUnits="userSpaceOnUse">
<stop stop-color="#2C2C2C" stop-opacity="0"/>
<stop offset="1" stop-color="#027800"/>
</linearGradient>
<linearGradient id="paint41_linear_54_2489" x1="-40.5" y1="-35.4546" x2="-40.5" y2="80.4545" gradientUnits="userSpaceOnUse">
<stop stop-color="#2C2C2C" stop-opacity="0"/>
<stop offset="1" stop-color="#027800"/>
</linearGradient>
<linearGradient id="paint42_linear_54_2489" x1="-40.5" y1="-35.4546" x2="-40.5" y2="80.4545" gradientUnits="userSpaceOnUse">
<stop stop-color="#2C2C2C" stop-opacity="0"/>
<stop offset="1" stop-color="#027800"/>
</linearGradient>
<linearGradient id="paint43_linear_54_2489" x1="-40.5" y1="-35.4546" x2="-40.5" y2="80.4545" gradientUnits="userSpaceOnUse">
<stop stop-color="#2C2C2C" stop-opacity="0"/>
<stop offset="1" stop-color="#027800"/>
</linearGradient>
<linearGradient id="paint44_linear_54_2489" x1="-40.5" y1="-35.4546" x2="-40.5" y2="80.4545" gradientUnits="userSpaceOnUse">
<stop stop-color="#2C2C2C" stop-opacity="0"/>
<stop offset="1" stop-color="#027800"/>
</linearGradient>
<linearGradient id="paint45_linear_54_2489" x1="-40.5" y1="-35.4546" x2="-40.5" y2="80.4545" gradientUnits="userSpaceOnUse">
<stop stop-color="#2C2C2C" stop-opacity="0"/>
<stop offset="1" stop-color="#027800"/>
</linearGradient>
<linearGradient id="paint46_linear_54_2489" x1="-40.5" y1="-35.4546" x2="-40.5" y2="80.4545" gradientUnits="userSpaceOnUse">
<stop stop-color="#2C2C2C" stop-opacity="0"/>
<stop offset="1" stop-color="#027800"/>
</linearGradient>
<linearGradient id="paint47_linear_54_2489" x1="-40.5" y1="-35.4546" x2="-40.5" y2="80.4545" gradientUnits="userSpaceOnUse">
<stop stop-color="#2C2C2C" stop-opacity="0"/>
<stop offset="1" stop-color="#027800"/>
</linearGradient>
<linearGradient id="paint48_linear_54_2489" x1="-40.5" y1="-35.4546" x2="-40.5" y2="80.4545" gradientUnits="userSpaceOnUse">
<stop stop-color="#2C2C2C" stop-opacity="0"/>
<stop offset="1" stop-color="#027800"/>
</linearGradient>
<linearGradient id="paint49_linear_54_2489" x1="-40.5" y1="-35.4546" x2="-40.5" y2="80.4545" gradientUnits="userSpaceOnUse">
<stop stop-color="#2C2C2C" stop-opacity="0"/>
<stop offset="1" stop-color="#027800"/>
</linearGradient>
<linearGradient id="paint50_linear_54_2489" x1="-40.5" y1="-35.4546" x2="-40.5" y2="80.4545" gradientUnits="userSpaceOnUse">
<stop stop-color="#2C2C2C" stop-opacity="0"/>
<stop offset="1" stop-color="#027800"/>
</linearGradient>
<linearGradient id="paint51_linear_54_2489" x1="-40.5" y1="-35.4546" x2="-40.5" y2="80.4545" gradientUnits="userSpaceOnUse">
<stop stop-color="#2C2C2C" stop-opacity="0"/>
<stop offset="1" stop-color="#027800"/>
</linearGradient>
<linearGradient id="paint52_linear_54_2489" x1="-40.5" y1="-35.4546" x2="-40.5" y2="80.4545" gradientUnits="userSpaceOnUse">
<stop stop-color="#2C2C2C" stop-opacity="0"/>
<stop offset="1" stop-color="#027800"/>
</linearGradient>
<linearGradient id="paint53_linear_54_2489" x1="-40.5" y1="-35.4546" x2="-40.5" y2="80.4545" gradientUnits="userSpaceOnUse">
<stop stop-color="#2C2C2C" stop-opacity="0"/>
<stop offset="1" stop-color="#027800"/>
</linearGradient>
<linearGradient id="paint54_linear_54_2489" x1="-40.5" y1="-35.4546" x2="-40.5" y2="80.4545" gradientUnits="userSpaceOnUse">
<stop stop-color="#2C2C2C" stop-opacity="0"/>
<stop offset="1" stop-color="#027800"/>
</linearGradient>
<linearGradient id="paint55_linear_54_2489" x1="-40.5" y1="-35.4546" x2="-40.5" y2="80.4545" gradientUnits="userSpaceOnUse">
<stop stop-color="#2C2C2C" stop-opacity="0"/>
<stop offset="1" stop-color="#027800"/>
</linearGradient>
<linearGradient id="paint56_linear_54_2489" x1="-40.5" y1="-35.4546" x2="-40.5" y2="80.4545" gradientUnits="userSpaceOnUse">
<stop stop-color="#2C2C2C" stop-opacity="0"/>
<stop offset="1" stop-color="#027800"/>
</linearGradient>
<linearGradient id="paint57_linear_54_2489" x1="-40.5" y1="-35.4546" x2="-40.5" y2="80.4545" gradientUnits="userSpaceOnUse">
<stop stop-color="#2C2C2C" stop-opacity="0"/>
<stop offset="1" stop-color="#027800"/>
</linearGradient>
<linearGradient id="paint58_linear_54_2489" x1="-40.5" y1="-35.4546" x2="-40.5" y2="80.4545" gradientUnits="userSpaceOnUse">
<stop stop-color="#2C2C2C" stop-opacity="0"/>
<stop offset="1" stop-color="#027800"/>
</linearGradient>
<linearGradient id="paint59_linear_54_2489" x1="-40.5" y1="-35.4546" x2="-40.5" y2="80.4545" gradientUnits="userSpaceOnUse">
<stop stop-color="#2C2C2C" stop-opacity="0"/>
<stop offset="1" stop-color="#027800"/>
</linearGradient>
<linearGradient id="paint60_linear_54_2489" x1="-40.5" y1="-35.4546" x2="-40.5" y2="80.4545" gradientUnits="userSpaceOnUse">
<stop stop-color="#2C2C2C" stop-opacity="0"/>
<stop offset="1" stop-color="#027800"/>
</linearGradient>
<linearGradient id="paint61_linear_54_2489" x1="-40.5" y1="-35.4546" x2="-40.5" y2="80.4545" gradientUnits="userSpaceOnUse">
<stop stop-color="#2C2C2C" stop-opacity="0"/>
<stop offset="1" stop-color="#027800"/>
</linearGradient>
<linearGradient id="paint62_linear_54_2489" x1="-40.5" y1="-35.4546" x2="-40.5" y2="80.4545" gradientUnits="userSpaceOnUse">
<stop stop-color="#2C2C2C" stop-opacity="0"/>
<stop offset="1" stop-color="#027800"/>
</linearGradient>
<linearGradient id="paint63_linear_54_2489" x1="-40.5" y1="-35.4546" x2="-40.5" y2="80.4545" gradientUnits="userSpaceOnUse">
<stop stop-color="#2C2C2C" stop-opacity="0"/>
<stop offset="1" stop-color="#027800"/>
</linearGradient>
<linearGradient id="paint64_linear_54_2489" x1="-40.5" y1="-35.4546" x2="-40.5" y2="80.4545" gradientUnits="userSpaceOnUse">
<stop stop-color="#2C2C2C" stop-opacity="0"/>
<stop offset="1" stop-color="#027800"/>
</linearGradient>
<linearGradient id="paint65_linear_54_2489" x1="-40.5" y1="-35.4546" x2="-40.5" y2="80.4545" gradientUnits="userSpaceOnUse">
<stop stop-color="#2C2C2C" stop-opacity="0"/>
<stop offset="1" stop-color="#027800"/>
</linearGradient>
<linearGradient id="paint66_linear_54_2489" x1="-40.5" y1="-35.4546" x2="-40.5" y2="80.4545" gradientUnits="userSpaceOnUse">
<stop stop-color="#2C2C2C" stop-opacity="0"/>
<stop offset="1" stop-color="#027800"/>
</linearGradient>
<linearGradient id="paint67_linear_54_2489" x1="-40.5" y1="-35.4546" x2="-40.5" y2="80.4545" gradientUnits="userSpaceOnUse">
<stop stop-color="#2C2C2C" stop-opacity="0"/>
<stop offset="1" stop-color="#027800"/>
</linearGradient>
<linearGradient id="paint68_linear_54_2489" x1="-40.5" y1="-35.4546" x2="-40.5" y2="80.4545" gradientUnits="userSpaceOnUse">
<stop stop-color="#2C2C2C" stop-opacity="0"/>
<stop offset="1" stop-color="#027800"/>
</linearGradient>
<linearGradient id="paint69_linear_54_2489" x1="-40.5" y1="-35.4546" x2="-40.5" y2="80.4545" gradientUnits="userSpaceOnUse">
<stop stop-color="#2C2C2C" stop-opacity="0"/>
<stop offset="1" stop-color="#027800"/>
</linearGradient>
<linearGradient id="paint70_linear_54_2489" x1="-40.5" y1="-35.4546" x2="-40.5" y2="80.4545" gradientUnits="userSpaceOnUse">
<stop stop-color="#2C2C2C" stop-opacity="0"/>
<stop offset="1" stop-color="#027800"/>
</linearGradient>
<linearGradient id="paint71_linear_54_2489" x1="-40.5" y1="-35.4546" x2="-40.5" y2="80.4545" gradientUnits="userSpaceOnUse">
<stop stop-color="#2C2C2C" stop-opacity="0"/>
<stop offset="1" stop-color="#027800"/>
</linearGradient>
<linearGradient id="paint72_linear_54_2489" x1="-40.5" y1="-35.4546" x2="-40.5" y2="80.4545" gradientUnits="userSpaceOnUse">
<stop stop-color="#2C2C2C" stop-opacity="0"/>
<stop offset="1" stop-color="#027800"/>
</linearGradient>
<linearGradient id="paint73_linear_54_2489" x1="-40.5" y1="-35.4546" x2="-40.5" y2="80.4545" gradientUnits="userSpaceOnUse">
<stop stop-color="#2C2C2C" stop-opacity="0"/>
<stop offset="1" stop-color="#027800"/>
</linearGradient>
<linearGradient id="paint74_linear_54_2489" x1="-40.5" y1="-35.4546" x2="-40.5" y2="80.4545" gradientUnits="userSpaceOnUse">
<stop stop-color="#2C2C2C" stop-opacity="0"/>
<stop offset="1" stop-color="#027800"/>
</linearGradient>
<linearGradient id="paint75_linear_54_2489" x1="-40.5" y1="-35.4546" x2="-40.5" y2="80.4545" gradientUnits="userSpaceOnUse">
<stop stop-color="#2C2C2C" stop-opacity="0"/>
<stop offset="1" stop-color="#027800"/>
</linearGradient>
<linearGradient id="paint76_linear_54_2489" x1="-40.5" y1="-35.4546" x2="-40.5" y2="80.4545" gradientUnits="userSpaceOnUse">
<stop stop-color="#2C2C2C" stop-opacity="0"/>
<stop offset="1" stop-color="#027800"/>
</linearGradient>
<linearGradient id="paint77_linear_54_2489" x1="-40.5" y1="-35.4546" x2="-40.5" y2="80.4545" gradientUnits="userSpaceOnUse">
<stop stop-color="#2C2C2C" stop-opacity="0"/>
<stop offset="1" stop-color="#027800"/>
</linearGradient>
<linearGradient id="paint78_linear_54_2489" x1="-40.5" y1="-35.4546" x2="-40.5" y2="80.4545" gradientUnits="userSpaceOnUse">
<stop stop-color="#2C2C2C" stop-opacity="0"/>
<stop offset="1" stop-color="#027800"/>
</linearGradient>
<linearGradient id="paint79_linear_54_2489" x1="-40.5" y1="-35.4546" x2="-40.5" y2="80.4545" gradientUnits="userSpaceOnUse">
<stop stop-color="#2C2C2C" stop-opacity="0"/>
<stop offset="1" stop-color="#027800"/>
</linearGradient>
<linearGradient id="paint80_linear_54_2489" x1="-40.5" y1="-35.4546" x2="-40.5" y2="80.4545" gradientUnits="userSpaceOnUse">
<stop stop-color="#2C2C2C" stop-opacity="0"/>
<stop offset="1" stop-color="#027800"/>
</linearGradient>
<linearGradient id="paint81_linear_54_2489" x1="-40.5" y1="-35.4546" x2="-40.5" y2="80.4545" gradientUnits="userSpaceOnUse">
<stop stop-color="#2C2C2C" stop-opacity="0"/>
<stop offset="1" stop-color="#027800"/>
</linearGradient>
<linearGradient id="paint82_linear_54_2489" x1="-40.5" y1="-35.4546" x2="-40.5" y2="80.4545" gradientUnits="userSpaceOnUse">
<stop stop-color="#2C2C2C" stop-opacity="0"/>
<stop offset="1" stop-color="#027800"/>
</linearGradient>
<linearGradient id="paint83_linear_54_2489" x1="-40.5" y1="-35.4546" x2="-40.5" y2="80.4545" gradientUnits="userSpaceOnUse">
<stop stop-color="#2C2C2C" stop-opacity="0"/>
<stop offset="1" stop-color="#027800"/>
</linearGradient>
<linearGradient id="paint84_linear_54_2489" x1="-40.5" y1="-35.4546" x2="-40.5" y2="80.4545" gradientUnits="userSpaceOnUse">
<stop stop-color="#2C2C2C" stop-opacity="0"/>
<stop offset="1" stop-color="#027800"/>
</linearGradient>
<linearGradient id="paint85_linear_54_2489" x1="-40.5" y1="-35.4546" x2="-40.5" y2="80.4545" gradientUnits="userSpaceOnUse">
<stop stop-color="#2C2C2C" stop-opacity="0"/>
<stop offset="1" stop-color="#027800"/>
</linearGradient>
<linearGradient id="paint86_linear_54_2489" x1="-40.5" y1="-35.4546" x2="-40.5" y2="80.4545" gradientUnits="userSpaceOnUse">
<stop stop-color="#2C2C2C" stop-opacity="0"/>
<stop offset="1" stop-color="#027800"/>
</linearGradient>
<linearGradient id="paint87_linear_54_2489" x1="-40.5" y1="-35.4546" x2="-40.5" y2="80.4545" gradientUnits="userSpaceOnUse">
<stop stop-color="#2C2C2C" stop-opacity="0"/>
<stop offset="1" stop-color="#027800"/>
</linearGradient>
<linearGradient id="paint88_linear_54_2489" x1="-40.5" y1="-35.4546" x2="-40.5" y2="80.4545" gradientUnits="userSpaceOnUse">
<stop stop-color="#2C2C2C" stop-opacity="0"/>
<stop offset="1" stop-color="#027800"/>
</linearGradient>
<linearGradient id="paint89_linear_54_2489" x1="-40.5" y1="-35.4546" x2="-40.5" y2="80.4545" gradientUnits="userSpaceOnUse">
<stop stop-color="#2C2C2C" stop-opacity="0"/>
<stop offset="1" stop-color="#027800"/>
</linearGradient>
<linearGradient id="paint90_linear_54_2489" x1="-40.5" y1="-35.4546" x2="-40.5" y2="80.4545" gradientUnits="userSpaceOnUse">
<stop stop-color="#2C2C2C" stop-opacity="0"/>
<stop offset="1" stop-color="#027800"/>
</linearGradient>
<linearGradient id="paint91_linear_54_2489" x1="-40.5" y1="-35.4546" x2="-40.5" y2="80.4545" gradientUnits="userSpaceOnUse">
<stop stop-color="#2C2C2C" stop-opacity="0"/>
<stop offset="1" stop-color="#027800"/>
</linearGradient>
<linearGradient id="paint92_linear_54_2489" x1="-40.5" y1="-35.4546" x2="-40.5" y2="80.4545" gradientUnits="userSpaceOnUse">
<stop stop-color="#2C2C2C" stop-opacity="0"/>
<stop offset="1" stop-color="#027800"/>
</linearGradient>
<linearGradient id="paint93_linear_54_2489" x1="-40.5" y1="-35.4546" x2="-40.5" y2="80.4545" gradientUnits="userSpaceOnUse">
<stop stop-color="#2C2C2C" stop-opacity="0"/>
<stop offset="1" stop-color="#027800"/>
</linearGradient>
<linearGradient id="paint94_linear_54_2489" x1="-40.5" y1="-35.4546" x2="-40.5" y2="80.4545" gradientUnits="userSpaceOnUse">
<stop stop-color="#2C2C2C" stop-opacity="0"/>
<stop offset="1" stop-color="#027800"/>
</linearGradient>
<linearGradient id="paint95_linear_54_2489" x1="-40.5" y1="-35.4546" x2="-40.5" y2="80.4545" gradientUnits="userSpaceOnUse">
<stop stop-color="#2C2C2C" stop-opacity="0"/>
<stop offset="1" stop-color="#027800"/>
</linearGradient>
<linearGradient id="paint96_linear_54_2489" x1="-40.5" y1="-35.4546" x2="-40.5" y2="80.4545" gradientUnits="userSpaceOnUse">
<stop stop-color="#2C2C2C" stop-opacity="0"/>
<stop offset="1" stop-color="#027800"/>
</linearGradient>
<linearGradient id="paint97_linear_54_2489" x1="-40.5" y1="-35.4546" x2="-40.5" y2="80.4545" gradientUnits="userSpaceOnUse">
<stop stop-color="#2C2C2C" stop-opacity="0"/>
<stop offset="1" stop-color="#027800"/>
</linearGradient>
<linearGradient id="paint98_linear_54_2489" x1="-40.5" y1="-35.4546" x2="-40.5" y2="80.4545" gradientUnits="userSpaceOnUse">
<stop stop-color="#2C2C2C" stop-opacity="0"/>
<stop offset="1" stop-color="#027800"/>
</linearGradient>
<linearGradient id="paint99_linear_54_2489" x1="-40.5" y1="-35.4546" x2="-40.5" y2="80.4545" gradientUnits="userSpaceOnUse">
<stop stop-color="#2C2C2C" stop-opacity="0"/>
<stop offset="1" stop-color="#027800"/>
</linearGradient>
<linearGradient id="paint100_linear_54_2489" x1="-40.5" y1="-35.4546" x2="-40.5" y2="80.4545" gradientUnits="userSpaceOnUse">
<stop stop-color="#2C2C2C" stop-opacity="0"/>
<stop offset="1" stop-color="#027800"/>
</linearGradient>
<linearGradient id="paint101_linear_54_2489" x1="-40.5" y1="-35.4546" x2="-40.5" y2="80.4545" gradientUnits="userSpaceOnUse">
<stop stop-color="#2C2C2C" stop-opacity="0"/>
<stop offset="1" stop-color="#027800"/>
</linearGradient>
<linearGradient id="paint102_linear_54_2489" x1="-40.5" y1="-35.4546" x2="-40.5" y2="80.4545" gradientUnits="userSpaceOnUse">
<stop stop-color="#2C2C2C" stop-opacity="0"/>
<stop offset="1" stop-color="#027800"/>
</linearGradient>
<linearGradient id="paint103_linear_54_2489" x1="-40.5" y1="-35.4546" x2="-40.5" y2="80.4545" gradientUnits="userSpaceOnUse">
<stop stop-color="#2C2C2C" stop-opacity="0"/>
<stop offset="1" stop-color="#027800"/>
</linearGradient>
<linearGradient id="paint104_linear_54_2489" x1="-40.5" y1="-35.4546" x2="-40.5" y2="80.4545" gradientUnits="userSpaceOnUse">
<stop stop-color="#2C2C2C" stop-opacity="0"/>
<stop offset="1" stop-color="#027800"/>
</linearGradient>
<linearGradient id="paint105_linear_54_2489" x1="-40.5" y1="-35.4546" x2="-40.5" y2="80.4545" gradientUnits="userSpaceOnUse">
<stop stop-color="#2C2C2C" stop-opacity="0"/>
<stop offset="1" stop-color="#027800"/>
</linearGradient>
<linearGradient id="paint106_linear_54_2489" x1="-40.5" y1="-35.4546" x2="-40.5" y2="80.4545" gradientUnits="userSpaceOnUse">
<stop stop-color="#2C2C2C" stop-opacity="0"/>
<stop offset="1" stop-color="#027800"/>
</linearGradient>
<linearGradient id="paint107_linear_54_2489" x1="-40.5" y1="-35.4546" x2="-40.5" y2="80.4545" gradientUnits="userSpaceOnUse">
<stop stop-color="#2C2C2C" stop-opacity="0"/>
<stop offset="1" stop-color="#027800"/>
</linearGradient>
<linearGradient id="paint108_linear_54_2489" x1="-40.5" y1="-35.4546" x2="-40.5" y2="80.4545" gradientUnits="userSpaceOnUse">
<stop stop-color="#2C2C2C" stop-opacity="0"/>
<stop offset="1" stop-color="#027800"/>
</linearGradient>
<linearGradient id="paint109_linear_54_2489" x1="-40.5" y1="-35.4546" x2="-40.5" y2="80.4545" gradientUnits="userSpaceOnUse">
<stop stop-color="#2C2C2C" stop-opacity="0"/>
<stop offset="1" stop-color="#027800"/>
</linearGradient>
<linearGradient id="paint110_linear_54_2489" x1="-40.5" y1="-35.4546" x2="-40.5" y2="80.4545" gradientUnits="userSpaceOnUse">
<stop stop-color="#2C2C2C" stop-opacity="0"/>
<stop offset="1" stop-color="#027800"/>
</linearGradient>
<linearGradient id="paint111_linear_54_2489" x1="-40.5" y1="-35.4546" x2="-40.5" y2="80.4545" gradientUnits="userSpaceOnUse">
<stop stop-color="#2C2C2C" stop-opacity="0"/>
<stop offset="1" stop-color="#027800"/>
</linearGradient>
<linearGradient id="paint112_linear_54_2489" x1="-40.5" y1="-35.4546" x2="-40.5" y2="80.4545" gradientUnits="userSpaceOnUse">
<stop stop-color="#2C2C2C" stop-opacity="0"/>
<stop offset="1" stop-color="#027800"/>
</linearGradient>
<linearGradient id="paint113_linear_54_2489" x1="-40.5" y1="-35.4546" x2="-40.5" y2="80.4545" gradientUnits="userSpaceOnUse">
<stop stop-color="#2C2C2C" stop-opacity="0"/>
<stop offset="1" stop-color="#027800"/>
</linearGradient>
<linearGradient id="paint114_linear_54_2489" x1="-40.5" y1="-35.4546" x2="-40.5" y2="80.4545" gradientUnits="userSpaceOnUse">
<stop stop-color="#2C2C2C" stop-opacity="0"/>
<stop offset="1" stop-color="#027800"/>
</linearGradient>
<linearGradient id="paint115_linear_54_2489" x1="-40.5" y1="-35.4546" x2="-40.5" y2="80.4545" gradientUnits="userSpaceOnUse">
<stop stop-color="#2C2C2C" stop-opacity="0"/>
<stop offset="1" stop-color="#027800"/>
</linearGradient>
<linearGradient id="paint116_linear_54_2489" x1="-40.5" y1="-35.4546" x2="-40.5" y2="80.4545" gradientUnits="userSpaceOnUse">
<stop stop-color="#2C2C2C" stop-opacity="0"/>
<stop offset="1" stop-color="#027800"/>
</linearGradient>
<linearGradient id="paint117_linear_54_2489" x1="-40.5" y1="-35.4546" x2="-40.5" y2="80.4545" gradientUnits="userSpaceOnUse">
<stop stop-color="#2C2C2C" stop-opacity="0"/>
<stop offset="1" stop-color="#027800"/>
</linearGradient>
<linearGradient id="paint118_linear_54_2489" x1="-40.5" y1="-35.4546" x2="-40.5" y2="80.4545" gradientUnits="userSpaceOnUse">
<stop stop-color="#2C2C2C" stop-opacity="0"/>
<stop offset="1" stop-color="#027800"/>
</linearGradient>
<linearGradient id="paint119_linear_54_2489" x1="-40.5" y1="-35.4546" x2="-40.5" y2="80.4545" gradientUnits="userSpaceOnUse">
<stop stop-color="#2C2C2C" stop-opacity="0"/>
<stop offset="1" stop-color="#027800"/>
</linearGradient>
<linearGradient id="paint120_linear_54_2489" x1="-40.5" y1="-35.4546" x2="-40.5" y2="80.4545" gradientUnits="userSpaceOnUse">
<stop stop-color="#2C2C2C" stop-opacity="0"/>
<stop offset="1" stop-color="#027800"/>
</linearGradient>
<linearGradient id="paint121_linear_54_2489" x1="-40.5" y1="-35.4546" x2="-40.5" y2="80.4545" gradientUnits="userSpaceOnUse">
<stop stop-color="#2C2C2C" stop-opacity="0"/>
<stop offset="1" stop-color="#027800"/>
</linearGradient>
<linearGradient id="paint122_linear_54_2489" x1="-40.5" y1="-35.4546" x2="-40.5" y2="80.4545" gradientUnits="userSpaceOnUse">
<stop stop-color="#2C2C2C" stop-opacity="0"/>
<stop offset="1" stop-color="#027800"/>
</linearGradient>
<linearGradient id="paint123_linear_54_2489" x1="-40.5" y1="-35.4546" x2="-40.5" y2="80.4545" gradientUnits="userSpaceOnUse">
<stop stop-color="#2C2C2C" stop-opacity="0"/>
<stop offset="1" stop-color="#027800"/>
</linearGradient>
<linearGradient id="paint124_linear_54_2489" x1="-40.5" y1="-35.4546" x2="-40.5" y2="80.4545" gradientUnits="userSpaceOnUse">
<stop stop-color="#2C2C2C" stop-opacity="0"/>
<stop offset="1" stop-color="#027800"/>
</linearGradient>
<linearGradient id="paint125_linear_54_2489" x1="-40.5" y1="-35.4546" x2="-40.5" y2="80.4545" gradientUnits="userSpaceOnUse">
<stop stop-color="#2C2C2C" stop-opacity="0"/>
<stop offset="1" stop-color="#027800"/>
</linearGradient>
<linearGradient id="paint126_linear_54_2489" x1="-40.5" y1="-35.4546" x2="-40.5" y2="80.4545" gradientUnits="userSpaceOnUse">
<stop stop-color="#2C2C2C" stop-opacity="0"/>
<stop offset="1" stop-color="#027800"/>
</linearGradient>
<linearGradient id="paint127_linear_54_2489" x1="-40.5" y1="-35.4546" x2="-40.5" y2="80.4545" gradientUnits="userSpaceOnUse">
<stop stop-color="#2C2C2C" stop-opacity="0"/>
<stop offset="1" stop-color="#027800"/>
</linearGradient>
<linearGradient id="paint128_linear_54_2489" x1="-40.5" y1="-35.4546" x2="-40.5" y2="80.4545" gradientUnits="userSpaceOnUse">
<stop stop-color="#2C2C2C" stop-opacity="0"/>
<stop offset="1" stop-color="#027800"/>
</linearGradient>
<linearGradient id="paint129_linear_54_2489" x1="-40.5" y1="-35.4546" x2="-40.5" y2="80.4545" gradientUnits="userSpaceOnUse">
<stop stop-color="#2C2C2C" stop-opacity="0"/>
<stop offset="1" stop-color="#027800"/>
</linearGradient>
<linearGradient id="paint130_linear_54_2489" x1="-40.5" y1="-35.4546" x2="-40.5" y2="80.4545" gradientUnits="userSpaceOnUse">
<stop stop-color="#2C2C2C" stop-opacity="0"/>
<stop offset="1" stop-color="#027800"/>
</linearGradient>
<linearGradient id="paint131_linear_54_2489" x1="-40.5" y1="-35.4546" x2="-40.5" y2="80.4545" gradientUnits="userSpaceOnUse">
<stop stop-color="#2C2C2C" stop-opacity="0"/>
<stop offset="1" stop-color="#027800"/>
</linearGradient>
</defs>
</svg>
