<svg width="155" height="30" viewBox="0 0 155 30" fill="none" xmlns="http://www.w3.org/2000/svg">
<path d="M5 -33.75C5 -32.8086 3.88071 -32.0455 2.5 -32.0455C1.11929 -32.0455 0 -32.8086 0 -33.75C0 -34.6914 1.11929 -35.4546 2.5 -35.4546C3.88071 -35.4546 5 -34.6914 5 -33.75Z" fill="url(#paint0_linear_54_2490)"/>
<path d="M20 -33.75C20 -32.8086 18.8807 -32.0455 17.5 -32.0455C16.1193 -32.0455 15 -32.8086 15 -33.75C15 -34.6914 16.1193 -35.4546 17.5 -35.4546C18.8807 -35.4546 20 -34.6914 20 -33.75Z" fill="url(#paint1_linear_54_2490)"/>
<path d="M35 -33.75C35 -32.8086 33.8807 -32.0455 32.5 -32.0455C31.1193 -32.0455 30 -32.8086 30 -33.75C30 -34.6914 31.1193 -35.4546 32.5 -35.4546C33.8807 -35.4546 35 -34.6914 35 -33.75Z" fill="url(#paint2_linear_54_2490)"/>
<path d="M50 -33.75C50 -32.8086 48.8807 -32.0455 47.5 -32.0455C46.1193 -32.0455 45 -32.8086 45 -33.75C45 -34.6914 46.1193 -35.4546 47.5 -35.4546C48.8807 -35.4546 50 -34.6914 50 -33.75Z" fill="url(#paint3_linear_54_2490)"/>
<path d="M65 -33.75C65 -32.8086 63.8807 -32.0455 62.5 -32.0455C61.1193 -32.0455 60 -32.8086 60 -33.75C60 -34.6914 61.1193 -35.4546 62.5 -35.4546C63.8807 -35.4546 65 -34.6914 65 -33.75Z" fill="url(#paint4_linear_54_2490)"/>
<path d="M80 -33.75C80 -32.8086 78.8807 -32.0455 77.5 -32.0455C76.1193 -32.0455 75 -32.8086 75 -33.75C75 -34.6914 76.1193 -35.4546 77.5 -35.4546C78.8807 -35.4546 80 -34.6914 80 -33.75Z" fill="url(#paint5_linear_54_2490)"/>
<path d="M95 -33.75C95 -32.8086 93.8807 -32.0455 92.5 -32.0455C91.1193 -32.0455 90 -32.8086 90 -33.75C90 -34.6914 91.1193 -35.4546 92.5 -35.4546C93.8807 -35.4546 95 -34.6914 95 -33.75Z" fill="url(#paint6_linear_54_2490)"/>
<path d="M110 -33.75C110 -32.8086 108.881 -32.0455 107.5 -32.0455C106.119 -32.0455 105 -32.8086 105 -33.75C105 -34.6914 106.119 -35.4546 107.5 -35.4546C108.881 -35.4546 110 -34.6914 110 -33.75Z" fill="url(#paint7_linear_54_2490)"/>
<path d="M125 -33.75C125 -32.8086 123.881 -32.0455 122.5 -32.0455C121.119 -32.0455 120 -32.8086 120 -33.75C120 -34.6914 121.119 -35.4546 122.5 -35.4546C123.881 -35.4546 125 -34.6914 125 -33.75Z" fill="url(#paint8_linear_54_2490)"/>
<path d="M140 -33.75C140 -32.8086 138.881 -32.0455 137.5 -32.0455C136.119 -32.0455 135 -32.8086 135 -33.75C135 -34.6914 136.119 -35.4546 137.5 -35.4546C138.881 -35.4546 140 -34.6914 140 -33.75Z" fill="url(#paint9_linear_54_2490)"/>
<path d="M155 -33.75C155 -32.8086 153.881 -32.0455 152.5 -32.0455C151.119 -32.0455 150 -32.8086 150 -33.75C150 -34.6914 151.119 -35.4546 152.5 -35.4546C153.881 -35.4546 155 -34.6914 155 -33.75Z" fill="url(#paint10_linear_54_2490)"/>
<path d="M5 -23.5228C5 -22.5814 3.88071 -21.8182 2.5 -21.8182C1.11929 -21.8182 0 -22.5814 0 -23.5228C0 -24.4642 1.11929 -25.2273 2.5 -25.2273C3.88071 -25.2273 5 -24.4642 5 -23.5228Z" fill="url(#paint11_linear_54_2490)"/>
<path d="M20 -23.5228C20 -22.5814 18.8807 -21.8182 17.5 -21.8182C16.1193 -21.8182 15 -22.5814 15 -23.5228C15 -24.4642 16.1193 -25.2273 17.5 -25.2273C18.8807 -25.2273 20 -24.4642 20 -23.5228Z" fill="url(#paint12_linear_54_2490)"/>
<path d="M35 -23.5228C35 -22.5814 33.8807 -21.8182 32.5 -21.8182C31.1193 -21.8182 30 -22.5814 30 -23.5228C30 -24.4642 31.1193 -25.2273 32.5 -25.2273C33.8807 -25.2273 35 -24.4642 35 -23.5228Z" fill="url(#paint13_linear_54_2490)"/>
<path d="M50 -23.5228C50 -22.5814 48.8807 -21.8182 47.5 -21.8182C46.1193 -21.8182 45 -22.5814 45 -23.5228C45 -24.4642 46.1193 -25.2273 47.5 -25.2273C48.8807 -25.2273 50 -24.4642 50 -23.5228Z" fill="url(#paint14_linear_54_2490)"/>
<path d="M65 -23.5228C65 -22.5814 63.8807 -21.8182 62.5 -21.8182C61.1193 -21.8182 60 -22.5814 60 -23.5228C60 -24.4642 61.1193 -25.2273 62.5 -25.2273C63.8807 -25.2273 65 -24.4642 65 -23.5228Z" fill="url(#paint15_linear_54_2490)"/>
<path d="M80 -23.5228C80 -22.5814 78.8807 -21.8182 77.5 -21.8182C76.1193 -21.8182 75 -22.5814 75 -23.5228C75 -24.4642 76.1193 -25.2273 77.5 -25.2273C78.8807 -25.2273 80 -24.4642 80 -23.5228Z" fill="url(#paint16_linear_54_2490)"/>
<path d="M95 -23.5228C95 -22.5814 93.8807 -21.8182 92.5 -21.8182C91.1193 -21.8182 90 -22.5814 90 -23.5228C90 -24.4642 91.1193 -25.2273 92.5 -25.2273C93.8807 -25.2273 95 -24.4642 95 -23.5228Z" fill="url(#paint17_linear_54_2490)"/>
<path d="M110 -23.5228C110 -22.5814 108.881 -21.8182 107.5 -21.8182C106.119 -21.8182 105 -22.5814 105 -23.5228C105 -24.4642 106.119 -25.2273 107.5 -25.2273C108.881 -25.2273 110 -24.4642 110 -23.5228Z" fill="url(#paint18_linear_54_2490)"/>
<path d="M125 -23.5228C125 -22.5814 123.881 -21.8182 122.5 -21.8182C121.119 -21.8182 120 -22.5814 120 -23.5228C120 -24.4642 121.119 -25.2273 122.5 -25.2273C123.881 -25.2273 125 -24.4642 125 -23.5228Z" fill="url(#paint19_linear_54_2490)"/>
<path d="M140 -23.5228C140 -22.5814 138.881 -21.8182 137.5 -21.8182C136.119 -21.8182 135 -22.5814 135 -23.5228C135 -24.4642 136.119 -25.2273 137.5 -25.2273C138.881 -25.2273 140 -24.4642 140 -23.5228Z" fill="url(#paint20_linear_54_2490)"/>
<path d="M155 -23.5228C155 -22.5814 153.881 -21.8182 152.5 -21.8182C151.119 -21.8182 150 -22.5814 150 -23.5228C150 -24.4642 151.119 -25.2273 152.5 -25.2273C153.881 -25.2273 155 -24.4642 155 -23.5228Z" fill="url(#paint21_linear_54_2490)"/>
<path d="M5 -13.2955C5 -12.3541 3.88071 -11.591 2.5 -11.591C1.11929 -11.591 0 -12.3541 0 -13.2955C0 -14.2369 1.11929 -15 2.5 -15C3.88071 -15 5 -14.2369 5 -13.2955Z" fill="url(#paint22_linear_54_2490)"/>
<path d="M20 -13.2955C20 -12.3541 18.8807 -11.591 17.5 -11.591C16.1193 -11.591 15 -12.3541 15 -13.2955C15 -14.2369 16.1193 -15 17.5 -15C18.8807 -15 20 -14.2369 20 -13.2955Z" fill="url(#paint23_linear_54_2490)"/>
<path d="M35 -13.2955C35 -12.3541 33.8807 -11.591 32.5 -11.591C31.1193 -11.591 30 -12.3541 30 -13.2955C30 -14.2369 31.1193 -15 32.5 -15C33.8807 -15 35 -14.2369 35 -13.2955Z" fill="url(#paint24_linear_54_2490)"/>
<path d="M50 -13.2955C50 -12.3541 48.8807 -11.591 47.5 -11.591C46.1193 -11.591 45 -12.3541 45 -13.2955C45 -14.2369 46.1193 -15 47.5 -15C48.8807 -15 50 -14.2369 50 -13.2955Z" fill="url(#paint25_linear_54_2490)"/>
<path d="M65 -13.2955C65 -12.3541 63.8807 -11.591 62.5 -11.591C61.1193 -11.591 60 -12.3541 60 -13.2955C60 -14.2369 61.1193 -15 62.5 -15C63.8807 -15 65 -14.2369 65 -13.2955Z" fill="url(#paint26_linear_54_2490)"/>
<path d="M80 -13.2955C80 -12.3541 78.8807 -11.591 77.5 -11.591C76.1193 -11.591 75 -12.3541 75 -13.2955C75 -14.2369 76.1193 -15 77.5 -15C78.8807 -15 80 -14.2369 80 -13.2955Z" fill="url(#paint27_linear_54_2490)"/>
<path d="M95 -13.2955C95 -12.3541 93.8807 -11.591 92.5 -11.591C91.1193 -11.591 90 -12.3541 90 -13.2955C90 -14.2369 91.1193 -15 92.5 -15C93.8807 -15 95 -14.2369 95 -13.2955Z" fill="url(#paint28_linear_54_2490)"/>
<path d="M110 -13.2955C110 -12.3541 108.881 -11.591 107.5 -11.591C106.119 -11.591 105 -12.3541 105 -13.2955C105 -14.2369 106.119 -15 107.5 -15C108.881 -15 110 -14.2369 110 -13.2955Z" fill="url(#paint29_linear_54_2490)"/>
<path d="M125 -13.2955C125 -12.3541 123.881 -11.591 122.5 -11.591C121.119 -11.591 120 -12.3541 120 -13.2955C120 -14.2369 121.119 -15 122.5 -15C123.881 -15 125 -14.2369 125 -13.2955Z" fill="url(#paint30_linear_54_2490)"/>
<path d="M140 -13.2955C140 -12.3541 138.881 -11.591 137.5 -11.591C136.119 -11.591 135 -12.3541 135 -13.2955C135 -14.2369 136.119 -15 137.5 -15C138.881 -15 140 -14.2369 140 -13.2955Z" fill="url(#paint31_linear_54_2490)"/>
<path d="M155 -13.2955C155 -12.3541 153.881 -11.591 152.5 -11.591C151.119 -11.591 150 -12.3541 150 -13.2955C150 -14.2369 151.119 -15 152.5 -15C153.881 -15 155 -14.2369 155 -13.2955Z" fill="url(#paint32_linear_54_2490)"/>
<path d="M5 -3.06823C5 -2.12683 3.88071 -1.36368 2.5 -1.36368C1.11929 -1.36368 0 -2.12683 0 -3.06823C0 -4.00962 1.11929 -4.77277 2.5 -4.77277C3.88071 -4.77277 5 -4.00962 5 -3.06823Z" fill="url(#paint33_linear_54_2490)"/>
<path d="M20 -3.06823C20 -2.12683 18.8807 -1.36368 17.5 -1.36368C16.1193 -1.36368 15 -2.12683 15 -3.06823C15 -4.00962 16.1193 -4.77277 17.5 -4.77277C18.8807 -4.77277 20 -4.00962 20 -3.06823Z" fill="url(#paint34_linear_54_2490)"/>
<path d="M35 -3.06823C35 -2.12683 33.8807 -1.36368 32.5 -1.36368C31.1193 -1.36368 30 -2.12683 30 -3.06823C30 -4.00962 31.1193 -4.77277 32.5 -4.77277C33.8807 -4.77277 35 -4.00962 35 -3.06823Z" fill="url(#paint35_linear_54_2490)"/>
<path d="M50 -3.06823C50 -2.12683 48.8807 -1.36368 47.5 -1.36368C46.1193 -1.36368 45 -2.12683 45 -3.06823C45 -4.00962 46.1193 -4.77277 47.5 -4.77277C48.8807 -4.77277 50 -4.00962 50 -3.06823Z" fill="url(#paint36_linear_54_2490)"/>
<path d="M65 -3.06823C65 -2.12683 63.8807 -1.36368 62.5 -1.36368C61.1193 -1.36368 60 -2.12683 60 -3.06823C60 -4.00962 61.1193 -4.77277 62.5 -4.77277C63.8807 -4.77277 65 -4.00962 65 -3.06823Z" fill="url(#paint37_linear_54_2490)"/>
<path d="M80 -3.06823C80 -2.12683 78.8807 -1.36368 77.5 -1.36368C76.1193 -1.36368 75 -2.12683 75 -3.06823C75 -4.00962 76.1193 -4.77277 77.5 -4.77277C78.8807 -4.77277 80 -4.00962 80 -3.06823Z" fill="url(#paint38_linear_54_2490)"/>
<path d="M95 -3.06823C95 -2.12683 93.8807 -1.36368 92.5 -1.36368C91.1193 -1.36368 90 -2.12683 90 -3.06823C90 -4.00962 91.1193 -4.77277 92.5 -4.77277C93.8807 -4.77277 95 -4.00962 95 -3.06823Z" fill="url(#paint39_linear_54_2490)"/>
<path d="M110 -3.06823C110 -2.12683 108.881 -1.36368 107.5 -1.36368C106.119 -1.36368 105 -2.12683 105 -3.06823C105 -4.00962 106.119 -4.77277 107.5 -4.77277C108.881 -4.77277 110 -4.00962 110 -3.06823Z" fill="url(#paint40_linear_54_2490)"/>
<path d="M125 -3.06823C125 -2.12683 123.881 -1.36368 122.5 -1.36368C121.119 -1.36368 120 -2.12683 120 -3.06823C120 -4.00962 121.119 -4.77277 122.5 -4.77277C123.881 -4.77277 125 -4.00962 125 -3.06823Z" fill="url(#paint41_linear_54_2490)"/>
<path d="M140 -3.06823C140 -2.12683 138.881 -1.36368 137.5 -1.36368C136.119 -1.36368 135 -2.12683 135 -3.06823C135 -4.00962 136.119 -4.77277 137.5 -4.77277C138.881 -4.77277 140 -4.00962 140 -3.06823Z" fill="url(#paint42_linear_54_2490)"/>
<path d="M155 -3.06823C155 -2.12683 153.881 -1.36368 152.5 -1.36368C151.119 -1.36368 150 -2.12683 150 -3.06823C150 -4.00962 151.119 -4.77277 152.5 -4.77277C153.881 -4.77277 155 -4.00962 155 -3.06823Z" fill="url(#paint43_linear_54_2490)"/>
<path d="M5 7.15905C5 8.10044 3.88071 8.86359 2.5 8.86359C1.11929 8.86359 0 8.10044 0 7.15905C0 6.21765 1.11929 5.4545 2.5 5.4545C3.88071 5.4545 5 6.21765 5 7.15905Z" fill="url(#paint44_linear_54_2490)"/>
<path d="M20 7.15905C20 8.10044 18.8807 8.86359 17.5 8.86359C16.1193 8.86359 15 8.10044 15 7.15905C15 6.21765 16.1193 5.4545 17.5 5.4545C18.8807 5.4545 20 6.21765 20 7.15905Z" fill="url(#paint45_linear_54_2490)"/>
<path d="M35 7.15905C35 8.10044 33.8807 8.86359 32.5 8.86359C31.1193 8.86359 30 8.10044 30 7.15905C30 6.21765 31.1193 5.4545 32.5 5.4545C33.8807 5.4545 35 6.21765 35 7.15905Z" fill="url(#paint46_linear_54_2490)"/>
<path d="M50 7.15905C50 8.10044 48.8807 8.86359 47.5 8.86359C46.1193 8.86359 45 8.10044 45 7.15905C45 6.21765 46.1193 5.4545 47.5 5.4545C48.8807 5.4545 50 6.21765 50 7.15905Z" fill="url(#paint47_linear_54_2490)"/>
<path d="M65 7.15905C65 8.10044 63.8807 8.86359 62.5 8.86359C61.1193 8.86359 60 8.10044 60 7.15905C60 6.21765 61.1193 5.4545 62.5 5.4545C63.8807 5.4545 65 6.21765 65 7.15905Z" fill="url(#paint48_linear_54_2490)"/>
<path d="M80 7.15905C80 8.10044 78.8807 8.86359 77.5 8.86359C76.1193 8.86359 75 8.10044 75 7.15905C75 6.21765 76.1193 5.4545 77.5 5.4545C78.8807 5.4545 80 6.21765 80 7.15905Z" fill="url(#paint49_linear_54_2490)"/>
<path d="M95 7.15905C95 8.10044 93.8807 8.86359 92.5 8.86359C91.1193 8.86359 90 8.10044 90 7.15905C90 6.21765 91.1193 5.4545 92.5 5.4545C93.8807 5.4545 95 6.21765 95 7.15905Z" fill="url(#paint50_linear_54_2490)"/>
<path d="M110 7.15905C110 8.10044 108.881 8.86359 107.5 8.86359C106.119 8.86359 105 8.10044 105 7.15905C105 6.21765 106.119 5.4545 107.5 5.4545C108.881 5.4545 110 6.21765 110 7.15905Z" fill="url(#paint51_linear_54_2490)"/>
<path d="M125 7.15905C125 8.10044 123.881 8.86359 122.5 8.86359C121.119 8.86359 120 8.10044 120 7.15905C120 6.21765 121.119 5.4545 122.5 5.4545C123.881 5.4545 125 6.21765 125 7.15905Z" fill="url(#paint52_linear_54_2490)"/>
<path d="M140 7.15905C140 8.10044 138.881 8.86359 137.5 8.86359C136.119 8.86359 135 8.10044 135 7.15905C135 6.21765 136.119 5.4545 137.5 5.4545C138.881 5.4545 140 6.21765 140 7.15905Z" fill="url(#paint53_linear_54_2490)"/>
<path d="M155 7.15905C155 8.10044 153.881 8.86359 152.5 8.86359C151.119 8.86359 150 8.10044 150 7.15905C150 6.21765 151.119 5.4545 152.5 5.4545C153.881 5.4545 155 6.21765 155 7.15905Z" fill="url(#paint54_linear_54_2490)"/>
<path d="M5 17.3863C5 18.3277 3.88071 19.0909 2.5 19.0909C1.11929 19.0909 0 18.3277 0 17.3863C0 16.4449 1.11929 15.6818 2.5 15.6818C3.88071 15.6818 5 16.4449 5 17.3863Z" fill="url(#paint55_linear_54_2490)"/>
<path d="M20 17.3863C20 18.3277 18.8807 19.0909 17.5 19.0909C16.1193 19.0909 15 18.3277 15 17.3863C15 16.4449 16.1193 15.6818 17.5 15.6818C18.8807 15.6818 20 16.4449 20 17.3863Z" fill="url(#paint56_linear_54_2490)"/>
<path d="M35 17.3863C35 18.3277 33.8807 19.0909 32.5 19.0909C31.1193 19.0909 30 18.3277 30 17.3863C30 16.4449 31.1193 15.6818 32.5 15.6818C33.8807 15.6818 35 16.4449 35 17.3863Z" fill="url(#paint57_linear_54_2490)"/>
<path d="M50 17.3863C50 18.3277 48.8807 19.0909 47.5 19.0909C46.1193 19.0909 45 18.3277 45 17.3863C45 16.4449 46.1193 15.6818 47.5 15.6818C48.8807 15.6818 50 16.4449 50 17.3863Z" fill="url(#paint58_linear_54_2490)"/>
<path d="M65 17.3863C65 18.3277 63.8807 19.0909 62.5 19.0909C61.1193 19.0909 60 18.3277 60 17.3863C60 16.4449 61.1193 15.6818 62.5 15.6818C63.8807 15.6818 65 16.4449 65 17.3863Z" fill="url(#paint59_linear_54_2490)"/>
<path d="M80 17.3863C80 18.3277 78.8807 19.0909 77.5 19.0909C76.1193 19.0909 75 18.3277 75 17.3863C75 16.4449 76.1193 15.6818 77.5 15.6818C78.8807 15.6818 80 16.4449 80 17.3863Z" fill="url(#paint60_linear_54_2490)"/>
<path d="M95 17.3863C95 18.3277 93.8807 19.0909 92.5 19.0909C91.1193 19.0909 90 18.3277 90 17.3863C90 16.4449 91.1193 15.6818 92.5 15.6818C93.8807 15.6818 95 16.4449 95 17.3863Z" fill="url(#paint61_linear_54_2490)"/>
<path d="M110 17.3863C110 18.3277 108.881 19.0909 107.5 19.0909C106.119 19.0909 105 18.3277 105 17.3863C105 16.4449 106.119 15.6818 107.5 15.6818C108.881 15.6818 110 16.4449 110 17.3863Z" fill="url(#paint62_linear_54_2490)"/>
<path d="M125 17.3863C125 18.3277 123.881 19.0909 122.5 19.0909C121.119 19.0909 120 18.3277 120 17.3863C120 16.4449 121.119 15.6818 122.5 15.6818C123.881 15.6818 125 16.4449 125 17.3863Z" fill="url(#paint63_linear_54_2490)"/>
<path d="M140 17.3863C140 18.3277 138.881 19.0909 137.5 19.0909C136.119 19.0909 135 18.3277 135 17.3863C135 16.4449 136.119 15.6818 137.5 15.6818C138.881 15.6818 140 16.4449 140 17.3863Z" fill="url(#paint64_linear_54_2490)"/>
<path d="M155 17.3863C155 18.3277 153.881 19.0909 152.5 19.0909C151.119 19.0909 150 18.3277 150 17.3863C150 16.4449 151.119 15.6818 152.5 15.6818C153.881 15.6818 155 16.4449 155 17.3863Z" fill="url(#paint65_linear_54_2490)"/>
<path d="M5 27.6136C5 28.555 3.88071 29.3181 2.5 29.3181C1.11929 29.3181 0 28.555 0 27.6136C0 26.6722 1.11929 25.909 2.5 25.909C3.88071 25.909 5 26.6722 5 27.6136Z" fill="url(#paint66_linear_54_2490)"/>
<path d="M20 27.6136C20 28.555 18.8807 29.3181 17.5 29.3181C16.1193 29.3181 15 28.555 15 27.6136C15 26.6722 16.1193 25.909 17.5 25.909C18.8807 25.909 20 26.6722 20 27.6136Z" fill="url(#paint67_linear_54_2490)"/>
<path d="M35 27.6136C35 28.555 33.8807 29.3181 32.5 29.3181C31.1193 29.3181 30 28.555 30 27.6136C30 26.6722 31.1193 25.909 32.5 25.909C33.8807 25.909 35 26.6722 35 27.6136Z" fill="url(#paint68_linear_54_2490)"/>
<path d="M50 27.6136C50 28.555 48.8807 29.3181 47.5 29.3181C46.1193 29.3181 45 28.555 45 27.6136C45 26.6722 46.1193 25.909 47.5 25.909C48.8807 25.909 50 26.6722 50 27.6136Z" fill="url(#paint69_linear_54_2490)"/>
<path d="M65 27.6136C65 28.555 63.8807 29.3181 62.5 29.3181C61.1193 29.3181 60 28.555 60 27.6136C60 26.6722 61.1193 25.909 62.5 25.909C63.8807 25.909 65 26.6722 65 27.6136Z" fill="url(#paint70_linear_54_2490)"/>
<path d="M80 27.6136C80 28.555 78.8807 29.3181 77.5 29.3181C76.1193 29.3181 75 28.555 75 27.6136C75 26.6722 76.1193 25.909 77.5 25.909C78.8807 25.909 80 26.6722 80 27.6136Z" fill="url(#paint71_linear_54_2490)"/>
<path d="M95 27.6136C95 28.555 93.8807 29.3181 92.5 29.3181C91.1193 29.3181 90 28.555 90 27.6136C90 26.6722 91.1193 25.909 92.5 25.909C93.8807 25.909 95 26.6722 95 27.6136Z" fill="url(#paint72_linear_54_2490)"/>
<path d="M110 27.6136C110 28.555 108.881 29.3181 107.5 29.3181C106.119 29.3181 105 28.555 105 27.6136C105 26.6722 106.119 25.909 107.5 25.909C108.881 25.909 110 26.6722 110 27.6136Z" fill="url(#paint73_linear_54_2490)"/>
<path d="M125 27.6136C125 28.555 123.881 29.3181 122.5 29.3181C121.119 29.3181 120 28.555 120 27.6136C120 26.6722 121.119 25.909 122.5 25.909C123.881 25.909 125 26.6722 125 27.6136Z" fill="url(#paint74_linear_54_2490)"/>
<path d="M140 27.6136C140 28.555 138.881 29.3181 137.5 29.3181C136.119 29.3181 135 28.555 135 27.6136C135 26.6722 136.119 25.909 137.5 25.909C138.881 25.909 140 26.6722 140 27.6136Z" fill="url(#paint75_linear_54_2490)"/>
<path d="M155 27.6136C155 28.555 153.881 29.3181 152.5 29.3181C151.119 29.3181 150 28.555 150 27.6136C150 26.6722 151.119 25.909 152.5 25.909C153.881 25.909 155 26.6722 155 27.6136Z" fill="url(#paint76_linear_54_2490)"/>
<path d="M5 37.8409C5 38.7823 3.88071 39.5454 2.5 39.5454C1.11929 39.5454 0 38.7823 0 37.8409C0 36.8995 1.11929 36.1363 2.5 36.1363C3.88071 36.1363 5 36.8995 5 37.8409Z" fill="url(#paint77_linear_54_2490)"/>
<path d="M20 37.8409C20 38.7823 18.8807 39.5454 17.5 39.5454C16.1193 39.5454 15 38.7823 15 37.8409C15 36.8995 16.1193 36.1363 17.5 36.1363C18.8807 36.1363 20 36.8995 20 37.8409Z" fill="url(#paint78_linear_54_2490)"/>
<path d="M35 37.8409C35 38.7823 33.8807 39.5454 32.5 39.5454C31.1193 39.5454 30 38.7823 30 37.8409C30 36.8995 31.1193 36.1363 32.5 36.1363C33.8807 36.1363 35 36.8995 35 37.8409Z" fill="url(#paint79_linear_54_2490)"/>
<path d="M50 37.8409C50 38.7823 48.8807 39.5454 47.5 39.5454C46.1193 39.5454 45 38.7823 45 37.8409C45 36.8995 46.1193 36.1363 47.5 36.1363C48.8807 36.1363 50 36.8995 50 37.8409Z" fill="url(#paint80_linear_54_2490)"/>
<path d="M65 37.8409C65 38.7823 63.8807 39.5454 62.5 39.5454C61.1193 39.5454 60 38.7823 60 37.8409C60 36.8995 61.1193 36.1363 62.5 36.1363C63.8807 36.1363 65 36.8995 65 37.8409Z" fill="url(#paint81_linear_54_2490)"/>
<path d="M80 37.8409C80 38.7823 78.8807 39.5454 77.5 39.5454C76.1193 39.5454 75 38.7823 75 37.8409C75 36.8995 76.1193 36.1363 77.5 36.1363C78.8807 36.1363 80 36.8995 80 37.8409Z" fill="url(#paint82_linear_54_2490)"/>
<path d="M95 37.8409C95 38.7823 93.8807 39.5454 92.5 39.5454C91.1193 39.5454 90 38.7823 90 37.8409C90 36.8995 91.1193 36.1363 92.5 36.1363C93.8807 36.1363 95 36.8995 95 37.8409Z" fill="url(#paint83_linear_54_2490)"/>
<path d="M110 37.8409C110 38.7823 108.881 39.5454 107.5 39.5454C106.119 39.5454 105 38.7823 105 37.8409C105 36.8995 106.119 36.1363 107.5 36.1363C108.881 36.1363 110 36.8995 110 37.8409Z" fill="url(#paint84_linear_54_2490)"/>
<path d="M125 37.8409C125 38.7823 123.881 39.5454 122.5 39.5454C121.119 39.5454 120 38.7823 120 37.8409C120 36.8995 121.119 36.1363 122.5 36.1363C123.881 36.1363 125 36.8995 125 37.8409Z" fill="url(#paint85_linear_54_2490)"/>
<path d="M140 37.8409C140 38.7823 138.881 39.5454 137.5 39.5454C136.119 39.5454 135 38.7823 135 37.8409C135 36.8995 136.119 36.1363 137.5 36.1363C138.881 36.1363 140 36.8995 140 37.8409Z" fill="url(#paint86_linear_54_2490)"/>
<path d="M155 37.8409C155 38.7823 153.881 39.5454 152.5 39.5454C151.119 39.5454 150 38.7823 150 37.8409C150 36.8995 151.119 36.1363 152.5 36.1363C153.881 36.1363 155 36.8995 155 37.8409Z" fill="url(#paint87_linear_54_2490)"/>
<path d="M5 48.0681C5 49.0095 3.88071 49.7727 2.5 49.7727C1.11929 49.7727 0 49.0095 0 48.0681C0 47.1267 1.11929 46.3636 2.5 46.3636C3.88071 46.3636 5 47.1267 5 48.0681Z" fill="url(#paint88_linear_54_2490)"/>
<path d="M20 48.0681C20 49.0095 18.8807 49.7727 17.5 49.7727C16.1193 49.7727 15 49.0095 15 48.0681C15 47.1267 16.1193 46.3636 17.5 46.3636C18.8807 46.3636 20 47.1267 20 48.0681Z" fill="url(#paint89_linear_54_2490)"/>
<path d="M35 48.0681C35 49.0095 33.8807 49.7727 32.5 49.7727C31.1193 49.7727 30 49.0095 30 48.0681C30 47.1267 31.1193 46.3636 32.5 46.3636C33.8807 46.3636 35 47.1267 35 48.0681Z" fill="url(#paint90_linear_54_2490)"/>
<path d="M50 48.0681C50 49.0095 48.8807 49.7727 47.5 49.7727C46.1193 49.7727 45 49.0095 45 48.0681C45 47.1267 46.1193 46.3636 47.5 46.3636C48.8807 46.3636 50 47.1267 50 48.0681Z" fill="url(#paint91_linear_54_2490)"/>
<path d="M65 48.0681C65 49.0095 63.8807 49.7727 62.5 49.7727C61.1193 49.7727 60 49.0095 60 48.0681C60 47.1267 61.1193 46.3636 62.5 46.3636C63.8807 46.3636 65 47.1267 65 48.0681Z" fill="url(#paint92_linear_54_2490)"/>
<path d="M80 48.0681C80 49.0095 78.8807 49.7727 77.5 49.7727C76.1193 49.7727 75 49.0095 75 48.0681C75 47.1267 76.1193 46.3636 77.5 46.3636C78.8807 46.3636 80 47.1267 80 48.0681Z" fill="url(#paint93_linear_54_2490)"/>
<path d="M95 48.0681C95 49.0095 93.8807 49.7727 92.5 49.7727C91.1193 49.7727 90 49.0095 90 48.0681C90 47.1267 91.1193 46.3636 92.5 46.3636C93.8807 46.3636 95 47.1267 95 48.0681Z" fill="url(#paint94_linear_54_2490)"/>
<path d="M110 48.0681C110 49.0095 108.881 49.7727 107.5 49.7727C106.119 49.7727 105 49.0095 105 48.0681C105 47.1267 106.119 46.3636 107.5 46.3636C108.881 46.3636 110 47.1267 110 48.0681Z" fill="url(#paint95_linear_54_2490)"/>
<path d="M125 48.0681C125 49.0095 123.881 49.7727 122.5 49.7727C121.119 49.7727 120 49.0095 120 48.0681C120 47.1267 121.119 46.3636 122.5 46.3636C123.881 46.3636 125 47.1267 125 48.0681Z" fill="url(#paint96_linear_54_2490)"/>
<path d="M140 48.0681C140 49.0095 138.881 49.7727 137.5 49.7727C136.119 49.7727 135 49.0095 135 48.0681C135 47.1267 136.119 46.3636 137.5 46.3636C138.881 46.3636 140 47.1267 140 48.0681Z" fill="url(#paint97_linear_54_2490)"/>
<path d="M155 48.0681C155 49.0095 153.881 49.7727 152.5 49.7727C151.119 49.7727 150 49.0095 150 48.0681C150 47.1267 151.119 46.3636 152.5 46.3636C153.881 46.3636 155 47.1267 155 48.0681Z" fill="url(#paint98_linear_54_2490)"/>
<path d="M5 58.2954C5 59.2368 3.88071 60 2.5 60C1.11929 60 0 59.2368 0 58.2954C0 57.354 1.11929 56.5909 2.5 56.5909C3.88071 56.5909 5 57.354 5 58.2954Z" fill="url(#paint99_linear_54_2490)"/>
<path d="M20 58.2954C20 59.2368 18.8807 60 17.5 60C16.1193 60 15 59.2368 15 58.2954C15 57.354 16.1193 56.5909 17.5 56.5909C18.8807 56.5909 20 57.354 20 58.2954Z" fill="url(#paint100_linear_54_2490)"/>
<path d="M35 58.2954C35 59.2368 33.8807 60 32.5 60C31.1193 60 30 59.2368 30 58.2954C30 57.354 31.1193 56.5909 32.5 56.5909C33.8807 56.5909 35 57.354 35 58.2954Z" fill="url(#paint101_linear_54_2490)"/>
<path d="M50 58.2954C50 59.2368 48.8807 60 47.5 60C46.1193 60 45 59.2368 45 58.2954C45 57.354 46.1193 56.5909 47.5 56.5909C48.8807 56.5909 50 57.354 50 58.2954Z" fill="url(#paint102_linear_54_2490)"/>
<path d="M65 58.2954C65 59.2368 63.8807 60 62.5 60C61.1193 60 60 59.2368 60 58.2954C60 57.354 61.1193 56.5909 62.5 56.5909C63.8807 56.5909 65 57.354 65 58.2954Z" fill="url(#paint103_linear_54_2490)"/>
<path d="M80 58.2954C80 59.2368 78.8807 60 77.5 60C76.1193 60 75 59.2368 75 58.2954C75 57.354 76.1193 56.5909 77.5 56.5909C78.8807 56.5909 80 57.354 80 58.2954Z" fill="url(#paint104_linear_54_2490)"/>
<path d="M95 58.2954C95 59.2368 93.8807 60 92.5 60C91.1193 60 90 59.2368 90 58.2954C90 57.354 91.1193 56.5909 92.5 56.5909C93.8807 56.5909 95 57.354 95 58.2954Z" fill="url(#paint105_linear_54_2490)"/>
<path d="M110 58.2954C110 59.2368 108.881 60 107.5 60C106.119 60 105 59.2368 105 58.2954C105 57.354 106.119 56.5909 107.5 56.5909C108.881 56.5909 110 57.354 110 58.2954Z" fill="url(#paint106_linear_54_2490)"/>
<path d="M125 58.2954C125 59.2368 123.881 60 122.5 60C121.119 60 120 59.2368 120 58.2954C120 57.354 121.119 56.5909 122.5 56.5909C123.881 56.5909 125 57.354 125 58.2954Z" fill="url(#paint107_linear_54_2490)"/>
<path d="M140 58.2954C140 59.2368 138.881 60 137.5 60C136.119 60 135 59.2368 135 58.2954C135 57.354 136.119 56.5909 137.5 56.5909C138.881 56.5909 140 57.354 140 58.2954Z" fill="url(#paint108_linear_54_2490)"/>
<path d="M155 58.2954C155 59.2368 153.881 60 152.5 60C151.119 60 150 59.2368 150 58.2954C150 57.354 151.119 56.5909 152.5 56.5909C153.881 56.5909 155 57.354 155 58.2954Z" fill="url(#paint109_linear_54_2490)"/>
<path d="M5 68.5227C5 69.4641 3.88071 70.2272 2.5 70.2272C1.11929 70.2272 0 69.4641 0 68.5227C0 67.5813 1.11929 66.8181 2.5 66.8181C3.88071 66.8181 5 67.5813 5 68.5227Z" fill="url(#paint110_linear_54_2490)"/>
<path d="M20 68.5227C20 69.4641 18.8807 70.2272 17.5 70.2272C16.1193 70.2272 15 69.4641 15 68.5227C15 67.5813 16.1193 66.8181 17.5 66.8181C18.8807 66.8181 20 67.5813 20 68.5227Z" fill="url(#paint111_linear_54_2490)"/>
<path d="M35 68.5227C35 69.4641 33.8807 70.2272 32.5 70.2272C31.1193 70.2272 30 69.4641 30 68.5227C30 67.5813 31.1193 66.8181 32.5 66.8181C33.8807 66.8181 35 67.5813 35 68.5227Z" fill="url(#paint112_linear_54_2490)"/>
<path d="M50 68.5227C50 69.4641 48.8807 70.2272 47.5 70.2272C46.1193 70.2272 45 69.4641 45 68.5227C45 67.5813 46.1193 66.8181 47.5 66.8181C48.8807 66.8181 50 67.5813 50 68.5227Z" fill="url(#paint113_linear_54_2490)"/>
<path d="M65 68.5227C65 69.4641 63.8807 70.2272 62.5 70.2272C61.1193 70.2272 60 69.4641 60 68.5227C60 67.5813 61.1193 66.8181 62.5 66.8181C63.8807 66.8181 65 67.5813 65 68.5227Z" fill="url(#paint114_linear_54_2490)"/>
<path d="M80 68.5227C80 69.4641 78.8807 70.2272 77.5 70.2272C76.1193 70.2272 75 69.4641 75 68.5227C75 67.5813 76.1193 66.8181 77.5 66.8181C78.8807 66.8181 80 67.5813 80 68.5227Z" fill="url(#paint115_linear_54_2490)"/>
<path d="M95 68.5227C95 69.4641 93.8807 70.2272 92.5 70.2272C91.1193 70.2272 90 69.4641 90 68.5227C90 67.5813 91.1193 66.8181 92.5 66.8181C93.8807 66.8181 95 67.5813 95 68.5227Z" fill="url(#paint116_linear_54_2490)"/>
<path d="M110 68.5227C110 69.4641 108.881 70.2272 107.5 70.2272C106.119 70.2272 105 69.4641 105 68.5227C105 67.5813 106.119 66.8181 107.5 66.8181C108.881 66.8181 110 67.5813 110 68.5227Z" fill="url(#paint117_linear_54_2490)"/>
<path d="M125 68.5227C125 69.4641 123.881 70.2272 122.5 70.2272C121.119 70.2272 120 69.4641 120 68.5227C120 67.5813 121.119 66.8181 122.5 66.8181C123.881 66.8181 125 67.5813 125 68.5227Z" fill="url(#paint118_linear_54_2490)"/>
<path d="M140 68.5227C140 69.4641 138.881 70.2272 137.5 70.2272C136.119 70.2272 135 69.4641 135 68.5227C135 67.5813 136.119 66.8181 137.5 66.8181C138.881 66.8181 140 67.5813 140 68.5227Z" fill="url(#paint119_linear_54_2490)"/>
<path d="M155 68.5227C155 69.4641 153.881 70.2272 152.5 70.2272C151.119 70.2272 150 69.4641 150 68.5227C150 67.5813 151.119 66.8181 152.5 66.8181C153.881 66.8181 155 67.5813 155 68.5227Z" fill="url(#paint120_linear_54_2490)"/>
<path d="M5 78.75C5 79.6914 3.88071 80.4545 2.5 80.4545C1.11929 80.4545 0 79.6914 0 78.75C0 77.8086 1.11929 77.0454 2.5 77.0454C3.88071 77.0454 5 77.8086 5 78.75Z" fill="url(#paint121_linear_54_2490)"/>
<path d="M20 78.75C20 79.6914 18.8807 80.4545 17.5 80.4545C16.1193 80.4545 15 79.6914 15 78.75C15 77.8086 16.1193 77.0454 17.5 77.0454C18.8807 77.0454 20 77.8086 20 78.75Z" fill="url(#paint122_linear_54_2490)"/>
<path d="M35 78.75C35 79.6914 33.8807 80.4545 32.5 80.4545C31.1193 80.4545 30 79.6914 30 78.75C30 77.8086 31.1193 77.0454 32.5 77.0454C33.8807 77.0454 35 77.8086 35 78.75Z" fill="url(#paint123_linear_54_2490)"/>
<path d="M50 78.75C50 79.6914 48.8807 80.4545 47.5 80.4545C46.1193 80.4545 45 79.6914 45 78.75C45 77.8086 46.1193 77.0454 47.5 77.0454C48.8807 77.0454 50 77.8086 50 78.75Z" fill="url(#paint124_linear_54_2490)"/>
<path d="M65 78.75C65 79.6914 63.8807 80.4545 62.5 80.4545C61.1193 80.4545 60 79.6914 60 78.75C60 77.8086 61.1193 77.0454 62.5 77.0454C63.8807 77.0454 65 77.8086 65 78.75Z" fill="url(#paint125_linear_54_2490)"/>
<path d="M80 78.75C80 79.6914 78.8807 80.4545 77.5 80.4545C76.1193 80.4545 75 79.6914 75 78.75C75 77.8086 76.1193 77.0454 77.5 77.0454C78.8807 77.0454 80 77.8086 80 78.75Z" fill="url(#paint126_linear_54_2490)"/>
<path d="M95 78.75C95 79.6914 93.8807 80.4545 92.5 80.4545C91.1193 80.4545 90 79.6914 90 78.75C90 77.8086 91.1193 77.0454 92.5 77.0454C93.8807 77.0454 95 77.8086 95 78.75Z" fill="url(#paint127_linear_54_2490)"/>
<path d="M110 78.75C110 79.6914 108.881 80.4545 107.5 80.4545C106.119 80.4545 105 79.6914 105 78.75C105 77.8086 106.119 77.0454 107.5 77.0454C108.881 77.0454 110 77.8086 110 78.75Z" fill="url(#paint128_linear_54_2490)"/>
<path d="M125 78.75C125 79.6914 123.881 80.4545 122.5 80.4545C121.119 80.4545 120 79.6914 120 78.75C120 77.8086 121.119 77.0454 122.5 77.0454C123.881 77.0454 125 77.8086 125 78.75Z" fill="url(#paint129_linear_54_2490)"/>
<path d="M140 78.75C140 79.6914 138.881 80.4545 137.5 80.4545C136.119 80.4545 135 79.6914 135 78.75C135 77.8086 136.119 77.0454 137.5 77.0454C138.881 77.0454 140 77.8086 140 78.75Z" fill="url(#paint130_linear_54_2490)"/>
<path d="M155 78.75C155 79.6914 153.881 80.4545 152.5 80.4545C151.119 80.4545 150 79.6914 150 78.75C150 77.8086 151.119 77.0454 152.5 77.0454C153.881 77.0454 155 77.8086 155 78.75Z" fill="url(#paint131_linear_54_2490)"/>
<defs>
<linearGradient id="paint0_linear_54_2490" x1="77.5" y1="-35.4546" x2="77.5" y2="80.4545" gradientUnits="userSpaceOnUse">
<stop stop-color="#2C2C2C" stop-opacity="0"/>
<stop offset="1" stop-color="#027800"/>
</linearGradient>
<linearGradient id="paint1_linear_54_2490" x1="77.5" y1="-35.4546" x2="77.5" y2="80.4545" gradientUnits="userSpaceOnUse">
<stop stop-color="#2C2C2C" stop-opacity="0"/>
<stop offset="1" stop-color="#027800"/>
</linearGradient>
<linearGradient id="paint2_linear_54_2490" x1="77.5" y1="-35.4546" x2="77.5" y2="80.4545" gradientUnits="userSpaceOnUse">
<stop stop-color="#2C2C2C" stop-opacity="0"/>
<stop offset="1" stop-color="#027800"/>
</linearGradient>
<linearGradient id="paint3_linear_54_2490" x1="77.5" y1="-35.4546" x2="77.5" y2="80.4545" gradientUnits="userSpaceOnUse">
<stop stop-color="#2C2C2C" stop-opacity="0"/>
<stop offset="1" stop-color="#027800"/>
</linearGradient>
<linearGradient id="paint4_linear_54_2490" x1="77.5" y1="-35.4546" x2="77.5" y2="80.4545" gradientUnits="userSpaceOnUse">
<stop stop-color="#2C2C2C" stop-opacity="0"/>
<stop offset="1" stop-color="#027800"/>
</linearGradient>
<linearGradient id="paint5_linear_54_2490" x1="77.5" y1="-35.4546" x2="77.5" y2="80.4545" gradientUnits="userSpaceOnUse">
<stop stop-color="#2C2C2C" stop-opacity="0"/>
<stop offset="1" stop-color="#027800"/>
</linearGradient>
<linearGradient id="paint6_linear_54_2490" x1="77.5" y1="-35.4546" x2="77.5" y2="80.4545" gradientUnits="userSpaceOnUse">
<stop stop-color="#2C2C2C" stop-opacity="0"/>
<stop offset="1" stop-color="#027800"/>
</linearGradient>
<linearGradient id="paint7_linear_54_2490" x1="77.5" y1="-35.4546" x2="77.5" y2="80.4545" gradientUnits="userSpaceOnUse">
<stop stop-color="#2C2C2C" stop-opacity="0"/>
<stop offset="1" stop-color="#027800"/>
</linearGradient>
<linearGradient id="paint8_linear_54_2490" x1="77.5" y1="-35.4546" x2="77.5" y2="80.4545" gradientUnits="userSpaceOnUse">
<stop stop-color="#2C2C2C" stop-opacity="0"/>
<stop offset="1" stop-color="#027800"/>
</linearGradient>
<linearGradient id="paint9_linear_54_2490" x1="77.5" y1="-35.4546" x2="77.5" y2="80.4545" gradientUnits="userSpaceOnUse">
<stop stop-color="#2C2C2C" stop-opacity="0"/>
<stop offset="1" stop-color="#027800"/>
</linearGradient>
<linearGradient id="paint10_linear_54_2490" x1="77.5" y1="-35.4546" x2="77.5" y2="80.4545" gradientUnits="userSpaceOnUse">
<stop stop-color="#2C2C2C" stop-opacity="0"/>
<stop offset="1" stop-color="#027800"/>
</linearGradient>
<linearGradient id="paint11_linear_54_2490" x1="77.5" y1="-35.4546" x2="77.5" y2="80.4545" gradientUnits="userSpaceOnUse">
<stop stop-color="#2C2C2C" stop-opacity="0"/>
<stop offset="1" stop-color="#027800"/>
</linearGradient>
<linearGradient id="paint12_linear_54_2490" x1="77.5" y1="-35.4546" x2="77.5" y2="80.4545" gradientUnits="userSpaceOnUse">
<stop stop-color="#2C2C2C" stop-opacity="0"/>
<stop offset="1" stop-color="#027800"/>
</linearGradient>
<linearGradient id="paint13_linear_54_2490" x1="77.5" y1="-35.4546" x2="77.5" y2="80.4545" gradientUnits="userSpaceOnUse">
<stop stop-color="#2C2C2C" stop-opacity="0"/>
<stop offset="1" stop-color="#027800"/>
</linearGradient>
<linearGradient id="paint14_linear_54_2490" x1="77.5" y1="-35.4546" x2="77.5" y2="80.4545" gradientUnits="userSpaceOnUse">
<stop stop-color="#2C2C2C" stop-opacity="0"/>
<stop offset="1" stop-color="#027800"/>
</linearGradient>
<linearGradient id="paint15_linear_54_2490" x1="77.5" y1="-35.4546" x2="77.5" y2="80.4545" gradientUnits="userSpaceOnUse">
<stop stop-color="#2C2C2C" stop-opacity="0"/>
<stop offset="1" stop-color="#027800"/>
</linearGradient>
<linearGradient id="paint16_linear_54_2490" x1="77.5" y1="-35.4546" x2="77.5" y2="80.4545" gradientUnits="userSpaceOnUse">
<stop stop-color="#2C2C2C" stop-opacity="0"/>
<stop offset="1" stop-color="#027800"/>
</linearGradient>
<linearGradient id="paint17_linear_54_2490" x1="77.5" y1="-35.4546" x2="77.5" y2="80.4545" gradientUnits="userSpaceOnUse">
<stop stop-color="#2C2C2C" stop-opacity="0"/>
<stop offset="1" stop-color="#027800"/>
</linearGradient>
<linearGradient id="paint18_linear_54_2490" x1="77.5" y1="-35.4546" x2="77.5" y2="80.4545" gradientUnits="userSpaceOnUse">
<stop stop-color="#2C2C2C" stop-opacity="0"/>
<stop offset="1" stop-color="#027800"/>
</linearGradient>
<linearGradient id="paint19_linear_54_2490" x1="77.5" y1="-35.4546" x2="77.5" y2="80.4545" gradientUnits="userSpaceOnUse">
<stop stop-color="#2C2C2C" stop-opacity="0"/>
<stop offset="1" stop-color="#027800"/>
</linearGradient>
<linearGradient id="paint20_linear_54_2490" x1="77.5" y1="-35.4546" x2="77.5" y2="80.4545" gradientUnits="userSpaceOnUse">
<stop stop-color="#2C2C2C" stop-opacity="0"/>
<stop offset="1" stop-color="#027800"/>
</linearGradient>
<linearGradient id="paint21_linear_54_2490" x1="77.5" y1="-35.4546" x2="77.5" y2="80.4545" gradientUnits="userSpaceOnUse">
<stop stop-color="#2C2C2C" stop-opacity="0"/>
<stop offset="1" stop-color="#027800"/>
</linearGradient>
<linearGradient id="paint22_linear_54_2490" x1="77.5" y1="-35.4546" x2="77.5" y2="80.4545" gradientUnits="userSpaceOnUse">
<stop stop-color="#2C2C2C" stop-opacity="0"/>
<stop offset="1" stop-color="#027800"/>
</linearGradient>
<linearGradient id="paint23_linear_54_2490" x1="77.5" y1="-35.4546" x2="77.5" y2="80.4545" gradientUnits="userSpaceOnUse">
<stop stop-color="#2C2C2C" stop-opacity="0"/>
<stop offset="1" stop-color="#027800"/>
</linearGradient>
<linearGradient id="paint24_linear_54_2490" x1="77.5" y1="-35.4546" x2="77.5" y2="80.4545" gradientUnits="userSpaceOnUse">
<stop stop-color="#2C2C2C" stop-opacity="0"/>
<stop offset="1" stop-color="#027800"/>
</linearGradient>
<linearGradient id="paint25_linear_54_2490" x1="77.5" y1="-35.4546" x2="77.5" y2="80.4545" gradientUnits="userSpaceOnUse">
<stop stop-color="#2C2C2C" stop-opacity="0"/>
<stop offset="1" stop-color="#027800"/>
</linearGradient>
<linearGradient id="paint26_linear_54_2490" x1="77.5" y1="-35.4546" x2="77.5" y2="80.4545" gradientUnits="userSpaceOnUse">
<stop stop-color="#2C2C2C" stop-opacity="0"/>
<stop offset="1" stop-color="#027800"/>
</linearGradient>
<linearGradient id="paint27_linear_54_2490" x1="77.5" y1="-35.4546" x2="77.5" y2="80.4545" gradientUnits="userSpaceOnUse">
<stop stop-color="#2C2C2C" stop-opacity="0"/>
<stop offset="1" stop-color="#027800"/>
</linearGradient>
<linearGradient id="paint28_linear_54_2490" x1="77.5" y1="-35.4546" x2="77.5" y2="80.4545" gradientUnits="userSpaceOnUse">
<stop stop-color="#2C2C2C" stop-opacity="0"/>
<stop offset="1" stop-color="#027800"/>
</linearGradient>
<linearGradient id="paint29_linear_54_2490" x1="77.5" y1="-35.4546" x2="77.5" y2="80.4545" gradientUnits="userSpaceOnUse">
<stop stop-color="#2C2C2C" stop-opacity="0"/>
<stop offset="1" stop-color="#027800"/>
</linearGradient>
<linearGradient id="paint30_linear_54_2490" x1="77.5" y1="-35.4546" x2="77.5" y2="80.4545" gradientUnits="userSpaceOnUse">
<stop stop-color="#2C2C2C" stop-opacity="0"/>
<stop offset="1" stop-color="#027800"/>
</linearGradient>
<linearGradient id="paint31_linear_54_2490" x1="77.5" y1="-35.4546" x2="77.5" y2="80.4545" gradientUnits="userSpaceOnUse">
<stop stop-color="#2C2C2C" stop-opacity="0"/>
<stop offset="1" stop-color="#027800"/>
</linearGradient>
<linearGradient id="paint32_linear_54_2490" x1="77.5" y1="-35.4546" x2="77.5" y2="80.4545" gradientUnits="userSpaceOnUse">
<stop stop-color="#2C2C2C" stop-opacity="0"/>
<stop offset="1" stop-color="#027800"/>
</linearGradient>
<linearGradient id="paint33_linear_54_2490" x1="77.5" y1="-35.4546" x2="77.5" y2="80.4545" gradientUnits="userSpaceOnUse">
<stop stop-color="#2C2C2C" stop-opacity="0"/>
<stop offset="1" stop-color="#027800"/>
</linearGradient>
<linearGradient id="paint34_linear_54_2490" x1="77.5" y1="-35.4546" x2="77.5" y2="80.4545" gradientUnits="userSpaceOnUse">
<stop stop-color="#2C2C2C" stop-opacity="0"/>
<stop offset="1" stop-color="#027800"/>
</linearGradient>
<linearGradient id="paint35_linear_54_2490" x1="77.5" y1="-35.4546" x2="77.5" y2="80.4545" gradientUnits="userSpaceOnUse">
<stop stop-color="#2C2C2C" stop-opacity="0"/>
<stop offset="1" stop-color="#027800"/>
</linearGradient>
<linearGradient id="paint36_linear_54_2490" x1="77.5" y1="-35.4546" x2="77.5" y2="80.4545" gradientUnits="userSpaceOnUse">
<stop stop-color="#2C2C2C" stop-opacity="0"/>
<stop offset="1" stop-color="#027800"/>
</linearGradient>
<linearGradient id="paint37_linear_54_2490" x1="77.5" y1="-35.4546" x2="77.5" y2="80.4545" gradientUnits="userSpaceOnUse">
<stop stop-color="#2C2C2C" stop-opacity="0"/>
<stop offset="1" stop-color="#027800"/>
</linearGradient>
<linearGradient id="paint38_linear_54_2490" x1="77.5" y1="-35.4546" x2="77.5" y2="80.4545" gradientUnits="userSpaceOnUse">
<stop stop-color="#2C2C2C" stop-opacity="0"/>
<stop offset="1" stop-color="#027800"/>
</linearGradient>
<linearGradient id="paint39_linear_54_2490" x1="77.5" y1="-35.4546" x2="77.5" y2="80.4545" gradientUnits="userSpaceOnUse">
<stop stop-color="#2C2C2C" stop-opacity="0"/>
<stop offset="1" stop-color="#027800"/>
</linearGradient>
<linearGradient id="paint40_linear_54_2490" x1="77.5" y1="-35.4546" x2="77.5" y2="80.4545" gradientUnits="userSpaceOnUse">
<stop stop-color="#2C2C2C" stop-opacity="0"/>
<stop offset="1" stop-color="#027800"/>
</linearGradient>
<linearGradient id="paint41_linear_54_2490" x1="77.5" y1="-35.4546" x2="77.5" y2="80.4545" gradientUnits="userSpaceOnUse">
<stop stop-color="#2C2C2C" stop-opacity="0"/>
<stop offset="1" stop-color="#027800"/>
</linearGradient>
<linearGradient id="paint42_linear_54_2490" x1="77.5" y1="-35.4546" x2="77.5" y2="80.4545" gradientUnits="userSpaceOnUse">
<stop stop-color="#2C2C2C" stop-opacity="0"/>
<stop offset="1" stop-color="#027800"/>
</linearGradient>
<linearGradient id="paint43_linear_54_2490" x1="77.5" y1="-35.4546" x2="77.5" y2="80.4545" gradientUnits="userSpaceOnUse">
<stop stop-color="#2C2C2C" stop-opacity="0"/>
<stop offset="1" stop-color="#027800"/>
</linearGradient>
<linearGradient id="paint44_linear_54_2490" x1="77.5" y1="-35.4546" x2="77.5" y2="80.4545" gradientUnits="userSpaceOnUse">
<stop stop-color="#2C2C2C" stop-opacity="0"/>
<stop offset="1" stop-color="#027800"/>
</linearGradient>
<linearGradient id="paint45_linear_54_2490" x1="77.5" y1="-35.4546" x2="77.5" y2="80.4545" gradientUnits="userSpaceOnUse">
<stop stop-color="#2C2C2C" stop-opacity="0"/>
<stop offset="1" stop-color="#027800"/>
</linearGradient>
<linearGradient id="paint46_linear_54_2490" x1="77.5" y1="-35.4546" x2="77.5" y2="80.4545" gradientUnits="userSpaceOnUse">
<stop stop-color="#2C2C2C" stop-opacity="0"/>
<stop offset="1" stop-color="#027800"/>
</linearGradient>
<linearGradient id="paint47_linear_54_2490" x1="77.5" y1="-35.4546" x2="77.5" y2="80.4545" gradientUnits="userSpaceOnUse">
<stop stop-color="#2C2C2C" stop-opacity="0"/>
<stop offset="1" stop-color="#027800"/>
</linearGradient>
<linearGradient id="paint48_linear_54_2490" x1="77.5" y1="-35.4546" x2="77.5" y2="80.4545" gradientUnits="userSpaceOnUse">
<stop stop-color="#2C2C2C" stop-opacity="0"/>
<stop offset="1" stop-color="#027800"/>
</linearGradient>
<linearGradient id="paint49_linear_54_2490" x1="77.5" y1="-35.4546" x2="77.5" y2="80.4545" gradientUnits="userSpaceOnUse">
<stop stop-color="#2C2C2C" stop-opacity="0"/>
<stop offset="1" stop-color="#027800"/>
</linearGradient>
<linearGradient id="paint50_linear_54_2490" x1="77.5" y1="-35.4546" x2="77.5" y2="80.4545" gradientUnits="userSpaceOnUse">
<stop stop-color="#2C2C2C" stop-opacity="0"/>
<stop offset="1" stop-color="#027800"/>
</linearGradient>
<linearGradient id="paint51_linear_54_2490" x1="77.5" y1="-35.4546" x2="77.5" y2="80.4545" gradientUnits="userSpaceOnUse">
<stop stop-color="#2C2C2C" stop-opacity="0"/>
<stop offset="1" stop-color="#027800"/>
</linearGradient>
<linearGradient id="paint52_linear_54_2490" x1="77.5" y1="-35.4546" x2="77.5" y2="80.4545" gradientUnits="userSpaceOnUse">
<stop stop-color="#2C2C2C" stop-opacity="0"/>
<stop offset="1" stop-color="#027800"/>
</linearGradient>
<linearGradient id="paint53_linear_54_2490" x1="77.5" y1="-35.4546" x2="77.5" y2="80.4545" gradientUnits="userSpaceOnUse">
<stop stop-color="#2C2C2C" stop-opacity="0"/>
<stop offset="1" stop-color="#027800"/>
</linearGradient>
<linearGradient id="paint54_linear_54_2490" x1="77.5" y1="-35.4546" x2="77.5" y2="80.4545" gradientUnits="userSpaceOnUse">
<stop stop-color="#2C2C2C" stop-opacity="0"/>
<stop offset="1" stop-color="#027800"/>
</linearGradient>
<linearGradient id="paint55_linear_54_2490" x1="77.5" y1="-35.4546" x2="77.5" y2="80.4545" gradientUnits="userSpaceOnUse">
<stop stop-color="#2C2C2C" stop-opacity="0"/>
<stop offset="1" stop-color="#027800"/>
</linearGradient>
<linearGradient id="paint56_linear_54_2490" x1="77.5" y1="-35.4546" x2="77.5" y2="80.4545" gradientUnits="userSpaceOnUse">
<stop stop-color="#2C2C2C" stop-opacity="0"/>
<stop offset="1" stop-color="#027800"/>
</linearGradient>
<linearGradient id="paint57_linear_54_2490" x1="77.5" y1="-35.4546" x2="77.5" y2="80.4545" gradientUnits="userSpaceOnUse">
<stop stop-color="#2C2C2C" stop-opacity="0"/>
<stop offset="1" stop-color="#027800"/>
</linearGradient>
<linearGradient id="paint58_linear_54_2490" x1="77.5" y1="-35.4546" x2="77.5" y2="80.4545" gradientUnits="userSpaceOnUse">
<stop stop-color="#2C2C2C" stop-opacity="0"/>
<stop offset="1" stop-color="#027800"/>
</linearGradient>
<linearGradient id="paint59_linear_54_2490" x1="77.5" y1="-35.4546" x2="77.5" y2="80.4545" gradientUnits="userSpaceOnUse">
<stop stop-color="#2C2C2C" stop-opacity="0"/>
<stop offset="1" stop-color="#027800"/>
</linearGradient>
<linearGradient id="paint60_linear_54_2490" x1="77.5" y1="-35.4546" x2="77.5" y2="80.4545" gradientUnits="userSpaceOnUse">
<stop stop-color="#2C2C2C" stop-opacity="0"/>
<stop offset="1" stop-color="#027800"/>
</linearGradient>
<linearGradient id="paint61_linear_54_2490" x1="77.5" y1="-35.4546" x2="77.5" y2="80.4545" gradientUnits="userSpaceOnUse">
<stop stop-color="#2C2C2C" stop-opacity="0"/>
<stop offset="1" stop-color="#027800"/>
</linearGradient>
<linearGradient id="paint62_linear_54_2490" x1="77.5" y1="-35.4546" x2="77.5" y2="80.4545" gradientUnits="userSpaceOnUse">
<stop stop-color="#2C2C2C" stop-opacity="0"/>
<stop offset="1" stop-color="#027800"/>
</linearGradient>
<linearGradient id="paint63_linear_54_2490" x1="77.5" y1="-35.4546" x2="77.5" y2="80.4545" gradientUnits="userSpaceOnUse">
<stop stop-color="#2C2C2C" stop-opacity="0"/>
<stop offset="1" stop-color="#027800"/>
</linearGradient>
<linearGradient id="paint64_linear_54_2490" x1="77.5" y1="-35.4546" x2="77.5" y2="80.4545" gradientUnits="userSpaceOnUse">
<stop stop-color="#2C2C2C" stop-opacity="0"/>
<stop offset="1" stop-color="#027800"/>
</linearGradient>
<linearGradient id="paint65_linear_54_2490" x1="77.5" y1="-35.4546" x2="77.5" y2="80.4545" gradientUnits="userSpaceOnUse">
<stop stop-color="#2C2C2C" stop-opacity="0"/>
<stop offset="1" stop-color="#027800"/>
</linearGradient>
<linearGradient id="paint66_linear_54_2490" x1="77.5" y1="-35.4546" x2="77.5" y2="80.4545" gradientUnits="userSpaceOnUse">
<stop stop-color="#2C2C2C" stop-opacity="0"/>
<stop offset="1" stop-color="#027800"/>
</linearGradient>
<linearGradient id="paint67_linear_54_2490" x1="77.5" y1="-35.4546" x2="77.5" y2="80.4545" gradientUnits="userSpaceOnUse">
<stop stop-color="#2C2C2C" stop-opacity="0"/>
<stop offset="1" stop-color="#027800"/>
</linearGradient>
<linearGradient id="paint68_linear_54_2490" x1="77.5" y1="-35.4546" x2="77.5" y2="80.4545" gradientUnits="userSpaceOnUse">
<stop stop-color="#2C2C2C" stop-opacity="0"/>
<stop offset="1" stop-color="#027800"/>
</linearGradient>
<linearGradient id="paint69_linear_54_2490" x1="77.5" y1="-35.4546" x2="77.5" y2="80.4545" gradientUnits="userSpaceOnUse">
<stop stop-color="#2C2C2C" stop-opacity="0"/>
<stop offset="1" stop-color="#027800"/>
</linearGradient>
<linearGradient id="paint70_linear_54_2490" x1="77.5" y1="-35.4546" x2="77.5" y2="80.4545" gradientUnits="userSpaceOnUse">
<stop stop-color="#2C2C2C" stop-opacity="0"/>
<stop offset="1" stop-color="#027800"/>
</linearGradient>
<linearGradient id="paint71_linear_54_2490" x1="77.5" y1="-35.4546" x2="77.5" y2="80.4545" gradientUnits="userSpaceOnUse">
<stop stop-color="#2C2C2C" stop-opacity="0"/>
<stop offset="1" stop-color="#027800"/>
</linearGradient>
<linearGradient id="paint72_linear_54_2490" x1="77.5" y1="-35.4546" x2="77.5" y2="80.4545" gradientUnits="userSpaceOnUse">
<stop stop-color="#2C2C2C" stop-opacity="0"/>
<stop offset="1" stop-color="#027800"/>
</linearGradient>
<linearGradient id="paint73_linear_54_2490" x1="77.5" y1="-35.4546" x2="77.5" y2="80.4545" gradientUnits="userSpaceOnUse">
<stop stop-color="#2C2C2C" stop-opacity="0"/>
<stop offset="1" stop-color="#027800"/>
</linearGradient>
<linearGradient id="paint74_linear_54_2490" x1="77.5" y1="-35.4546" x2="77.5" y2="80.4545" gradientUnits="userSpaceOnUse">
<stop stop-color="#2C2C2C" stop-opacity="0"/>
<stop offset="1" stop-color="#027800"/>
</linearGradient>
<linearGradient id="paint75_linear_54_2490" x1="77.5" y1="-35.4546" x2="77.5" y2="80.4545" gradientUnits="userSpaceOnUse">
<stop stop-color="#2C2C2C" stop-opacity="0"/>
<stop offset="1" stop-color="#027800"/>
</linearGradient>
<linearGradient id="paint76_linear_54_2490" x1="77.5" y1="-35.4546" x2="77.5" y2="80.4545" gradientUnits="userSpaceOnUse">
<stop stop-color="#2C2C2C" stop-opacity="0"/>
<stop offset="1" stop-color="#027800"/>
</linearGradient>
<linearGradient id="paint77_linear_54_2490" x1="77.5" y1="-35.4546" x2="77.5" y2="80.4545" gradientUnits="userSpaceOnUse">
<stop stop-color="#2C2C2C" stop-opacity="0"/>
<stop offset="1" stop-color="#027800"/>
</linearGradient>
<linearGradient id="paint78_linear_54_2490" x1="77.5" y1="-35.4546" x2="77.5" y2="80.4545" gradientUnits="userSpaceOnUse">
<stop stop-color="#2C2C2C" stop-opacity="0"/>
<stop offset="1" stop-color="#027800"/>
</linearGradient>
<linearGradient id="paint79_linear_54_2490" x1="77.5" y1="-35.4546" x2="77.5" y2="80.4545" gradientUnits="userSpaceOnUse">
<stop stop-color="#2C2C2C" stop-opacity="0"/>
<stop offset="1" stop-color="#027800"/>
</linearGradient>
<linearGradient id="paint80_linear_54_2490" x1="77.5" y1="-35.4546" x2="77.5" y2="80.4545" gradientUnits="userSpaceOnUse">
<stop stop-color="#2C2C2C" stop-opacity="0"/>
<stop offset="1" stop-color="#027800"/>
</linearGradient>
<linearGradient id="paint81_linear_54_2490" x1="77.5" y1="-35.4546" x2="77.5" y2="80.4545" gradientUnits="userSpaceOnUse">
<stop stop-color="#2C2C2C" stop-opacity="0"/>
<stop offset="1" stop-color="#027800"/>
</linearGradient>
<linearGradient id="paint82_linear_54_2490" x1="77.5" y1="-35.4546" x2="77.5" y2="80.4545" gradientUnits="userSpaceOnUse">
<stop stop-color="#2C2C2C" stop-opacity="0"/>
<stop offset="1" stop-color="#027800"/>
</linearGradient>
<linearGradient id="paint83_linear_54_2490" x1="77.5" y1="-35.4546" x2="77.5" y2="80.4545" gradientUnits="userSpaceOnUse">
<stop stop-color="#2C2C2C" stop-opacity="0"/>
<stop offset="1" stop-color="#027800"/>
</linearGradient>
<linearGradient id="paint84_linear_54_2490" x1="77.5" y1="-35.4546" x2="77.5" y2="80.4545" gradientUnits="userSpaceOnUse">
<stop stop-color="#2C2C2C" stop-opacity="0"/>
<stop offset="1" stop-color="#027800"/>
</linearGradient>
<linearGradient id="paint85_linear_54_2490" x1="77.5" y1="-35.4546" x2="77.5" y2="80.4545" gradientUnits="userSpaceOnUse">
<stop stop-color="#2C2C2C" stop-opacity="0"/>
<stop offset="1" stop-color="#027800"/>
</linearGradient>
<linearGradient id="paint86_linear_54_2490" x1="77.5" y1="-35.4546" x2="77.5" y2="80.4545" gradientUnits="userSpaceOnUse">
<stop stop-color="#2C2C2C" stop-opacity="0"/>
<stop offset="1" stop-color="#027800"/>
</linearGradient>
<linearGradient id="paint87_linear_54_2490" x1="77.5" y1="-35.4546" x2="77.5" y2="80.4545" gradientUnits="userSpaceOnUse">
<stop stop-color="#2C2C2C" stop-opacity="0"/>
<stop offset="1" stop-color="#027800"/>
</linearGradient>
<linearGradient id="paint88_linear_54_2490" x1="77.5" y1="-35.4546" x2="77.5" y2="80.4545" gradientUnits="userSpaceOnUse">
<stop stop-color="#2C2C2C" stop-opacity="0"/>
<stop offset="1" stop-color="#027800"/>
</linearGradient>
<linearGradient id="paint89_linear_54_2490" x1="77.5" y1="-35.4546" x2="77.5" y2="80.4545" gradientUnits="userSpaceOnUse">
<stop stop-color="#2C2C2C" stop-opacity="0"/>
<stop offset="1" stop-color="#027800"/>
</linearGradient>
<linearGradient id="paint90_linear_54_2490" x1="77.5" y1="-35.4546" x2="77.5" y2="80.4545" gradientUnits="userSpaceOnUse">
<stop stop-color="#2C2C2C" stop-opacity="0"/>
<stop offset="1" stop-color="#027800"/>
</linearGradient>
<linearGradient id="paint91_linear_54_2490" x1="77.5" y1="-35.4546" x2="77.5" y2="80.4545" gradientUnits="userSpaceOnUse">
<stop stop-color="#2C2C2C" stop-opacity="0"/>
<stop offset="1" stop-color="#027800"/>
</linearGradient>
<linearGradient id="paint92_linear_54_2490" x1="77.5" y1="-35.4546" x2="77.5" y2="80.4545" gradientUnits="userSpaceOnUse">
<stop stop-color="#2C2C2C" stop-opacity="0"/>
<stop offset="1" stop-color="#027800"/>
</linearGradient>
<linearGradient id="paint93_linear_54_2490" x1="77.5" y1="-35.4546" x2="77.5" y2="80.4545" gradientUnits="userSpaceOnUse">
<stop stop-color="#2C2C2C" stop-opacity="0"/>
<stop offset="1" stop-color="#027800"/>
</linearGradient>
<linearGradient id="paint94_linear_54_2490" x1="77.5" y1="-35.4546" x2="77.5" y2="80.4545" gradientUnits="userSpaceOnUse">
<stop stop-color="#2C2C2C" stop-opacity="0"/>
<stop offset="1" stop-color="#027800"/>
</linearGradient>
<linearGradient id="paint95_linear_54_2490" x1="77.5" y1="-35.4546" x2="77.5" y2="80.4545" gradientUnits="userSpaceOnUse">
<stop stop-color="#2C2C2C" stop-opacity="0"/>
<stop offset="1" stop-color="#027800"/>
</linearGradient>
<linearGradient id="paint96_linear_54_2490" x1="77.5" y1="-35.4546" x2="77.5" y2="80.4545" gradientUnits="userSpaceOnUse">
<stop stop-color="#2C2C2C" stop-opacity="0"/>
<stop offset="1" stop-color="#027800"/>
</linearGradient>
<linearGradient id="paint97_linear_54_2490" x1="77.5" y1="-35.4546" x2="77.5" y2="80.4545" gradientUnits="userSpaceOnUse">
<stop stop-color="#2C2C2C" stop-opacity="0"/>
<stop offset="1" stop-color="#027800"/>
</linearGradient>
<linearGradient id="paint98_linear_54_2490" x1="77.5" y1="-35.4546" x2="77.5" y2="80.4545" gradientUnits="userSpaceOnUse">
<stop stop-color="#2C2C2C" stop-opacity="0"/>
<stop offset="1" stop-color="#027800"/>
</linearGradient>
<linearGradient id="paint99_linear_54_2490" x1="77.5" y1="-35.4546" x2="77.5" y2="80.4545" gradientUnits="userSpaceOnUse">
<stop stop-color="#2C2C2C" stop-opacity="0"/>
<stop offset="1" stop-color="#027800"/>
</linearGradient>
<linearGradient id="paint100_linear_54_2490" x1="77.5" y1="-35.4546" x2="77.5" y2="80.4545" gradientUnits="userSpaceOnUse">
<stop stop-color="#2C2C2C" stop-opacity="0"/>
<stop offset="1" stop-color="#027800"/>
</linearGradient>
<linearGradient id="paint101_linear_54_2490" x1="77.5" y1="-35.4546" x2="77.5" y2="80.4545" gradientUnits="userSpaceOnUse">
<stop stop-color="#2C2C2C" stop-opacity="0"/>
<stop offset="1" stop-color="#027800"/>
</linearGradient>
<linearGradient id="paint102_linear_54_2490" x1="77.5" y1="-35.4546" x2="77.5" y2="80.4545" gradientUnits="userSpaceOnUse">
<stop stop-color="#2C2C2C" stop-opacity="0"/>
<stop offset="1" stop-color="#027800"/>
</linearGradient>
<linearGradient id="paint103_linear_54_2490" x1="77.5" y1="-35.4546" x2="77.5" y2="80.4545" gradientUnits="userSpaceOnUse">
<stop stop-color="#2C2C2C" stop-opacity="0"/>
<stop offset="1" stop-color="#027800"/>
</linearGradient>
<linearGradient id="paint104_linear_54_2490" x1="77.5" y1="-35.4546" x2="77.5" y2="80.4545" gradientUnits="userSpaceOnUse">
<stop stop-color="#2C2C2C" stop-opacity="0"/>
<stop offset="1" stop-color="#027800"/>
</linearGradient>
<linearGradient id="paint105_linear_54_2490" x1="77.5" y1="-35.4546" x2="77.5" y2="80.4545" gradientUnits="userSpaceOnUse">
<stop stop-color="#2C2C2C" stop-opacity="0"/>
<stop offset="1" stop-color="#027800"/>
</linearGradient>
<linearGradient id="paint106_linear_54_2490" x1="77.5" y1="-35.4546" x2="77.5" y2="80.4545" gradientUnits="userSpaceOnUse">
<stop stop-color="#2C2C2C" stop-opacity="0"/>
<stop offset="1" stop-color="#027800"/>
</linearGradient>
<linearGradient id="paint107_linear_54_2490" x1="77.5" y1="-35.4546" x2="77.5" y2="80.4545" gradientUnits="userSpaceOnUse">
<stop stop-color="#2C2C2C" stop-opacity="0"/>
<stop offset="1" stop-color="#027800"/>
</linearGradient>
<linearGradient id="paint108_linear_54_2490" x1="77.5" y1="-35.4546" x2="77.5" y2="80.4545" gradientUnits="userSpaceOnUse">
<stop stop-color="#2C2C2C" stop-opacity="0"/>
<stop offset="1" stop-color="#027800"/>
</linearGradient>
<linearGradient id="paint109_linear_54_2490" x1="77.5" y1="-35.4546" x2="77.5" y2="80.4545" gradientUnits="userSpaceOnUse">
<stop stop-color="#2C2C2C" stop-opacity="0"/>
<stop offset="1" stop-color="#027800"/>
</linearGradient>
<linearGradient id="paint110_linear_54_2490" x1="77.5" y1="-35.4546" x2="77.5" y2="80.4545" gradientUnits="userSpaceOnUse">
<stop stop-color="#2C2C2C" stop-opacity="0"/>
<stop offset="1" stop-color="#027800"/>
</linearGradient>
<linearGradient id="paint111_linear_54_2490" x1="77.5" y1="-35.4546" x2="77.5" y2="80.4545" gradientUnits="userSpaceOnUse">
<stop stop-color="#2C2C2C" stop-opacity="0"/>
<stop offset="1" stop-color="#027800"/>
</linearGradient>
<linearGradient id="paint112_linear_54_2490" x1="77.5" y1="-35.4546" x2="77.5" y2="80.4545" gradientUnits="userSpaceOnUse">
<stop stop-color="#2C2C2C" stop-opacity="0"/>
<stop offset="1" stop-color="#027800"/>
</linearGradient>
<linearGradient id="paint113_linear_54_2490" x1="77.5" y1="-35.4546" x2="77.5" y2="80.4545" gradientUnits="userSpaceOnUse">
<stop stop-color="#2C2C2C" stop-opacity="0"/>
<stop offset="1" stop-color="#027800"/>
</linearGradient>
<linearGradient id="paint114_linear_54_2490" x1="77.5" y1="-35.4546" x2="77.5" y2="80.4545" gradientUnits="userSpaceOnUse">
<stop stop-color="#2C2C2C" stop-opacity="0"/>
<stop offset="1" stop-color="#027800"/>
</linearGradient>
<linearGradient id="paint115_linear_54_2490" x1="77.5" y1="-35.4546" x2="77.5" y2="80.4545" gradientUnits="userSpaceOnUse">
<stop stop-color="#2C2C2C" stop-opacity="0"/>
<stop offset="1" stop-color="#027800"/>
</linearGradient>
<linearGradient id="paint116_linear_54_2490" x1="77.5" y1="-35.4546" x2="77.5" y2="80.4545" gradientUnits="userSpaceOnUse">
<stop stop-color="#2C2C2C" stop-opacity="0"/>
<stop offset="1" stop-color="#027800"/>
</linearGradient>
<linearGradient id="paint117_linear_54_2490" x1="77.5" y1="-35.4546" x2="77.5" y2="80.4545" gradientUnits="userSpaceOnUse">
<stop stop-color="#2C2C2C" stop-opacity="0"/>
<stop offset="1" stop-color="#027800"/>
</linearGradient>
<linearGradient id="paint118_linear_54_2490" x1="77.5" y1="-35.4546" x2="77.5" y2="80.4545" gradientUnits="userSpaceOnUse">
<stop stop-color="#2C2C2C" stop-opacity="0"/>
<stop offset="1" stop-color="#027800"/>
</linearGradient>
<linearGradient id="paint119_linear_54_2490" x1="77.5" y1="-35.4546" x2="77.5" y2="80.4545" gradientUnits="userSpaceOnUse">
<stop stop-color="#2C2C2C" stop-opacity="0"/>
<stop offset="1" stop-color="#027800"/>
</linearGradient>
<linearGradient id="paint120_linear_54_2490" x1="77.5" y1="-35.4546" x2="77.5" y2="80.4545" gradientUnits="userSpaceOnUse">
<stop stop-color="#2C2C2C" stop-opacity="0"/>
<stop offset="1" stop-color="#027800"/>
</linearGradient>
<linearGradient id="paint121_linear_54_2490" x1="77.5" y1="-35.4546" x2="77.5" y2="80.4545" gradientUnits="userSpaceOnUse">
<stop stop-color="#2C2C2C" stop-opacity="0"/>
<stop offset="1" stop-color="#027800"/>
</linearGradient>
<linearGradient id="paint122_linear_54_2490" x1="77.5" y1="-35.4546" x2="77.5" y2="80.4545" gradientUnits="userSpaceOnUse">
<stop stop-color="#2C2C2C" stop-opacity="0"/>
<stop offset="1" stop-color="#027800"/>
</linearGradient>
<linearGradient id="paint123_linear_54_2490" x1="77.5" y1="-35.4546" x2="77.5" y2="80.4545" gradientUnits="userSpaceOnUse">
<stop stop-color="#2C2C2C" stop-opacity="0"/>
<stop offset="1" stop-color="#027800"/>
</linearGradient>
<linearGradient id="paint124_linear_54_2490" x1="77.5" y1="-35.4546" x2="77.5" y2="80.4545" gradientUnits="userSpaceOnUse">
<stop stop-color="#2C2C2C" stop-opacity="0"/>
<stop offset="1" stop-color="#027800"/>
</linearGradient>
<linearGradient id="paint125_linear_54_2490" x1="77.5" y1="-35.4546" x2="77.5" y2="80.4545" gradientUnits="userSpaceOnUse">
<stop stop-color="#2C2C2C" stop-opacity="0"/>
<stop offset="1" stop-color="#027800"/>
</linearGradient>
<linearGradient id="paint126_linear_54_2490" x1="77.5" y1="-35.4546" x2="77.5" y2="80.4545" gradientUnits="userSpaceOnUse">
<stop stop-color="#2C2C2C" stop-opacity="0"/>
<stop offset="1" stop-color="#027800"/>
</linearGradient>
<linearGradient id="paint127_linear_54_2490" x1="77.5" y1="-35.4546" x2="77.5" y2="80.4545" gradientUnits="userSpaceOnUse">
<stop stop-color="#2C2C2C" stop-opacity="0"/>
<stop offset="1" stop-color="#027800"/>
</linearGradient>
<linearGradient id="paint128_linear_54_2490" x1="77.5" y1="-35.4546" x2="77.5" y2="80.4545" gradientUnits="userSpaceOnUse">
<stop stop-color="#2C2C2C" stop-opacity="0"/>
<stop offset="1" stop-color="#027800"/>
</linearGradient>
<linearGradient id="paint129_linear_54_2490" x1="77.5" y1="-35.4546" x2="77.5" y2="80.4545" gradientUnits="userSpaceOnUse">
<stop stop-color="#2C2C2C" stop-opacity="0"/>
<stop offset="1" stop-color="#027800"/>
</linearGradient>
<linearGradient id="paint130_linear_54_2490" x1="77.5" y1="-35.4546" x2="77.5" y2="80.4545" gradientUnits="userSpaceOnUse">
<stop stop-color="#2C2C2C" stop-opacity="0"/>
<stop offset="1" stop-color="#027800"/>
</linearGradient>
<linearGradient id="paint131_linear_54_2490" x1="77.5" y1="-35.4546" x2="77.5" y2="80.4545" gradientUnits="userSpaceOnUse">
<stop stop-color="#2C2C2C" stop-opacity="0"/>
<stop offset="1" stop-color="#027800"/>
</linearGradient>
</defs>
</svg>
