<svg width="852" height="840" viewBox="0 0 852 840" fill="none" xmlns="http://www.w3.org/2000/svg">
<g clip-path="url(#clip0_58_4247)">
<path d="M513.9 184.28C513.574 183.765 513.145 183.322 512.641 182.978C512.138 182.634 511.569 182.396 510.97 182.28C496.81 178.84 485.97 167.77 470.69 167.9C455.9 168.02 441.91 177.35 427.09 175.26C421.97 174.54 419.22 180.77 421.8 183.61C421.436 184.456 421.286 185.378 421.363 186.295C421.439 187.212 421.741 188.097 422.24 188.87C420.47 192 421.77 196.73 426.24 196.25C447.06 194.017 467.807 191.253 488.48 187.96C495.87 190.18 503.22 192.96 510.91 193.25C516.11 193.39 517.1 186.9 513.9 184.28Z" fill="black" stroke="#898989" stroke-width="0.7"/>
<path d="M368.56 177.99C351.56 177.177 334.56 176.773 317.56 176.78C316.42 176.748 315.308 177.14 314.44 177.88C313.419 178.118 312.416 178.428 311.44 178.81C304.49 181.56 298.44 188.57 293.44 193.93C292.99 194.412 292.64 194.979 292.41 195.597C292.18 196.215 292.074 196.872 292.1 197.531C292.125 198.19 292.28 198.838 292.556 199.436C292.833 200.035 293.225 200.573 293.71 201.02C293.37 204.63 298.58 208.26 302.51 205.22C306.423 202.048 310.753 199.43 315.38 197.44C320.69 195.31 326 195.14 331.64 195.13H365.15C369.34 195.13 370.8 190.9 369.54 187.94C374.97 187.32 374.7 178.29 368.56 177.99Z" fill="black" stroke="#898989" stroke-width="0.7"/>
<path d="M851.52 623.86C835.16 575.79 794.37 542.1 751.05 518.59C702.23 492.1 648.15 475.5 602.58 443.08C590.572 434.625 579.508 424.902 569.58 414.08C560.24 403.78 552.5 391.08 539.31 385.31C538.209 384.818 536.974 384.716 535.807 385.019C534.64 385.323 533.612 386.014 532.89 386.98L529.77 344.68C529.699 343.569 529.259 342.513 528.52 341.68C533.86 329.23 539.05 316.68 544.31 304.22C550 304.12 555.79 305.02 560.36 300.69C564.49 296.79 565.62 291.09 566.22 285.69C568.05 268.99 568.87 252.09 569.77 235.32C570.23 226.8 570.64 218.27 570.93 209.74C571.13 203.74 569.74 198.63 563.07 197.46C560.466 197.013 557.809 196.966 555.19 197.32C557.93 183.53 556.97 168.79 556.19 154.98C555.19 135.55 552.56 115.98 547.05 97.31C537.26 64.09 517.35 32.93 486.9 15.2C470.64 5.74001 452.99 2.05001 434.35 1.20001C413.35 0.200011 391.35 -1.53999 370.82 3.48001C360.92 5.90001 351.47 9.77001 342.09 13.69C332.97 17.42 323.7 21.15 315.77 27.22C307.99 33.22 302.12 41.07 296.09 48.7C289.74 56.7 283.26 64.7 277.09 72.83C270.56 81.44 267.57 90.28 267.09 101.06C266.52 113.34 266.76 125.7 267.09 137.98C267.83 162.59 268.71 187.72 271.8 212.16C271.952 213.486 272.607 214.703 273.63 215.56C273.35 215.44 273.06 215.32 272.77 215.22C267.89 213.6 263.14 215.52 260.11 219.5C253.17 228.63 254.32 243.38 254.72 254.17C255.57 276.99 260.85 299.9 275.85 317.71C276.544 318.603 277.56 319.188 278.68 319.34C281.677 335.176 286.959 350.493 294.36 364.81C298.658 372.839 303.562 380.528 309.03 387.81C308.867 388.108 308.73 388.419 308.62 388.74C307.895 390.924 307.642 393.237 307.876 395.526C308.111 397.815 308.828 400.028 309.98 402.02V402.14C312.18 408.569 313.499 415.267 313.9 422.05C312.993 421.014 311.716 420.373 310.343 420.265C308.97 420.156 307.609 420.589 306.55 421.47C276.743 446.297 246.047 470.007 214.46 492.6C207.08 497.87 199.46 502.9 192.41 508.6C185.68 513.98 180.3 520.38 174.85 527C169.51 533.46 163.99 539.45 156.62 543.62C149.25 547.79 140.86 550.44 132.88 553.62C104.594 564.673 81.027 585.211 66.21 611.72C58.29 626 54.21 641.14 50.87 657.01C49.0315 666.426 46.2302 675.627 42.51 684.47C38.94 692.6 34.88 700.47 31.78 708.86C24.42 728.62 23.22 749.99 18.78 770.46C14.11 791.85 7.19001 812.65 0.280014 833.4C-1.71999 839.52 7.90001 842.15 9.92001 836.06C15.92 818.06 21.92 799.93 26.49 781.45C30.95 763.3 32.68 744.66 36.98 726.45C41.22 708.51 51.07 693.05 56.56 675.6C61.7 659.22 63.12 641.95 70.2 626.09C82.37 598.79 104.84 576.18 132.43 564.5C147.43 558.13 163.13 554.08 174.92 542.06C180.7 536.22 185.36 529.41 190.99 523.45C193.103 521.244 195.343 519.163 197.7 517.22C202.54 525.07 207.47 532.87 212.12 540.83C216.12 547.62 219.64 554.69 220.93 562.41C220.174 562.806 219.53 563.387 219.058 564.098C218.586 564.81 218.301 565.629 218.23 566.48C216.8 580.18 202.86 589.48 197.52 601.57C194.22 609.06 193.57 617.17 193.28 625.27C192.92 635.07 192.89 644.88 193.07 654.68C193.76 692.97 197.87 731.09 201.17 769.21C203.06 791.06 204.67 812.94 205.28 834.87C205.45 841.29 215.46 841.32 215.28 834.87C214.23 796.22 210 757.77 206.77 719.28C205.19 700.38 203.85 681.46 203.29 662.5C203 652.7 202.91 642.9 203.1 633.1C203.27 624.42 202.9 615.03 206.1 606.81C211.24 593.72 223.23 585.32 227.1 571.95C227.701 571.929 228.292 571.786 228.836 571.531C229.381 571.276 229.868 570.913 230.269 570.465C230.669 570.016 230.975 569.492 231.168 568.922C231.361 568.352 231.436 567.75 231.39 567.15C230.7 546.33 216.26 528.22 205.7 511.09C207.98 509.45 210.28 507.84 212.58 506.22C247.293 481.713 281 455.833 313.7 428.58C313.834 428.471 313.961 428.354 314.08 428.23C313.938 433.943 313.088 439.616 311.55 445.12C310.45 449.12 308.55 453.12 307.69 457.17C307.069 456.943 306.407 456.85 305.748 456.897C305.088 456.944 304.446 457.13 303.863 457.442C303.281 457.755 302.771 458.187 302.367 458.711C301.963 459.234 301.674 459.837 301.52 460.48C295.73 482.43 293.81 505.09 292.34 527.67C290.813 551.35 289.273 575.017 287.72 598.67C284.507 646.597 281.11 694.517 277.53 742.43C275.53 769.517 273.44 796.603 271.26 823.69C270.75 830.11 280.76 830.07 281.26 823.69C288.74 728.923 295.507 634.1 301.56 539.22C303.04 516.02 304.31 492.72 309.45 470.02C311.72 473.88 315.28 477.02 318.75 479.76C339.3 496.17 366.59 501.71 392.34 502.36C418.515 502.963 444.527 498.078 468.7 488.02C480.959 482.969 492.631 476.598 503.51 469.02C505.61 467.55 507.71 466.02 509.78 464.45C506.45 471.05 502.34 477.34 499.49 484.18C495.05 494.82 493.1 506.24 488.99 516.98C484.41 528.98 475.37 536.21 467.2 545.59C459.42 554.53 455.38 565.28 450.53 575.92C448.39 580.909 445.707 585.648 442.53 590.05C438.89 594.89 434.38 599.05 430.69 603.81C422.84 613.99 422.12 625.81 420.94 638.2C418.273 666.06 416.437 693.983 415.43 721.97C414.303 753.89 414.26 785.82 415.3 817.76C415.51 824.18 425.51 824.21 425.3 817.76C423.485 761.799 425.005 705.78 429.85 650C430.43 643.44 431.03 636.88 431.71 630.33C432.37 624.03 433.25 617.94 436.71 612.49C439.81 607.61 444.14 603.64 447.86 599.26C451.793 594.588 455.113 589.433 457.74 583.92C462.74 573.6 466.17 562.19 473.67 553.29C476.83 549.54 480.28 546.13 483.61 542.65C483.746 542.948 483.91 543.233 484.1 543.5C474.484 556.909 467.532 572.04 463.62 588.07C459.29 606.07 459.62 624.51 459.94 642.87C460.6 682.5 461.79 722.13 463.18 761.74C463.967 784.407 464.8 807.043 465.68 829.65C465.92 836.07 475.92 836.1 475.68 829.65C474.22 791.04 472.76 752.42 471.62 713.8C471.04 694.467 470.557 675.153 470.17 655.86C469.8 637.05 468.46 617.69 471.56 599.05C474.741 580.407 482.241 562.766 493.46 547.54C493.956 546.948 494.27 546.225 494.364 545.458C494.458 544.692 494.328 543.914 493.99 543.22C502.35 536.53 510.58 529.53 519.28 523.32C528.6 516.68 540.33 516.75 551.36 516.11C573.477 514.833 595.666 515.647 617.63 518.54C617.71 518.68 617.77 518.83 617.84 518.97C619.96 523.02 624.93 521.64 626.56 518.47C629.93 516.23 630.42 510.35 625.56 509.62L624.65 509.5C621.95 501.41 622.26 492.5 619.55 484.34C617.83 479.18 615.13 474.39 613.24 469.34C612.13 466.34 611.14 463.26 610.24 460.18C624.567 469.118 639.413 477.196 654.7 484.37C702.81 507.37 754.98 525.26 795.7 560.93C816.06 578.78 833.1 600.68 841.89 626.52C843.94 632.57 853.61 629.97 851.52 623.86ZM275.85 300.3C270.34 290.3 267.28 279.09 265.85 267.79C264.901 260.128 264.5 252.409 264.65 244.69C264.562 240.247 264.957 235.807 265.83 231.45C266.2 229.85 266.66 226.76 268.02 225.6C269.38 224.44 270.41 224.94 271.47 225.86C271.47 226.32 271.52 226.78 271.54 227.24C271.578 228.438 272.05 229.582 272.869 230.458C273.688 231.334 274.797 231.882 275.99 232C274.13 254.74 273.42 277.64 275.85 300.3ZM277.22 217.71C276.74 217.34 276.22 217 275.73 216.71C276.237 216.858 276.762 216.939 277.29 216.95C277.27 217.22 277.24 217.45 277.22 217.71ZM289.7 323.02C281.5 287.44 284.01 250.27 287.59 214.27C287.678 213.732 287.656 213.181 287.527 212.652C287.398 212.122 287.164 211.623 286.838 211.186C286.513 210.749 286.102 210.381 285.632 210.105C285.162 209.829 284.641 209.651 284.1 209.58C284.105 209.53 284.105 209.48 284.1 209.43C284.69 202.98 285.38 196.56 288.26 190.67C290.94 185.2 293.65 180.31 294.63 174.19C296.54 162.38 297.1 150.7 300.15 139.05C306.2 115.949 317.319 94.4864 332.7 76.22C333.091 75.7619 333.402 75.2413 333.62 74.68L414.62 74.83C427.52 74.83 440.47 75.22 453.37 74.75C464.37 74.34 475.37 72.7 485.2 67.54C495.45 90.73 505.89 113.91 515.7 137.34C520.61 149.01 525.84 160.75 529.49 172.89C533.222 185.385 534.649 198.454 533.7 211.46C533.575 212.416 533.784 213.385 534.293 214.204C534.801 215.022 535.578 215.639 536.49 215.95C538.55 218.78 544.14 219 545.66 214.56C545.66 214.48 545.74 214.4 545.77 214.32C546.733 214.583 547.759 214.476 548.647 214.021C549.535 213.566 550.221 212.795 550.57 211.86C551.1 210.74 551.57 209.59 552.03 208.44C552.682 208.172 553.35 207.945 554.03 207.76C555.724 207.296 557.473 207.063 559.23 207.07C559.49 207.07 560.41 207.24 560.99 207.24C560.99 207.73 561.05 208.44 561.04 208.69C560.71 220.5 560.04 232.3 559.35 244.09C558.683 255.557 557.87 267.017 556.91 278.47C556.58 282.56 556.74 287.36 554.98 291.19C553.22 295.02 548.98 294.45 545.2 294.24C543.06 291.82 539.1 291.24 537.53 294.9C530.12 312.43 523.2 330.5 515.4 348.11C514.635 347.488 513.778 346.989 512.86 346.63C508.03 344.7 501.99 345.8 496.97 346.15C493.02 346.43 489.07 346.82 485.14 347.28C483.542 342.896 481.377 338.741 478.7 334.92C477.832 331.222 476.078 327.79 473.59 324.92C468.96 319.77 461.8 317.14 454.79 315.02C453.932 314.084 452.762 313.494 451.5 313.36C450.3 313.21 449.09 313.11 447.88 312.98C447.01 312.72 446.14 312.45 445.31 312.17L445.08 312.1C441.033 311.853 436.96 311.727 432.86 311.72C413.28 311.72 393.75 313.29 374.17 313.38L373.84 313.56C373.46 313.74 373.06 313.9 372.67 314.07C372.296 314.434 371.853 314.719 371.367 314.908C370.881 315.097 370.361 315.186 369.84 315.17C368.12 315.77 366.36 316.3 364.6 316.82C361.95 317.55 359.32 318.34 356.71 319.22C352.166 320.665 347.736 322.45 343.46 324.56C338.507 326.62 333.603 328.79 328.75 331.07C328.112 331.352 327.546 331.772 327.09 332.3C318.76 337.13 317.66 347.01 317.53 355.8C317.4 364.59 316.53 373.8 317.68 382.51C304.75 364.64 294.76 345.11 289.7 323.02ZM469.57 355.88C468.27 365.21 463.7 372 455.97 378.52C448.24 385.04 439.72 392.31 429.97 395.74C418.66 399.74 406.31 397.81 394.58 397.9C383.78 397.99 372.03 399.39 361.95 394.54C352.24 389.87 348.79 379.85 347.78 369.75C347.39 365.599 347.24 361.429 347.33 357.26C348.36 353.085 349.8 349.022 351.63 345.13C353.85 340.59 357.22 339.77 361.78 338.13C370.515 335.069 379.449 332.61 388.52 330.77C404.188 327.635 420.177 326.406 436.14 327.11C438.553 327.597 440.94 328.19 443.3 328.89C454.56 332.27 463.71 337.89 467.67 349.45C468.33 351.58 468.98 353.72 469.53 355.88H469.57ZM504.51 455.96C495.03 463.296 484.796 469.602 473.98 474.77C451.863 485.431 427.776 491.389 403.24 492.27C379.43 493.12 353.66 489.95 332.92 477.45C327.84 474.4 320.15 470 317.73 464.29C316.14 460.54 318.34 456.4 319.56 452.88C325.297 436.623 325.672 418.956 320.63 402.47C322.01 404.12 323.41 405.76 324.8 407.39C335.62 419.98 347.61 431.96 362.05 440.39C376.482 448.707 392.843 453.096 409.5 453.12C442.71 453.24 471.4 435.52 491.56 410.01C503.76 394.58 512.86 377.12 520.88 359.23L522.96 387.37C523.96 400.52 526.74 415.14 524.24 428.23C521.94 440.03 513.64 448.78 504.47 455.96H504.51ZM610.41 488.59C612.27 495.06 612.76 501.7 614.15 508.15C592.059 505.504 569.77 504.915 547.57 506.39C536.28 507.16 524.57 507.62 514.93 514.26C507.37 519.48 500.2 525.4 493.04 531.26C493.969 529.825 494.817 528.34 495.58 526.81C501.34 515.07 503.26 502.04 507.91 489.91C512.63 477.59 521.48 467.26 524.27 454.16C524.497 453.158 524.41 452.111 524.02 451.16C526.158 448.585 528.031 445.801 529.61 442.85C537.14 428.63 534.8 412.45 533.67 397.07L533.4 393.45C533.688 393.643 533.993 393.81 534.31 393.95C545.66 398.95 552.43 409.61 560.31 418.65C568.826 428.295 578.249 437.099 588.45 444.94C591.63 447.42 594.88 449.81 598.17 452.13C597.96 452.984 597.984 453.879 598.24 454.72C599.96 460.83 601.68 466.95 603.94 472.89C605.91 478.15 608.81 483.15 610.37 488.59H610.41Z" fill="black" stroke="#898989" stroke-width="0.7"/>
</g>
<defs>
<clipPath id="clip0_58_4247">
<rect width="851.82" height="839.68" fill="white"/>
</clipPath>
</defs>
</svg>
