<svg width="375" height="370" viewBox="0 0 375 370" fill="none" xmlns="http://www.w3.org/2000/svg">
<g clip-path="url(#clip0_54_2458)">
<path d="M140.5 177L127 143.769L235 141L231.5 152.631V177H140.5Z" fill="#272727"/>
<path d="M226.236 81.1263C226.093 80.8995 225.904 80.7044 225.682 80.553C225.46 80.4016 225.21 80.2971 224.946 80.2459C218.713 78.7315 213.941 73.8581 207.214 73.9153C200.703 73.9681 194.544 78.0755 188.02 77.1554C185.766 76.8384 184.555 79.5811 185.691 80.8314C185.531 81.2036 185.464 81.6096 185.498 82.0134C185.532 82.4172 185.665 82.8065 185.884 83.147C185.105 84.5249 185.678 86.6072 187.645 86.3959C196.811 85.4127 205.944 84.1962 215.046 82.7464C218.299 83.7237 221.535 84.9476 224.92 85.0752C227.209 85.1369 227.645 82.2797 226.236 81.1263Z" fill="black" stroke="#898989" stroke-width="0.7"/>
<path d="M162.252 78.3572C154.768 77.9992 147.284 77.8216 139.8 77.8245C139.299 77.8105 138.809 77.983 138.427 78.3088C137.977 78.4134 137.536 78.5502 137.106 78.7182C134.047 79.9288 131.383 83.0149 129.182 85.3745C128.984 85.5868 128.83 85.8362 128.729 86.1083C128.627 86.3804 128.581 86.6698 128.592 86.9599C128.603 87.25 128.671 87.5351 128.793 87.7987C128.915 88.0623 129.087 88.2992 129.301 88.4958C129.151 90.085 131.445 91.6831 133.175 90.3448C134.897 88.9485 136.804 87.796 138.841 86.9198C141.178 85.9821 143.516 85.9072 145.999 85.9028H160.751C162.596 85.9028 163.239 84.0406 162.684 82.7375C165.074 82.4646 164.955 78.4893 162.252 78.3572Z" fill="black" stroke="#898989" stroke-width="0.7"/>
<path d="M374.868 274.644C367.666 253.482 349.708 238.651 330.638 228.301C309.145 216.639 285.337 209.331 265.276 195.059C259.99 191.337 255.119 187.056 250.748 182.292C246.637 177.758 243.229 172.167 237.422 169.627C236.938 169.41 236.394 169.365 235.88 169.498C235.367 169.632 234.914 169.937 234.596 170.362L233.223 151.74C233.191 151.251 232.998 150.786 232.672 150.419C235.023 144.938 237.308 139.413 239.624 133.928C242.129 133.884 244.677 134.28 246.689 132.374C248.508 130.657 249.005 128.148 249.269 125.77C250.075 118.419 250.436 110.979 250.832 103.596C251.034 99.8451 251.215 96.0899 251.343 92.3347C251.431 89.6933 250.819 87.4437 247.882 86.9286C246.736 86.7319 245.566 86.7111 244.413 86.867C245.62 80.7961 245.197 74.3071 244.854 68.2275C244.413 59.6737 243.256 51.0583 240.83 42.8392C236.52 28.2146 227.755 14.4969 214.35 6.69158C207.192 2.52696 199.421 0.9025 191.215 0.528301C181.971 0.0880675 172.285 -0.67794 163.247 1.53203C158.889 2.5974 154.729 4.30111 150.599 6.02682C146.585 7.66889 142.504 9.31097 139.013 11.9832C135.588 14.6246 133.003 18.0804 130.349 21.4394C127.553 24.9613 124.701 28.4832 121.984 32.0623C119.11 35.8527 117.793 39.7443 117.582 44.4901C117.331 49.8961 117.437 55.3374 117.582 60.7435C117.908 71.5777 118.295 82.6407 119.655 93.4C119.722 93.9837 120.011 94.5195 120.461 94.8968C120.338 94.844 120.21 94.7912 120.082 94.7472C117.934 94.034 115.843 94.8792 114.509 96.6314C111.454 100.651 111.96 107.144 112.136 111.894C112.51 121.94 114.835 132.026 121.438 139.867C121.744 140.26 122.191 140.517 122.684 140.584C124.004 147.556 126.329 154.299 129.587 160.602C131.479 164.136 133.638 167.521 136.045 170.727C135.974 170.858 135.913 170.995 135.865 171.137C135.546 172.098 135.434 173.116 135.537 174.124C135.641 175.132 135.956 176.106 136.464 176.983V177.036C137.432 179.866 138.013 182.814 138.189 185.801C137.79 185.345 137.228 185.062 136.623 185.015C136.019 184.967 135.42 185.157 134.954 185.545C121.832 196.475 108.318 206.913 94.4124 216.859C91.1635 219.179 87.8089 221.394 84.7053 223.903C81.7425 226.271 79.3741 229.089 76.9748 232.003C74.6239 234.847 72.1938 237.484 68.9493 239.32C65.7048 241.156 62.0112 242.322 58.4982 243.722C46.0457 248.588 35.6707 257.63 29.1478 269.3C25.6611 275.586 23.865 282.252 22.3946 289.238C21.5852 293.383 20.352 297.434 18.7142 301.327C17.1426 304.906 15.3552 308.371 13.9905 312.064C10.7504 320.763 10.2221 330.171 8.26747 339.183C6.21158 348.599 3.16516 357.756 0.123143 366.891C-0.757325 369.585 3.47772 370.743 4.367 368.062C7.0084 360.138 9.6498 352.156 11.6617 344.021C13.6251 336.031 14.3867 327.825 16.2797 319.808C18.1463 311.91 22.4826 305.104 24.8995 297.422C27.1623 290.211 27.7874 282.608 30.9043 275.626C36.2619 263.608 46.154 253.654 58.3 248.512C64.9036 245.708 71.8152 243.925 77.0056 238.633C79.5501 236.062 81.6016 233.064 84.0801 230.44C85.0102 229.469 85.9966 228.553 87.0341 227.698C89.1648 231.154 91.3352 234.587 93.3823 238.092C95.1432 241.081 96.6929 244.193 97.2608 247.592C96.9278 247.766 96.6442 248.022 96.4365 248.335C96.2287 248.648 96.1033 249.009 96.0721 249.384C95.4426 255.415 89.3057 259.509 86.9549 264.832C85.5021 268.129 85.216 271.699 85.0883 275.265C84.9298 279.579 84.9166 283.898 84.9958 288.212C85.2996 305.069 87.109 321.851 88.5617 338.632C89.3938 348.251 90.1025 357.884 90.3711 367.538C90.4459 370.364 94.8527 370.378 94.7734 367.538C94.3112 350.523 92.449 333.596 91.027 316.651C90.3315 308.331 89.7416 300.002 89.495 291.655C89.3674 287.341 89.3277 283.026 89.4114 278.712C89.4862 274.891 89.3233 270.757 90.7321 267.138C92.9949 261.376 98.2733 257.678 99.977 251.792C100.242 251.782 100.502 251.72 100.741 251.607C100.981 251.495 101.195 251.335 101.372 251.138C101.548 250.941 101.683 250.71 101.768 250.459C101.853 250.208 101.886 249.943 101.866 249.679C101.562 240.513 95.2049 232.54 90.556 224.999C91.5597 224.277 92.5723 223.568 93.5848 222.855C108.867 212.067 123.706 200.673 138.101 188.675C138.16 188.628 138.216 188.576 138.269 188.521C138.206 191.036 137.832 193.534 137.155 195.957C136.67 197.718 135.834 199.479 135.455 201.262C135.182 201.162 134.891 201.121 134.6 201.142C134.31 201.162 134.027 201.244 133.771 201.382C133.514 201.519 133.29 201.709 133.112 201.94C132.934 202.17 132.807 202.436 132.739 202.719C130.19 212.382 129.345 222.358 128.698 232.298C128.026 242.723 127.348 253.142 126.664 263.555C125.249 284.654 123.754 305.75 122.178 326.843C121.298 338.767 120.377 350.692 119.418 362.616C119.193 365.443 123.6 365.425 123.82 362.616C127.113 320.897 130.092 279.152 132.757 237.383C133.408 227.17 133.967 216.912 136.23 206.919C137.23 208.618 138.797 210 140.324 211.207C149.371 218.431 161.385 220.87 172.721 221.156C184.244 221.421 195.696 219.271 206.337 214.843C211.734 212.619 216.873 209.815 221.662 206.479C222.587 205.831 223.511 205.158 224.422 204.467C222.956 207.372 221.147 210.141 219.892 213.152C217.938 217.837 217.079 222.864 215.27 227.592C213.254 232.875 209.274 236.058 205.677 240.187C202.252 244.123 200.474 248.855 198.338 253.54C197.396 255.736 196.215 257.822 194.817 259.76C193.214 261.891 191.229 263.722 189.604 265.818C186.148 270.299 185.831 275.503 185.312 280.957C184.138 293.222 183.329 305.515 182.886 317.836C182.39 331.888 182.371 345.945 182.829 360.006C182.921 362.832 187.324 362.845 187.231 360.006C186.432 335.37 187.101 310.708 189.234 286.152C189.49 283.264 189.754 280.376 190.053 277.493C190.344 274.719 190.731 272.038 192.254 269.639C193.619 267.491 195.525 265.743 197.163 263.815C198.894 261.758 200.356 259.488 201.513 257.061C203.714 252.518 205.224 247.495 208.525 243.577C209.917 241.926 211.435 240.425 212.901 238.893C212.961 239.024 213.034 239.149 213.117 239.267C208.884 245.17 205.823 251.831 204.101 258.888C202.195 266.813 202.34 274.931 202.481 283.013C202.772 300.46 203.295 317.906 203.907 335.344C204.254 345.322 204.621 355.288 205.008 365.24C205.114 368.066 209.516 368.08 209.41 365.24C208.768 348.243 208.125 331.241 207.623 314.239C207.368 305.728 207.155 297.225 206.985 288.732C206.822 280.451 206.232 271.928 207.597 263.722C208.997 255.515 212.299 247.749 217.238 241.046C217.456 240.785 217.594 240.467 217.636 240.129C217.677 239.792 217.62 239.45 217.471 239.144C221.151 236.199 224.775 233.117 228.605 230.383C232.708 227.46 237.871 227.491 242.727 227.209C252.464 226.647 262.232 227.005 271.902 228.279C271.937 228.341 271.963 228.407 271.994 228.468C272.927 230.251 275.115 229.644 275.833 228.248C277.316 227.262 277.532 224.673 275.393 224.352L274.992 224.299C273.803 220.738 273.94 216.815 272.747 213.223C271.99 210.951 270.801 208.843 269.969 206.619C269.48 205.299 269.044 203.943 268.648 202.587C274.955 206.522 281.491 210.078 288.221 213.236C309.401 223.361 332.368 231.237 350.294 246.94C359.257 254.799 366.759 264.44 370.628 275.815C371.531 278.479 375.788 277.334 374.868 274.644ZM121.438 132.202C119.013 127.8 117.666 122.865 117.036 117.89C116.618 114.517 116.442 111.119 116.508 107.721C116.469 105.765 116.643 103.81 117.027 101.892C117.19 101.188 117.393 99.8275 117.991 99.3168C118.59 98.8061 119.044 99.0262 119.51 99.4312C119.51 99.6338 119.532 99.8363 119.541 100.039C119.558 100.566 119.766 101.07 120.126 101.455C120.486 101.841 120.975 102.082 121.5 102.134C120.681 112.145 120.369 122.227 121.438 132.202ZM122.042 95.8433C121.83 95.6805 121.601 95.5308 121.386 95.4031C121.609 95.4684 121.84 95.5039 122.072 95.5088C122.064 95.6276 122.05 95.7289 122.042 95.8433ZM127.536 142.204C123.926 126.541 125.031 110.177 126.607 94.3289C126.645 94.092 126.636 93.8497 126.579 93.6165C126.522 93.3833 126.419 93.1638 126.276 92.9713C126.132 92.7787 125.952 92.6168 125.745 92.4954C125.538 92.3739 125.308 92.2953 125.07 92.2642C125.072 92.2423 125.072 92.2202 125.07 92.1982C125.33 89.3587 125.634 86.5324 126.902 83.9394C128.082 81.5313 129.275 79.3786 129.706 76.6844C130.547 71.4852 130.793 66.3433 132.136 61.2145C134.799 51.0449 139.694 41.5961 146.466 33.5546C146.638 33.353 146.775 33.1238 146.871 32.8767L182.53 32.9427C188.209 32.9427 193.91 33.1144 199.589 32.9075C204.431 32.727 209.274 32.005 213.601 29.7334C218.114 39.9424 222.71 50.1471 227.028 60.4617C229.19 65.5993 231.492 70.7676 233.099 76.1121C234.742 81.6126 235.37 87.3664 234.953 93.0919C234.897 93.5125 234.99 93.9393 235.214 94.2997C235.438 94.66 235.779 94.9317 236.181 95.0685C237.088 96.3144 239.549 96.4112 240.218 94.4566C240.218 94.4214 240.253 94.3862 240.266 94.3509C240.69 94.4666 241.142 94.4196 241.533 94.2192C241.924 94.0188 242.226 93.6795 242.379 93.268C242.613 92.7749 242.82 92.2686 243.022 91.7624C243.309 91.6444 243.603 91.5444 243.903 91.463C244.648 91.2585 245.419 91.1563 246.192 91.1592C246.306 91.1592 246.711 91.2341 246.967 91.2341C246.967 91.4498 246.993 91.7624 246.989 91.8724C246.843 97.0716 246.548 102.266 246.245 107.457C245.951 112.505 245.593 117.55 245.171 122.592C245.025 124.393 245.096 126.506 244.321 128.192C243.546 129.878 241.679 129.627 240.015 129.534C239.073 128.469 237.33 128.214 236.639 129.825C233.377 137.542 230.33 145.497 226.896 153.25C226.56 152.976 226.182 152.756 225.778 152.598C223.652 151.749 220.993 152.233 218.783 152.387C217.044 152.51 215.305 152.682 213.575 152.884C212.872 150.955 211.918 149.125 210.74 147.443C210.358 145.815 209.586 144.304 208.49 143.041C206.452 140.774 203.3 139.616 200.214 138.683C199.836 138.271 199.321 138.011 198.765 137.952C198.237 137.886 197.705 137.842 197.172 137.784C196.789 137.67 196.406 137.551 196.04 137.428L195.939 137.397C194.158 137.288 192.364 137.233 190.56 137.23C181.94 137.23 173.342 137.921 164.722 137.961L164.577 138.04C164.41 138.119 164.234 138.189 164.062 138.264C163.897 138.425 163.702 138.55 163.488 138.633C163.274 138.717 163.046 138.756 162.816 138.749C162.059 139.013 161.284 139.246 160.509 139.475C159.343 139.796 158.185 140.144 157.036 140.531C155.035 141.168 153.085 141.953 151.203 142.882C149.022 143.789 146.863 144.745 144.727 145.748C144.446 145.872 144.197 146.057 143.996 146.29C140.329 148.416 139.845 152.766 139.787 156.635C139.73 160.505 139.347 164.559 139.853 168.394C134.161 160.527 129.763 151.929 127.536 142.204ZM206.721 156.67C206.148 160.778 204.136 163.767 200.733 166.637C197.33 169.508 193.58 172.708 189.287 174.218C184.308 175.979 178.871 175.129 173.707 175.169C168.953 175.209 163.78 175.825 159.343 173.69C155.068 171.634 153.549 167.223 153.104 162.776C152.933 160.949 152.867 159.113 152.906 157.278C153.36 155.44 153.994 153.651 154.799 151.938C155.777 149.939 157.26 149.578 159.268 148.856C163.113 147.509 167.046 146.426 171.04 145.616C177.937 144.236 184.976 143.695 192.003 144.005C193.066 144.219 194.117 144.48 195.156 144.789C200.113 146.277 204.141 148.751 205.884 153.84C206.175 154.777 206.461 155.72 206.703 156.67H206.721ZM222.102 200.729C217.929 203.959 213.423 206.735 208.662 209.01C198.925 213.703 188.321 216.326 177.52 216.714C167.038 217.088 155.693 215.693 146.563 210.19C144.326 208.847 140.941 206.91 139.875 204.396C139.175 202.745 140.144 200.923 140.681 199.373C143.206 192.216 143.372 184.438 141.152 177.181C141.76 177.907 142.376 178.629 142.988 179.347C147.751 184.889 153.03 190.163 159.387 193.875C165.74 197.536 172.943 199.468 180.276 199.479C194.896 199.532 207.526 191.731 216.401 180.5C221.772 173.708 225.778 166.021 229.309 158.145L230.225 170.533C230.665 176.322 231.889 182.759 230.788 188.521C229.776 193.716 226.122 197.568 222.085 200.729H222.102ZM268.723 215.094C269.542 217.942 269.758 220.865 270.37 223.705C260.644 222.54 250.832 222.281 241.059 222.93C236.089 223.269 230.933 223.472 226.69 226.395C223.361 228.693 220.205 231.299 217.053 233.879C217.462 233.247 217.835 232.593 218.171 231.92C220.707 226.751 221.552 221.015 223.599 215.675C225.677 210.251 229.573 205.704 230.801 199.937C230.901 199.496 230.863 199.034 230.691 198.616C231.633 197.482 232.457 196.257 233.152 194.958C236.467 188.697 235.437 181.574 234.94 174.804L234.821 173.21C234.948 173.295 235.082 173.368 235.221 173.43C240.218 175.631 243.198 180.324 246.667 184.304C250.416 188.55 254.565 192.426 259.056 195.878C260.455 196.969 261.886 198.022 263.335 199.043C263.242 199.419 263.253 199.813 263.365 200.183C264.123 202.873 264.88 205.567 265.875 208.182C266.742 210.498 268.019 212.699 268.705 215.094H268.723Z" fill="black" stroke="#898989" stroke-width="0.7"/>
</g>
<mask id="mask0_54_2458" style="mask-type:alpha" maskUnits="userSpaceOnUse" x="0" y="0" width="375" height="370">
<g opacity="0.9" clip-path="url(#clip1_54_2458)">
<path d="M225.857 81.4621L225.814 81.3939C225.707 81.2246 225.566 81.079 225.4 80.9659C225.235 80.8529 225.048 80.7749 224.851 80.7367L224.84 80.7345L224.828 80.7317C222.215 80.0968 219.845 78.8815 217.548 77.7034C217.043 77.4446 216.542 77.1875 216.042 76.9388C213.242 75.5448 210.457 74.3877 207.218 74.4153L207.218 74.4153C204.379 74.4383 201.606 75.2526 198.759 76.0886C198.427 76.186 198.095 76.2837 197.761 76.3804C194.594 77.2983 191.329 78.1271 187.95 77.6505L225.857 81.4621ZM225.857 81.4621L225.92 81.5132M225.857 81.4621L225.92 81.5132M225.92 81.5132C226.449 81.9469 226.659 82.7376 226.481 83.4318C226.394 83.7695 226.22 84.0584 225.974 84.2585C225.733 84.4544 225.397 84.5873 224.936 84.5755C222.237 84.4732 219.643 83.6582 216.982 82.8223C216.388 82.6358 215.791 82.4484 215.189 82.2675L215.08 82.2346L214.967 82.2526C205.874 83.7011 196.749 84.9165 187.592 85.8988L187.592 85.8988C187.192 85.9417 186.898 85.8659 186.684 85.7401C186.468 85.6133 186.302 85.4167 186.193 85.167C185.968 84.6542 186.002 83.9544 186.32 83.3931L186.469 83.1299L186.305 82.8758C186.129 82.6043 186.023 82.2938 185.997 81.9717C185.97 81.6496 186.022 81.3259 186.15 81.029L186.277 80.7334M225.92 81.5132L186.277 80.7334M186.277 80.7334L186.061 80.4952M186.277 80.7334L186.061 80.4952M186.061 80.4952C185.684 80.0799 185.644 79.3316 186.022 78.6471M186.061 80.4952L186.022 78.6471M186.022 78.6471C186.384 77.9908 187.066 77.5263 187.95 77.6505L186.022 78.6471Z" fill="black" stroke="white"/>
<path d="M139.786 78.3243L139.794 78.3245L139.801 78.3245C147.277 78.3216 154.752 78.499 162.228 78.8566C163.271 78.9076 163.823 79.6775 163.879 80.5274C163.937 81.3976 163.474 82.144 162.627 82.2408L161.961 82.3168L162.224 82.9334C162.444 83.4515 162.425 84.0874 162.172 84.5809C161.932 85.0502 161.477 85.4028 160.751 85.4028L145.999 85.4028L145.998 85.4028C143.515 85.4072 141.09 85.4788 138.655 86.4557L138.655 86.4556L138.643 86.4605C136.566 87.354 134.622 88.5291 132.865 89.9526C132.187 90.4746 131.404 90.432 130.777 90.0817C130.123 89.716 129.748 89.0831 129.799 88.5427L129.822 88.2958L129.64 88.1279C129.474 87.976 129.341 87.7928 129.247 87.5891C129.153 87.3854 129.1 87.1651 129.092 86.9409C129.083 86.7167 129.119 86.493 129.197 86.2827C129.275 86.0724 129.395 85.8797 129.548 85.7156L129.548 85.7156C129.748 85.5011 129.951 85.2818 130.156 85.0593C131.093 84.0465 132.091 82.9681 133.161 81.9834C134.465 80.7832 135.843 79.7561 137.289 79.1835C137.696 79.0245 138.115 78.8949 138.54 78.7958L138.659 78.7682L138.751 78.6893C139.039 78.4438 139.408 78.3137 139.786 78.3243Z" fill="black" stroke="white"/>
<mask id="path-7-inside-1_54_2458" fill="white">
<path d="M374.868 274.644C367.666 253.482 349.708 238.651 330.638 228.301C309.145 216.639 285.337 209.331 265.276 195.059C259.99 191.337 255.119 187.056 250.748 182.292C246.637 177.758 243.229 172.167 237.422 169.627C236.938 169.41 236.394 169.365 235.88 169.498C235.367 169.632 234.914 169.937 234.596 170.362L233.223 151.74C233.191 151.251 232.998 150.786 232.672 150.419C235.023 144.938 237.308 139.413 239.624 133.928C242.129 133.884 244.677 134.28 246.689 132.374C248.508 130.657 249.005 128.148 249.269 125.77C250.075 118.419 250.436 110.979 250.832 103.596C251.034 99.8451 251.215 96.0899 251.343 92.3347C251.431 89.6933 250.819 87.4437 247.882 86.9286C246.736 86.7319 245.566 86.7111 244.413 86.867C245.62 80.7961 245.197 74.3071 244.854 68.2275C244.413 59.6737 243.256 51.0583 240.83 42.8392C236.52 28.2146 227.755 14.4969 214.35 6.69158C207.192 2.52696 199.421 0.9025 191.215 0.528301C181.971 0.0880675 172.285 -0.67794 163.247 1.53203C158.889 2.5974 154.729 4.30111 150.599 6.02682C146.585 7.66889 142.504 9.31097 139.013 11.9832C135.588 14.6246 133.003 18.0804 130.349 21.4394C127.553 24.9613 124.701 28.4832 121.984 32.0623C119.11 35.8527 117.793 39.7443 117.582 44.4901C117.331 49.8961 117.437 55.3374 117.582 60.7435C117.908 71.5777 118.295 82.6407 119.655 93.4C119.722 93.9837 120.011 94.5195 120.461 94.8968C120.338 94.844 120.21 94.7912 120.082 94.7472C117.934 94.034 115.843 94.8792 114.509 96.6314C111.454 100.651 111.96 107.144 112.136 111.894C112.51 121.94 114.835 132.026 121.438 139.867C121.744 140.26 122.191 140.517 122.684 140.584C124.004 147.556 126.329 154.299 129.587 160.602C131.479 164.136 133.638 167.521 136.045 170.727C135.974 170.858 135.913 170.995 135.865 171.137C135.546 172.098 135.434 173.116 135.537 174.124C135.641 175.132 135.956 176.106 136.464 176.983V177.036C137.432 179.866 138.013 182.814 138.189 185.801C137.79 185.345 137.228 185.062 136.623 185.015C136.019 184.967 135.42 185.157 134.954 185.545C121.832 196.475 108.318 206.913 94.4124 216.859C91.1635 219.179 87.8089 221.394 84.7053 223.903C81.7425 226.271 79.3741 229.089 76.9748 232.003C74.6239 234.847 72.1938 237.484 68.9493 239.32C65.7048 241.156 62.0112 242.322 58.4982 243.722C46.0457 248.588 35.6707 257.63 29.1478 269.3C25.6611 275.586 23.865 282.252 22.3946 289.238C21.5852 293.383 20.352 297.434 18.7142 301.327C17.1426 304.906 15.3552 308.371 13.9905 312.064C10.7504 320.763 10.2221 330.171 8.26747 339.183C6.21158 348.599 3.16516 357.756 0.123143 366.891C-0.757325 369.585 3.47772 370.743 4.367 368.062C7.0084 360.138 9.6498 352.156 11.6617 344.021C13.6251 336.031 14.3867 327.825 16.2797 319.808C18.1463 311.91 22.4826 305.104 24.8995 297.422C27.1623 290.211 27.7874 282.608 30.9043 275.626C36.2619 263.608 46.154 253.654 58.3 248.512C64.9036 245.708 71.8152 243.925 77.0056 238.633C79.5501 236.062 81.6016 233.064 84.0801 230.44C85.0102 229.469 85.9966 228.553 87.0341 227.698C89.1648 231.154 91.3352 234.587 93.3823 238.092C95.1432 241.081 96.6929 244.193 97.2608 247.592C96.9278 247.766 96.6442 248.022 96.4365 248.335C96.2287 248.648 96.1033 249.009 96.0721 249.384C95.4426 255.415 89.3057 259.509 86.9549 264.832C85.5021 268.129 85.216 271.699 85.0883 275.265C84.9298 279.579 84.9166 283.898 84.9958 288.212C85.2996 305.069 87.109 321.851 88.5617 338.632C89.3938 348.251 90.1025 357.884 90.3711 367.538C90.4459 370.364 94.8527 370.378 94.7734 367.538C94.3112 350.523 92.449 333.596 91.027 316.651C90.3315 308.331 89.7416 300.002 89.495 291.655C89.3674 287.341 89.3277 283.026 89.4114 278.712C89.4862 274.891 89.3233 270.757 90.7321 267.138C92.9949 261.376 98.2733 257.678 99.977 251.792C100.242 251.782 100.502 251.72 100.741 251.607C100.981 251.495 101.195 251.335 101.372 251.138C101.548 250.941 101.683 250.71 101.768 250.459C101.853 250.208 101.886 249.943 101.866 249.679C101.562 240.513 95.2049 232.54 90.556 224.999C91.5597 224.277 92.5723 223.568 93.5848 222.855C108.867 212.067 123.706 200.673 138.101 188.675C138.16 188.628 138.216 188.576 138.269 188.521C138.206 191.036 137.832 193.534 137.155 195.957C136.67 197.718 135.834 199.479 135.455 201.262C135.182 201.162 134.891 201.121 134.6 201.142C134.31 201.162 134.027 201.244 133.771 201.382C133.514 201.519 133.29 201.709 133.112 201.94C132.934 202.17 132.807 202.436 132.739 202.719C130.19 212.382 129.345 222.358 128.698 232.298C128.026 242.723 127.348 253.142 126.664 263.555C125.249 284.654 123.754 305.75 122.178 326.843C121.298 338.767 120.377 350.692 119.418 362.616C119.193 365.443 123.6 365.425 123.82 362.616C127.113 320.897 130.092 279.152 132.757 237.383C133.408 227.17 133.967 216.912 136.23 206.919C137.23 208.618 138.797 210 140.324 211.207C149.371 218.431 161.385 220.87 172.721 221.156C184.244 221.421 195.696 219.271 206.337 214.843C211.734 212.619 216.873 209.815 221.662 206.479C222.587 205.831 223.511 205.158 224.422 204.467C222.956 207.372 221.147 210.141 219.892 213.152C217.938 217.837 217.079 222.864 215.27 227.592C213.254 232.875 209.274 236.058 205.677 240.187C202.252 244.123 200.474 248.855 198.338 253.54C197.396 255.736 196.215 257.822 194.817 259.76C193.214 261.891 191.229 263.722 189.604 265.818C186.148 270.299 185.831 275.503 185.312 280.957C184.138 293.222 183.329 305.515 182.886 317.836C182.39 331.888 182.371 345.945 182.829 360.006C182.921 362.832 187.324 362.845 187.231 360.006C186.432 335.37 187.101 310.708 189.234 286.152C189.49 283.264 189.754 280.376 190.053 277.493C190.344 274.719 190.731 272.038 192.254 269.639C193.619 267.491 195.525 265.743 197.163 263.815C198.894 261.758 200.356 259.488 201.513 257.061C203.714 252.518 205.224 247.495 208.525 243.577C209.917 241.926 211.435 240.425 212.901 238.893C212.961 239.024 213.034 239.149 213.117 239.267C208.884 245.17 205.823 251.831 204.101 258.888C202.195 266.813 202.34 274.931 202.481 283.013C202.772 300.46 203.295 317.906 203.907 335.344C204.254 345.322 204.621 355.288 205.008 365.24C205.114 368.066 209.516 368.08 209.41 365.24C208.768 348.243 208.125 331.241 207.623 314.239C207.368 305.728 207.155 297.225 206.985 288.732C206.822 280.451 206.232 271.928 207.597 263.722C208.997 255.515 212.299 247.749 217.238 241.046C217.456 240.785 217.594 240.467 217.636 240.129C217.677 239.792 217.62 239.45 217.471 239.144C221.151 236.199 224.775 233.117 228.605 230.383C232.708 227.46 237.871 227.491 242.727 227.209C252.464 226.647 262.232 227.005 271.902 228.279C271.937 228.341 271.963 228.407 271.994 228.468C272.927 230.251 275.115 229.644 275.833 228.248C277.316 227.262 277.532 224.673 275.393 224.352L274.992 224.299C273.803 220.738 273.94 216.815 272.747 213.223C271.99 210.951 270.801 208.843 269.969 206.619C269.48 205.299 269.044 203.943 268.648 202.587C274.955 206.522 281.491 210.078 288.221 213.236C309.401 223.361 332.368 231.237 350.294 246.94C359.257 254.799 366.759 264.44 370.628 275.815C371.531 278.479 375.788 277.334 374.868 274.644ZM121.438 132.202C119.013 127.8 117.666 122.865 117.036 117.89C116.618 114.517 116.442 111.119 116.508 107.721C116.469 105.765 116.643 103.81 117.027 101.892C117.19 101.188 117.393 99.8275 117.991 99.3168C118.59 98.8061 119.044 99.0262 119.51 99.4312C119.51 99.6338 119.532 99.8363 119.541 100.039C119.558 100.566 119.766 101.07 120.126 101.455C120.486 101.841 120.975 102.082 121.5 102.134C120.681 112.145 120.369 122.227 121.438 132.202ZM122.042 95.8433C121.83 95.6805 121.601 95.5308 121.386 95.4031C121.609 95.4684 121.84 95.5039 122.072 95.5088C122.064 95.6276 122.05 95.7289 122.042 95.8433ZM127.536 142.204C123.926 126.541 125.031 110.177 126.607 94.3289C126.645 94.092 126.636 93.8497 126.579 93.6165C126.522 93.3833 126.419 93.1638 126.276 92.9713C126.132 92.7787 125.952 92.6168 125.745 92.4954C125.538 92.3739 125.308 92.2953 125.07 92.2642C125.072 92.2423 125.072 92.2202 125.07 92.1982C125.33 89.3587 125.634 86.5324 126.902 83.9394C128.082 81.5313 129.275 79.3786 129.706 76.6844C130.547 71.4852 130.793 66.3433 132.136 61.2145C134.799 51.0449 139.694 41.5961 146.466 33.5546C146.638 33.353 146.775 33.1238 146.871 32.8767L182.53 32.9427C188.209 32.9427 193.91 33.1144 199.589 32.9075C204.431 32.727 209.274 32.005 213.601 29.7334C218.114 39.9424 222.71 50.1471 227.028 60.4617C229.19 65.5993 231.492 70.7676 233.099 76.1121C234.742 81.6126 235.37 87.3664 234.953 93.0919C234.897 93.5125 234.99 93.9393 235.214 94.2997C235.438 94.66 235.779 94.9317 236.181 95.0685C237.088 96.3144 239.549 96.4112 240.218 94.4566C240.218 94.4214 240.253 94.3862 240.266 94.3509C240.69 94.4666 241.142 94.4196 241.533 94.2192C241.924 94.0188 242.226 93.6795 242.379 93.268C242.613 92.7749 242.82 92.2686 243.022 91.7624C243.309 91.6444 243.603 91.5444 243.903 91.463C244.648 91.2585 245.419 91.1563 246.192 91.1592C246.306 91.1592 246.711 91.2341 246.967 91.2341C246.967 91.4498 246.993 91.7624 246.989 91.8724C246.843 97.0716 246.548 102.266 246.245 107.457C245.951 112.505 245.593 117.55 245.171 122.592C245.025 124.393 245.096 126.506 244.321 128.192C243.546 129.878 241.679 129.627 240.015 129.534C239.073 128.469 237.33 128.214 236.639 129.825C233.377 137.542 230.33 145.497 226.896 153.25C226.56 152.976 226.182 152.756 225.778 152.598C223.652 151.749 220.993 152.233 218.783 152.387C217.044 152.51 215.305 152.682 213.575 152.884C212.872 150.955 211.918 149.125 210.74 147.443C210.358 145.815 209.586 144.304 208.49 143.041C206.452 140.774 203.3 139.616 200.214 138.683C199.836 138.271 199.321 138.011 198.765 137.952C198.237 137.886 197.705 137.842 197.172 137.784C196.789 137.67 196.406 137.551 196.04 137.428L195.939 137.397C194.158 137.288 192.364 137.233 190.56 137.23C181.94 137.23 173.342 137.921 164.722 137.961L164.577 138.04C164.41 138.119 164.234 138.189 164.062 138.264C163.897 138.425 163.702 138.55 163.488 138.633C163.274 138.717 163.046 138.756 162.816 138.749C162.059 139.013 161.284 139.246 160.509 139.475C159.343 139.796 158.185 140.144 157.036 140.531C155.035 141.168 153.085 141.953 151.203 142.882C149.022 143.789 146.863 144.745 144.727 145.748C144.446 145.872 144.197 146.057 143.996 146.29C140.329 148.416 139.845 152.766 139.787 156.635C139.73 160.505 139.347 164.559 139.853 168.394C134.161 160.527 129.763 151.929 127.536 142.204ZM206.721 156.67C206.148 160.778 204.136 163.767 200.733 166.637C197.33 169.508 193.58 172.708 189.287 174.218C184.308 175.979 178.871 175.129 173.707 175.169C168.953 175.209 163.78 175.825 159.343 173.69C155.068 171.634 153.549 167.223 153.104 162.776C152.933 160.949 152.867 159.113 152.906 157.278C153.36 155.44 153.994 153.651 154.799 151.938C155.777 149.939 157.26 149.578 159.268 148.856C163.113 147.509 167.046 146.426 171.04 145.616C177.937 144.236 184.976 143.695 192.003 144.005C193.066 144.219 194.117 144.48 195.156 144.789C200.113 146.277 204.141 148.751 205.884 153.84C206.175 154.777 206.461 155.72 206.703 156.67H206.721ZM222.102 200.729C217.929 203.959 213.423 206.735 208.662 209.01C198.925 213.703 188.321 216.326 177.52 216.714C167.038 217.088 155.693 215.693 146.563 210.19C144.326 208.847 140.941 206.91 139.875 204.396C139.175 202.745 140.144 200.923 140.681 199.373C143.206 192.216 143.372 184.438 141.152 177.181C141.76 177.907 142.376 178.629 142.988 179.347C147.751 184.889 153.03 190.163 159.387 193.875C165.74 197.536 172.943 199.468 180.276 199.479C194.896 199.532 207.526 191.731 216.401 180.5C221.772 173.708 225.778 166.021 229.309 158.145L230.225 170.533C230.665 176.322 231.889 182.759 230.788 188.521C229.776 193.716 226.122 197.568 222.085 200.729H222.102ZM268.723 215.094C269.542 217.942 269.758 220.865 270.37 223.705C260.644 222.54 250.832 222.281 241.059 222.93C236.089 223.269 230.933 223.472 226.69 226.395C223.361 228.693 220.205 231.299 217.053 233.879C217.462 233.247 217.835 232.593 218.171 231.92C220.707 226.751 221.552 221.015 223.599 215.675C225.677 210.251 229.573 205.704 230.801 199.937C230.901 199.496 230.863 199.034 230.691 198.616C231.633 197.482 232.457 196.257 233.152 194.958C236.467 188.697 235.437 181.574 234.94 174.804L234.821 173.21C234.948 173.295 235.082 173.368 235.221 173.43C240.218 175.631 243.198 180.324 246.667 184.304C250.416 188.55 254.565 192.426 259.056 195.878C260.455 196.969 261.886 198.022 263.335 199.043C263.242 199.419 263.253 199.813 263.365 200.183C264.123 202.873 264.88 205.567 265.875 208.182C266.742 210.498 268.019 212.699 268.705 215.094H268.723Z"/>
</mask>
<path d="M374.868 274.644C367.666 253.482 349.708 238.651 330.638 228.301C309.145 216.639 285.337 209.331 265.276 195.059C259.99 191.337 255.119 187.056 250.748 182.292C246.637 177.758 243.229 172.167 237.422 169.627C236.938 169.41 236.394 169.365 235.88 169.498C235.367 169.632 234.914 169.937 234.596 170.362L233.223 151.74C233.191 151.251 232.998 150.786 232.672 150.419C235.023 144.938 237.308 139.413 239.624 133.928C242.129 133.884 244.677 134.28 246.689 132.374C248.508 130.657 249.005 128.148 249.269 125.77C250.075 118.419 250.436 110.979 250.832 103.596C251.034 99.8451 251.215 96.0899 251.343 92.3347C251.431 89.6933 250.819 87.4437 247.882 86.9286C246.736 86.7319 245.566 86.7111 244.413 86.867C245.62 80.7961 245.197 74.3071 244.854 68.2275C244.413 59.6737 243.256 51.0583 240.83 42.8392C236.52 28.2146 227.755 14.4969 214.35 6.69158C207.192 2.52696 199.421 0.9025 191.215 0.528301C181.971 0.0880675 172.285 -0.67794 163.247 1.53203C158.889 2.5974 154.729 4.30111 150.599 6.02682C146.585 7.66889 142.504 9.31097 139.013 11.9832C135.588 14.6246 133.003 18.0804 130.349 21.4394C127.553 24.9613 124.701 28.4832 121.984 32.0623C119.11 35.8527 117.793 39.7443 117.582 44.4901C117.331 49.8961 117.437 55.3374 117.582 60.7435C117.908 71.5777 118.295 82.6407 119.655 93.4C119.722 93.9837 120.011 94.5195 120.461 94.8968C120.338 94.844 120.21 94.7912 120.082 94.7472C117.934 94.034 115.843 94.8792 114.509 96.6314C111.454 100.651 111.96 107.144 112.136 111.894C112.51 121.94 114.835 132.026 121.438 139.867C121.744 140.26 122.191 140.517 122.684 140.584C124.004 147.556 126.329 154.299 129.587 160.602C131.479 164.136 133.638 167.521 136.045 170.727C135.974 170.858 135.913 170.995 135.865 171.137C135.546 172.098 135.434 173.116 135.537 174.124C135.641 175.132 135.956 176.106 136.464 176.983V177.036C137.432 179.866 138.013 182.814 138.189 185.801C137.79 185.345 137.228 185.062 136.623 185.015C136.019 184.967 135.42 185.157 134.954 185.545C121.832 196.475 108.318 206.913 94.4124 216.859C91.1635 219.179 87.8089 221.394 84.7053 223.903C81.7425 226.271 79.3741 229.089 76.9748 232.003C74.6239 234.847 72.1938 237.484 68.9493 239.32C65.7048 241.156 62.0112 242.322 58.4982 243.722C46.0457 248.588 35.6707 257.63 29.1478 269.3C25.6611 275.586 23.865 282.252 22.3946 289.238C21.5852 293.383 20.352 297.434 18.7142 301.327C17.1426 304.906 15.3552 308.371 13.9905 312.064C10.7504 320.763 10.2221 330.171 8.26747 339.183C6.21158 348.599 3.16516 357.756 0.123143 366.891C-0.757325 369.585 3.47772 370.743 4.367 368.062C7.0084 360.138 9.6498 352.156 11.6617 344.021C13.6251 336.031 14.3867 327.825 16.2797 319.808C18.1463 311.91 22.4826 305.104 24.8995 297.422C27.1623 290.211 27.7874 282.608 30.9043 275.626C36.2619 263.608 46.154 253.654 58.3 248.512C64.9036 245.708 71.8152 243.925 77.0056 238.633C79.5501 236.062 81.6016 233.064 84.0801 230.44C85.0102 229.469 85.9966 228.553 87.0341 227.698C89.1648 231.154 91.3352 234.587 93.3823 238.092C95.1432 241.081 96.6929 244.193 97.2608 247.592C96.9278 247.766 96.6442 248.022 96.4365 248.335C96.2287 248.648 96.1033 249.009 96.0721 249.384C95.4426 255.415 89.3057 259.509 86.9549 264.832C85.5021 268.129 85.216 271.699 85.0883 275.265C84.9298 279.579 84.9166 283.898 84.9958 288.212C85.2996 305.069 87.109 321.851 88.5617 338.632C89.3938 348.251 90.1025 357.884 90.3711 367.538C90.4459 370.364 94.8527 370.378 94.7734 367.538C94.3112 350.523 92.449 333.596 91.027 316.651C90.3315 308.331 89.7416 300.002 89.495 291.655C89.3674 287.341 89.3277 283.026 89.4114 278.712C89.4862 274.891 89.3233 270.757 90.7321 267.138C92.9949 261.376 98.2733 257.678 99.977 251.792C100.242 251.782 100.502 251.72 100.741 251.607C100.981 251.495 101.195 251.335 101.372 251.138C101.548 250.941 101.683 250.71 101.768 250.459C101.853 250.208 101.886 249.943 101.866 249.679C101.562 240.513 95.2049 232.54 90.556 224.999C91.5597 224.277 92.5723 223.568 93.5848 222.855C108.867 212.067 123.706 200.673 138.101 188.675C138.16 188.628 138.216 188.576 138.269 188.521C138.206 191.036 137.832 193.534 137.155 195.957C136.67 197.718 135.834 199.479 135.455 201.262C135.182 201.162 134.891 201.121 134.6 201.142C134.31 201.162 134.027 201.244 133.771 201.382C133.514 201.519 133.29 201.709 133.112 201.94C132.934 202.17 132.807 202.436 132.739 202.719C130.19 212.382 129.345 222.358 128.698 232.298C128.026 242.723 127.348 253.142 126.664 263.555C125.249 284.654 123.754 305.75 122.178 326.843C121.298 338.767 120.377 350.692 119.418 362.616C119.193 365.443 123.6 365.425 123.82 362.616C127.113 320.897 130.092 279.152 132.757 237.383C133.408 227.17 133.967 216.912 136.23 206.919C137.23 208.618 138.797 210 140.324 211.207C149.371 218.431 161.385 220.87 172.721 221.156C184.244 221.421 195.696 219.271 206.337 214.843C211.734 212.619 216.873 209.815 221.662 206.479C222.587 205.831 223.511 205.158 224.422 204.467C222.956 207.372 221.147 210.141 219.892 213.152C217.938 217.837 217.079 222.864 215.27 227.592C213.254 232.875 209.274 236.058 205.677 240.187C202.252 244.123 200.474 248.855 198.338 253.54C197.396 255.736 196.215 257.822 194.817 259.76C193.214 261.891 191.229 263.722 189.604 265.818C186.148 270.299 185.831 275.503 185.312 280.957C184.138 293.222 183.329 305.515 182.886 317.836C182.39 331.888 182.371 345.945 182.829 360.006C182.921 362.832 187.324 362.845 187.231 360.006C186.432 335.37 187.101 310.708 189.234 286.152C189.49 283.264 189.754 280.376 190.053 277.493C190.344 274.719 190.731 272.038 192.254 269.639C193.619 267.491 195.525 265.743 197.163 263.815C198.894 261.758 200.356 259.488 201.513 257.061C203.714 252.518 205.224 247.495 208.525 243.577C209.917 241.926 211.435 240.425 212.901 238.893C212.961 239.024 213.034 239.149 213.117 239.267C208.884 245.17 205.823 251.831 204.101 258.888C202.195 266.813 202.34 274.931 202.481 283.013C202.772 300.46 203.295 317.906 203.907 335.344C204.254 345.322 204.621 355.288 205.008 365.24C205.114 368.066 209.516 368.08 209.41 365.24C208.768 348.243 208.125 331.241 207.623 314.239C207.368 305.728 207.155 297.225 206.985 288.732C206.822 280.451 206.232 271.928 207.597 263.722C208.997 255.515 212.299 247.749 217.238 241.046C217.456 240.785 217.594 240.467 217.636 240.129C217.677 239.792 217.62 239.45 217.471 239.144C221.151 236.199 224.775 233.117 228.605 230.383C232.708 227.46 237.871 227.491 242.727 227.209C252.464 226.647 262.232 227.005 271.902 228.279C271.937 228.341 271.963 228.407 271.994 228.468C272.927 230.251 275.115 229.644 275.833 228.248C277.316 227.262 277.532 224.673 275.393 224.352L274.992 224.299C273.803 220.738 273.94 216.815 272.747 213.223C271.99 210.951 270.801 208.843 269.969 206.619C269.48 205.299 269.044 203.943 268.648 202.587C274.955 206.522 281.491 210.078 288.221 213.236C309.401 223.361 332.368 231.237 350.294 246.94C359.257 254.799 366.759 264.44 370.628 275.815C371.531 278.479 375.788 277.334 374.868 274.644ZM121.438 132.202C119.013 127.8 117.666 122.865 117.036 117.89C116.618 114.517 116.442 111.119 116.508 107.721C116.469 105.765 116.643 103.81 117.027 101.892C117.19 101.188 117.393 99.8275 117.991 99.3168C118.59 98.8061 119.044 99.0262 119.51 99.4312C119.51 99.6338 119.532 99.8363 119.541 100.039C119.558 100.566 119.766 101.07 120.126 101.455C120.486 101.841 120.975 102.082 121.5 102.134C120.681 112.145 120.369 122.227 121.438 132.202ZM122.042 95.8433C121.83 95.6805 121.601 95.5308 121.386 95.4031C121.609 95.4684 121.84 95.5039 122.072 95.5088C122.064 95.6276 122.05 95.7289 122.042 95.8433ZM127.536 142.204C123.926 126.541 125.031 110.177 126.607 94.3289C126.645 94.092 126.636 93.8497 126.579 93.6165C126.522 93.3833 126.419 93.1638 126.276 92.9713C126.132 92.7787 125.952 92.6168 125.745 92.4954C125.538 92.3739 125.308 92.2953 125.07 92.2642C125.072 92.2423 125.072 92.2202 125.07 92.1982C125.33 89.3587 125.634 86.5324 126.902 83.9394C128.082 81.5313 129.275 79.3786 129.706 76.6844C130.547 71.4852 130.793 66.3433 132.136 61.2145C134.799 51.0449 139.694 41.5961 146.466 33.5546C146.638 33.353 146.775 33.1238 146.871 32.8767L182.53 32.9427C188.209 32.9427 193.91 33.1144 199.589 32.9075C204.431 32.727 209.274 32.005 213.601 29.7334C218.114 39.9424 222.71 50.1471 227.028 60.4617C229.19 65.5993 231.492 70.7676 233.099 76.1121C234.742 81.6126 235.37 87.3664 234.953 93.0919C234.897 93.5125 234.99 93.9393 235.214 94.2997C235.438 94.66 235.779 94.9317 236.181 95.0685C237.088 96.3144 239.549 96.4112 240.218 94.4566C240.218 94.4214 240.253 94.3862 240.266 94.3509C240.69 94.4666 241.142 94.4196 241.533 94.2192C241.924 94.0188 242.226 93.6795 242.379 93.268C242.613 92.7749 242.82 92.2686 243.022 91.7624C243.309 91.6444 243.603 91.5444 243.903 91.463C244.648 91.2585 245.419 91.1563 246.192 91.1592C246.306 91.1592 246.711 91.2341 246.967 91.2341C246.967 91.4498 246.993 91.7624 246.989 91.8724C246.843 97.0716 246.548 102.266 246.245 107.457C245.951 112.505 245.593 117.55 245.171 122.592C245.025 124.393 245.096 126.506 244.321 128.192C243.546 129.878 241.679 129.627 240.015 129.534C239.073 128.469 237.33 128.214 236.639 129.825C233.377 137.542 230.33 145.497 226.896 153.25C226.56 152.976 226.182 152.756 225.778 152.598C223.652 151.749 220.993 152.233 218.783 152.387C217.044 152.51 215.305 152.682 213.575 152.884C212.872 150.955 211.918 149.125 210.74 147.443C210.358 145.815 209.586 144.304 208.49 143.041C206.452 140.774 203.3 139.616 200.214 138.683C199.836 138.271 199.321 138.011 198.765 137.952C198.237 137.886 197.705 137.842 197.172 137.784C196.789 137.67 196.406 137.551 196.04 137.428L195.939 137.397C194.158 137.288 192.364 137.233 190.56 137.23C181.94 137.23 173.342 137.921 164.722 137.961L164.577 138.04C164.41 138.119 164.234 138.189 164.062 138.264C163.897 138.425 163.702 138.55 163.488 138.633C163.274 138.717 163.046 138.756 162.816 138.749C162.059 139.013 161.284 139.246 160.509 139.475C159.343 139.796 158.185 140.144 157.036 140.531C155.035 141.168 153.085 141.953 151.203 142.882C149.022 143.789 146.863 144.745 144.727 145.748C144.446 145.872 144.197 146.057 143.996 146.29C140.329 148.416 139.845 152.766 139.787 156.635C139.73 160.505 139.347 164.559 139.853 168.394C134.161 160.527 129.763 151.929 127.536 142.204ZM206.721 156.67C206.148 160.778 204.136 163.767 200.733 166.637C197.33 169.508 193.58 172.708 189.287 174.218C184.308 175.979 178.871 175.129 173.707 175.169C168.953 175.209 163.78 175.825 159.343 173.69C155.068 171.634 153.549 167.223 153.104 162.776C152.933 160.949 152.867 159.113 152.906 157.278C153.36 155.44 153.994 153.651 154.799 151.938C155.777 149.939 157.26 149.578 159.268 148.856C163.113 147.509 167.046 146.426 171.04 145.616C177.937 144.236 184.976 143.695 192.003 144.005C193.066 144.219 194.117 144.48 195.156 144.789C200.113 146.277 204.141 148.751 205.884 153.84C206.175 154.777 206.461 155.72 206.703 156.67H206.721ZM222.102 200.729C217.929 203.959 213.423 206.735 208.662 209.01C198.925 213.703 188.321 216.326 177.52 216.714C167.038 217.088 155.693 215.693 146.563 210.19C144.326 208.847 140.941 206.91 139.875 204.396C139.175 202.745 140.144 200.923 140.681 199.373C143.206 192.216 143.372 184.438 141.152 177.181C141.76 177.907 142.376 178.629 142.988 179.347C147.751 184.889 153.03 190.163 159.387 193.875C165.74 197.536 172.943 199.468 180.276 199.479C194.896 199.532 207.526 191.731 216.401 180.5C221.772 173.708 225.778 166.021 229.309 158.145L230.225 170.533C230.665 176.322 231.889 182.759 230.788 188.521C229.776 193.716 226.122 197.568 222.085 200.729H222.102ZM268.723 215.094C269.542 217.942 269.758 220.865 270.37 223.705C260.644 222.54 250.832 222.281 241.059 222.93C236.089 223.269 230.933 223.472 226.69 226.395C223.361 228.693 220.205 231.299 217.053 233.879C217.462 233.247 217.835 232.593 218.171 231.92C220.707 226.751 221.552 221.015 223.599 215.675C225.677 210.251 229.573 205.704 230.801 199.937C230.901 199.496 230.863 199.034 230.691 198.616C231.633 197.482 232.457 196.257 233.152 194.958C236.467 188.697 235.437 181.574 234.94 174.804L234.821 173.21C234.948 173.295 235.082 173.368 235.221 173.43C240.218 175.631 243.198 180.324 246.667 184.304C250.416 188.55 254.565 192.426 259.056 195.878C260.455 196.969 261.886 198.022 263.335 199.043C263.242 199.419 263.253 199.813 263.365 200.183C264.123 202.873 264.88 205.567 265.875 208.182C266.742 210.498 268.019 212.699 268.705 215.094H268.723Z" fill="black" stroke="white" stroke-width="2" mask="url(#path-7-inside-1_54_2458)"/>
</g>
</mask>
<g mask="url(#mask0_54_2458)">
<path fill-rule="evenodd" clip-rule="evenodd" d="M146.598 41.5161C135.487 41.5161 126.481 50.5226 126.481 61.6327C126.481 72.7429 135.487 81.7494 146.598 81.7494C157.708 81.7494 166.714 72.7429 166.714 61.6327C166.714 50.5226 157.708 41.5161 146.598 41.5161ZM127.356 61.6327C127.356 51.0057 135.971 42.3907 146.598 42.3907C157.225 42.3907 165.84 51.0057 165.84 61.6327C165.84 72.2598 157.225 80.8747 146.598 80.8747C135.971 80.8747 127.356 72.2598 127.356 61.6327Z" fill="#2A7AB0"/>
<path fill-rule="evenodd" clip-rule="evenodd" d="M146.598 38.2362C133.676 38.2362 123.201 48.7112 123.201 61.6327C123.201 74.5543 133.676 85.0293 146.598 85.0293C159.519 85.0293 169.994 74.5543 169.994 61.6327C169.994 48.7112 159.519 38.2362 146.598 38.2362ZM124.076 61.6327C124.076 49.1942 134.159 39.1108 146.598 39.1108C159.036 39.1108 169.119 49.1942 169.119 61.6327C169.119 74.0712 159.036 84.1546 146.598 84.1546C134.159 84.1546 124.076 74.0712 124.076 61.6327Z" fill="#2A7AB0"/>
<path fill-rule="evenodd" clip-rule="evenodd" d="M119.921 61.6327C119.921 46.8998 131.865 34.9563 146.598 34.9563C161.331 34.9563 173.274 46.8998 173.274 61.6327C173.274 76.3657 161.331 88.3092 146.598 88.3092C131.865 88.3092 119.921 76.3657 119.921 61.6327ZM146.598 35.831C132.348 35.831 120.796 47.3828 120.796 61.6327C120.796 75.8827 132.348 87.4345 146.598 87.4345C160.848 87.4345 172.399 75.8827 172.399 61.6327C172.399 47.3828 160.848 35.831 146.598 35.831Z" fill="#2A7AB0"/>
<path fill-rule="evenodd" clip-rule="evenodd" d="M116.641 61.6327C116.641 45.0883 130.053 31.6764 146.598 31.6764C163.142 31.6764 176.554 45.0883 176.554 61.6327C176.554 78.1772 163.142 91.5891 146.598 91.5891C130.053 91.5891 116.641 78.1772 116.641 61.6327ZM146.598 32.5511C130.536 32.5511 117.516 45.5714 117.516 61.6327C117.516 77.6941 130.536 90.7144 146.598 90.7144C162.659 90.7144 175.679 77.6941 175.679 61.6327C175.679 45.5714 162.659 32.5511 146.598 32.5511Z" fill="#2A7AB0"/>
<path fill-rule="evenodd" clip-rule="evenodd" d="M113.361 61.6327C113.361 43.2769 128.242 28.3965 146.598 28.3965C164.953 28.3965 179.834 43.2769 179.834 61.6327C179.834 79.9886 164.953 94.8689 146.598 94.8689C128.242 94.8689 113.361 79.9886 113.361 61.6327ZM146.598 29.2712C128.725 29.2712 114.236 43.7599 114.236 61.6327C114.236 79.5055 128.725 93.9943 146.598 93.9943C164.47 93.9943 178.959 79.5055 178.959 61.6327C178.959 43.7599 164.47 29.2712 146.598 29.2712Z" fill="#2A7AB0"/>
<path fill-rule="evenodd" clip-rule="evenodd" d="M146.598 25.1166C126.43 25.1166 110.081 41.4655 110.081 61.6327C110.081 81.8 126.43 98.1488 146.598 98.1488C166.765 98.1488 183.114 81.8 183.114 61.6327C183.114 41.4655 166.765 25.1166 146.598 25.1166ZM110.956 61.6327C110.956 41.9485 126.913 25.9913 146.598 25.9913C166.282 25.9913 182.239 41.9485 182.239 61.6327C182.239 81.317 166.282 97.2742 146.598 97.2742C126.913 97.2742 110.956 81.317 110.956 61.6327Z" fill="#2A7AB0"/>
<path fill-rule="evenodd" clip-rule="evenodd" d="M106.802 61.6327C106.802 39.654 124.619 21.8368 146.598 21.8368C168.576 21.8368 186.394 39.654 186.394 61.6327C186.394 83.6115 168.576 101.429 146.598 101.429C124.619 101.429 106.802 83.6115 106.802 61.6327ZM146.598 22.7114C125.102 22.7114 107.676 40.1371 107.676 61.6327C107.676 83.1284 125.102 100.554 146.598 100.554C168.093 100.554 185.519 83.1284 185.519 61.6327C185.519 40.1371 168.093 22.7114 146.598 22.7114Z" fill="#2A7AB0"/>
<path fill-rule="evenodd" clip-rule="evenodd" d="M146.598 18.5569C122.807 18.5569 103.522 37.8426 103.522 61.6327C103.522 85.4229 122.807 104.709 146.598 104.709C170.388 104.709 189.673 85.4229 189.673 61.6327C189.673 37.8426 170.388 18.5569 146.598 18.5569ZM104.396 61.6327C104.396 38.3256 123.29 19.4315 146.598 19.4315C169.905 19.4315 188.799 38.3256 188.799 61.6327C188.799 84.9398 169.905 103.834 146.598 103.834C123.29 103.834 104.396 84.9398 104.396 61.6327Z" fill="#2A7AB0"/>
<path fill-rule="evenodd" clip-rule="evenodd" d="M100.242 61.6327C100.242 36.0312 120.996 15.277 146.598 15.277C172.199 15.277 192.953 36.0312 192.953 61.6327C192.953 87.2343 172.199 107.988 146.598 107.988C120.996 107.988 100.242 87.2343 100.242 61.6327ZM146.598 16.1516C121.479 16.1516 101.116 36.5142 101.116 61.6327C101.116 86.7513 121.479 107.114 146.598 107.114C171.716 107.114 192.079 86.7513 192.079 61.6327C192.079 36.5142 171.716 16.1516 146.598 16.1516Z" fill="#2A7AB0"/>
<path fill-rule="evenodd" clip-rule="evenodd" d="M146.598 11.9971C119.185 11.9971 96.9619 34.2197 96.9619 61.6327C96.9619 89.0457 119.185 111.268 146.598 111.268C174.011 111.268 196.233 89.0457 196.233 61.6327C196.233 34.2197 174.011 11.9971 146.598 11.9971ZM97.8366 61.6327C97.8366 34.7028 119.668 12.8717 146.598 12.8717C173.528 12.8717 195.359 34.7028 195.359 61.6327C195.359 88.5627 173.528 110.394 146.598 110.394C119.668 110.394 97.8366 88.5627 97.8366 61.6327Z" fill="#2A7AB0"/>
<path fill-rule="evenodd" clip-rule="evenodd" d="M93.6821 61.6327C93.6821 32.4083 117.373 8.71721 146.598 8.71721C175.822 8.71721 199.513 32.4083 199.513 61.6327C199.513 90.8572 175.822 114.548 146.598 114.548C117.373 114.548 93.6821 90.8572 93.6821 61.6327ZM146.598 9.59185C117.856 9.59185 94.5567 32.8913 94.5567 61.6327C94.5567 90.3741 117.856 113.674 146.598 113.674C175.339 113.674 198.638 90.3741 198.638 61.6327C198.638 32.8913 175.339 9.59185 146.598 9.59185Z" fill="#2A7AB0"/>
<path fill-rule="evenodd" clip-rule="evenodd" d="M146.598 5.43732C115.562 5.43732 90.4022 30.5969 90.4022 61.6327C90.4022 92.6686 115.562 117.828 146.598 117.828C177.633 117.828 202.793 92.6686 202.793 61.6327C202.793 30.5969 177.633 5.43732 146.598 5.43732ZM91.2768 61.6327C91.2768 31.0799 116.045 6.31196 146.598 6.31196C177.15 6.31196 201.918 31.0799 201.918 61.6327C201.918 92.1856 177.15 116.954 146.598 116.954C116.045 116.954 91.2768 92.1856 91.2768 61.6327Z" fill="#2A7AB0"/>
<path fill-rule="evenodd" clip-rule="evenodd" d="M87.1223 61.6327C87.1223 28.7854 113.75 2.15743 146.598 2.15743C179.445 2.15743 206.073 28.7854 206.073 61.6327C206.073 94.48 179.445 121.108 146.598 121.108C113.75 121.108 87.1223 94.48 87.1223 61.6327ZM146.598 3.03207C114.233 3.03207 87.9969 29.2685 87.9969 61.6327C87.9969 93.997 114.233 120.233 146.598 120.233C178.962 120.233 205.198 93.997 205.198 61.6327C205.198 29.2685 178.962 3.03207 146.598 3.03207Z" fill="#2A7AB0"/>
<path fill-rule="evenodd" clip-rule="evenodd" d="M146.598 -1.12246C111.939 -1.12246 83.8424 26.974 83.8424 61.6327C83.8424 96.2915 111.939 124.388 146.598 124.388C181.256 124.388 209.353 96.2915 209.353 61.6327C209.353 26.974 181.256 -1.12246 146.598 -1.12246ZM84.717 61.6327C84.717 27.4571 112.422 -0.247819 146.598 -0.247819C180.773 -0.247819 208.478 27.4571 208.478 61.6327C208.478 95.8084 180.773 123.513 146.598 123.513C112.422 123.513 84.717 95.8084 84.717 61.6327Z" fill="#2A7AB0"/>
<path fill-rule="evenodd" clip-rule="evenodd" d="M80.5625 61.6327C80.5625 25.1626 110.127 -4.40234 146.598 -4.40234C183.068 -4.40234 212.633 25.1626 212.633 61.6327C212.633 98.1029 183.068 127.668 146.598 127.668C110.127 127.668 80.5625 98.1029 80.5625 61.6327ZM146.598 -3.52771C110.61 -3.52771 81.4371 25.6456 81.4371 61.6327C81.4371 97.6199 110.61 126.793 146.598 126.793C182.585 126.793 211.758 97.6199 211.758 61.6327C211.758 25.6456 182.585 -3.52771 146.598 -3.52771Z" fill="#2A7AB0"/>
</g>
<defs>
<clipPath id="clip0_54_2458">
<rect width="375" height="369.656" fill="white"/>
</clipPath>
<clipPath id="clip1_54_2458">
<rect width="375" height="369.656" fill="white"/>
</clipPath>
</defs>
</svg>
