<svg width="375" height="370" viewBox="0 0 375 370" fill="none" xmlns="http://www.w3.org/2000/svg">
<g clip-path="url(#clip0_58_3955)">
<path d="M140.5 177L127 143.769L235 141L231.5 152.631V177H140.5Z" fill="#272727"/>
<path d="M226.236 81.1263C226.093 80.8995 225.904 80.7044 225.682 80.553C225.46 80.4016 225.21 80.2971 224.946 80.2459C218.713 78.7315 213.941 73.8581 207.214 73.9153C200.703 73.9681 194.544 78.0755 188.02 77.1554C185.766 76.8384 184.555 79.5811 185.691 80.8314C185.531 81.2036 185.464 81.6096 185.498 82.0134C185.532 82.4172 185.665 82.8065 185.884 83.147C185.105 84.5249 185.678 86.6072 187.645 86.3959C196.811 85.4127 205.944 84.1962 215.046 82.7464C218.299 83.7237 221.535 84.9476 224.92 85.0752C227.209 85.1369 227.645 82.2797 226.236 81.1263Z" fill="black" stroke="#898989" stroke-width="0.7"/>
<path d="M162.252 78.3572C154.768 77.9992 147.284 77.8216 139.8 77.8245C139.299 77.8105 138.809 77.983 138.427 78.3088C137.977 78.4134 137.536 78.5502 137.106 78.7182C134.047 79.9288 131.383 83.0149 129.182 85.3745C128.984 85.5868 128.83 85.8362 128.729 86.1083C128.627 86.3804 128.581 86.6698 128.592 86.9599C128.603 87.25 128.671 87.5351 128.793 87.7987C128.915 88.0623 129.087 88.2992 129.301 88.4958C129.151 90.0851 131.445 91.6831 133.175 90.3448C134.897 88.9485 136.804 87.796 138.841 86.9198C141.178 85.9821 143.516 85.9072 145.999 85.9028H160.751C162.596 85.9028 163.239 84.0406 162.684 82.7375C165.074 82.4646 164.955 78.4893 162.252 78.3572Z" fill="black" stroke="#898989" stroke-width="0.7"/>
<path d="M374.868 274.644C367.666 253.482 349.708 238.651 330.638 228.301C309.145 216.639 285.337 209.331 265.276 195.059C259.99 191.337 255.119 187.056 250.748 182.292C246.637 177.758 243.229 172.167 237.422 169.626C236.938 169.41 236.394 169.365 235.88 169.498C235.367 169.632 234.914 169.936 234.596 170.362L233.223 151.74C233.191 151.25 232.998 150.786 232.672 150.419C235.023 144.938 237.308 139.413 239.624 133.928C242.129 133.884 244.677 134.28 246.689 132.374C248.508 130.657 249.005 128.148 249.269 125.77C250.075 118.418 250.436 110.978 250.832 103.596C251.034 99.8449 251.215 96.0897 251.343 92.3346C251.431 89.6931 250.819 87.4436 247.882 86.9285C246.736 86.7318 245.566 86.711 244.413 86.8668C245.62 80.796 245.197 74.307 244.854 68.2273C244.413 59.6736 243.256 51.0582 240.83 42.8391C236.52 28.2145 227.755 14.4968 214.35 6.69145C207.192 2.52684 199.421 0.902378 191.215 0.528179C181.971 0.0879455 172.285 -0.678062 163.247 1.53191C158.889 2.59728 154.729 4.30098 150.599 6.0267C146.585 7.66877 142.504 9.31084 139.013 11.9831C135.588 14.6245 133.003 18.0803 130.349 21.4393C127.553 24.9612 124.701 28.483 121.984 32.0621C119.11 35.8525 117.793 39.7442 117.582 44.4899C117.331 49.896 117.437 55.3373 117.582 60.7434C117.908 71.5775 118.295 82.6406 119.655 93.3999C119.722 93.9836 120.011 94.5194 120.461 94.8967C120.338 94.8439 120.21 94.7911 120.082 94.747C117.934 94.0339 115.843 94.8791 114.509 96.6312C111.454 100.651 111.96 107.144 112.136 111.894C112.51 121.94 114.835 132.026 121.438 139.867C121.744 140.26 122.191 140.517 122.684 140.584C124.004 147.556 126.329 154.299 129.587 160.602C131.479 164.136 133.638 167.521 136.045 170.727C135.974 170.858 135.913 170.995 135.865 171.136C135.546 172.098 135.434 173.116 135.537 174.124C135.641 175.131 135.956 176.106 136.464 176.983V177.036C137.432 179.866 138.013 182.814 138.189 185.801C137.79 185.344 137.228 185.062 136.623 185.015C136.019 184.967 135.42 185.157 134.954 185.545C121.832 196.475 108.318 206.913 94.4124 216.859C91.1635 219.179 87.8089 221.394 84.7053 223.903C81.7425 226.271 79.3741 229.089 76.9748 232.003C74.6239 234.847 72.1938 237.484 68.9493 239.32C65.7048 241.156 62.0112 242.322 58.4982 243.722C46.0457 248.588 35.6707 257.63 29.1478 269.3C25.6611 275.586 23.865 282.251 22.3946 289.238C21.5852 293.383 20.352 297.434 18.7142 301.327C17.1426 304.906 15.3552 308.371 13.9905 312.064C10.7504 320.763 10.2221 330.171 8.26747 339.183C6.21158 348.599 3.16516 357.756 0.123143 366.891C-0.757325 369.585 3.47772 370.743 4.367 368.062C7.0084 360.138 9.6498 352.156 11.6617 344.021C13.6251 336.03 14.3867 327.824 16.2797 319.808C18.1463 311.91 22.4826 305.104 24.8995 297.422C27.1623 290.211 27.7874 282.608 30.9043 275.626C36.2619 263.608 46.154 253.654 58.3 248.512C64.9036 245.708 71.8152 243.925 77.0056 238.633C79.5501 236.062 81.6016 233.064 84.0802 230.44C85.0102 229.469 85.9966 228.553 87.0341 227.698C89.1648 231.154 91.3352 234.587 93.3823 238.092C95.1432 241.081 96.6929 244.193 97.2608 247.592C96.9278 247.766 96.6442 248.022 96.4365 248.335C96.2287 248.648 96.1033 249.009 96.0721 249.384C95.4426 255.415 89.3057 259.509 86.9549 264.831C85.5021 268.129 85.216 271.699 85.0883 275.265C84.9298 279.579 84.9166 283.898 84.9958 288.212C85.2996 305.069 87.109 321.85 88.5617 338.632C89.3938 348.251 90.1025 357.884 90.3711 367.538C90.4459 370.364 94.8527 370.377 94.7734 367.538C94.3112 350.523 92.449 333.596 91.027 316.651C90.3315 308.331 89.7416 300.002 89.495 291.655C89.3674 287.341 89.3277 283.026 89.4114 278.712C89.4862 274.891 89.3233 270.757 90.7321 267.138C92.9949 261.376 98.2733 257.678 99.977 251.792C100.242 251.782 100.502 251.72 100.741 251.607C100.981 251.495 101.195 251.335 101.372 251.138C101.548 250.94 101.683 250.709 101.768 250.459C101.853 250.208 101.886 249.943 101.866 249.679C101.562 240.513 95.2049 232.54 90.556 224.999C91.5597 224.277 92.5723 223.568 93.5848 222.855C108.867 212.066 123.706 200.673 138.101 188.675C138.16 188.627 138.216 188.576 138.269 188.521C138.206 191.036 137.832 193.534 137.155 195.957C136.67 197.718 135.834 199.479 135.455 201.262C135.182 201.162 134.891 201.121 134.6 201.141C134.31 201.162 134.027 201.244 133.771 201.381C133.514 201.519 133.29 201.709 133.112 201.94C132.934 202.17 132.807 202.436 132.739 202.719C130.19 212.382 129.345 222.358 128.698 232.298C128.026 242.723 127.348 253.142 126.664 263.555C125.249 284.654 123.754 305.75 122.178 326.843C121.298 338.767 120.377 350.692 119.418 362.616C119.193 365.442 123.6 365.425 123.82 362.616C127.113 320.897 130.092 279.152 132.757 237.383C133.408 227.169 133.967 216.912 136.23 206.919C137.23 208.618 138.797 210 140.324 211.207C149.371 218.431 161.385 220.87 172.721 221.156C184.244 221.421 195.696 219.271 206.337 214.843C211.734 212.619 216.873 209.815 221.662 206.478C222.587 205.831 223.511 205.158 224.422 204.467C222.956 207.372 221.147 210.141 219.892 213.152C217.938 217.836 217.079 222.864 215.27 227.592C213.254 232.875 209.274 236.058 205.677 240.187C202.252 244.123 200.474 248.855 198.338 253.539C197.396 255.736 196.215 257.822 194.817 259.76C193.214 261.891 191.229 263.722 189.604 265.818C186.148 270.299 185.831 275.503 185.312 280.957C184.138 293.222 183.329 305.515 182.886 317.836C182.39 331.888 182.371 345.944 182.829 360.006C182.921 362.832 187.324 362.845 187.231 360.006C186.432 335.37 187.101 310.708 189.234 286.152C189.49 283.264 189.754 280.376 190.053 277.493C190.344 274.719 190.731 272.038 192.254 269.639C193.619 267.49 195.525 265.743 197.163 263.814C198.894 261.758 200.356 259.488 201.513 257.061C203.714 252.518 205.224 247.495 208.525 243.577C209.917 241.926 211.435 240.425 212.901 238.893C212.961 239.024 213.034 239.149 213.117 239.267C208.884 245.17 205.823 251.831 204.101 258.888C202.195 266.812 202.34 274.93 202.481 283.013C202.772 300.46 203.295 317.906 203.907 335.344C204.254 345.322 204.621 355.288 205.008 365.24C205.114 368.066 209.516 368.079 209.41 365.24C208.768 348.243 208.125 331.241 207.623 314.239C207.368 305.728 207.155 297.225 206.985 288.732C206.822 280.451 206.232 271.928 207.597 263.722C208.997 255.515 212.299 247.749 217.238 241.046C217.456 240.785 217.594 240.467 217.636 240.129C217.677 239.792 217.62 239.449 217.471 239.144C221.151 236.199 224.775 233.117 228.605 230.383C232.708 227.46 237.871 227.491 242.727 227.209C252.464 226.647 262.232 227.005 271.902 228.279C271.937 228.34 271.963 228.406 271.994 228.468C272.927 230.251 275.115 229.644 275.833 228.248C277.316 227.262 277.532 224.673 275.393 224.352L274.992 224.299C273.803 220.738 273.94 216.815 272.747 213.223C271.99 210.951 270.801 208.842 269.969 206.619C269.48 205.299 269.044 203.943 268.648 202.587C274.955 206.522 281.491 210.078 288.221 213.236C309.401 223.361 332.368 231.237 350.294 246.94C359.257 254.798 366.759 264.44 370.628 275.815C371.531 278.479 375.788 277.334 374.868 274.644ZM121.438 132.202C119.013 127.8 117.666 122.865 117.036 117.89C116.618 114.517 116.442 111.119 116.508 107.721C116.469 105.765 116.643 103.81 117.027 101.892C117.19 101.188 117.393 99.8273 117.991 99.3167C118.59 98.806 119.044 99.0261 119.51 99.4311C119.51 99.6336 119.532 99.8361 119.541 100.039C119.558 100.566 119.766 101.07 120.126 101.455C120.486 101.841 120.975 102.082 121.5 102.134C120.681 112.145 120.369 122.226 121.438 132.202ZM122.042 95.8432C121.83 95.6803 121.601 95.5307 121.386 95.403C121.609 95.4683 121.84 95.5038 122.072 95.5086C122.064 95.6275 122.05 95.7288 122.042 95.8432ZM127.536 142.204C123.926 126.541 125.031 110.177 126.607 94.3288C126.645 94.0919 126.636 93.8496 126.579 93.6164C126.522 93.3831 126.419 93.1637 126.276 92.9711C126.132 92.7785 125.952 92.6167 125.745 92.4953C125.538 92.3738 125.308 92.2952 125.07 92.2641C125.072 92.2422 125.072 92.22 125.07 92.1981C125.33 89.3586 125.634 86.5323 126.902 83.9393C128.082 81.5312 129.275 79.3785 129.706 76.6842C130.547 71.4851 130.793 66.3431 132.136 61.2144C134.799 51.0448 139.694 41.596 146.466 33.5545C146.638 33.3528 146.775 33.1237 146.871 32.8766L182.53 32.9426C188.209 32.9426 193.91 33.1143 199.589 32.9074C204.431 32.7269 209.274 32.0049 213.601 29.7333C218.114 39.9423 222.71 50.1469 227.028 60.4616C229.19 65.5992 231.492 70.7675 233.099 76.1119C234.742 81.6125 235.37 87.3662 234.953 93.0918C234.897 93.5124 234.99 93.9392 235.214 94.2996C235.438 94.6599 235.779 94.9316 236.181 95.0684C237.088 96.3143 239.549 96.4111 240.218 94.4565C240.218 94.4213 240.253 94.386 240.266 94.3508C240.69 94.4664 241.142 94.4194 241.533 94.2191C241.924 94.0187 242.226 93.6794 242.379 93.2678C242.613 92.7748 242.82 92.2685 243.022 91.7622C243.309 91.6443 243.603 91.5443 243.903 91.4629C244.648 91.2584 245.419 91.1562 246.192 91.1591C246.306 91.1591 246.711 91.234 246.967 91.234C246.967 91.4497 246.993 91.7622 246.989 91.8723C246.843 97.0715 246.548 102.266 246.245 107.457C245.951 112.505 245.593 117.55 245.171 122.592C245.025 124.392 245.096 126.506 244.321 128.192C243.546 129.878 241.679 129.627 240.015 129.534C239.073 128.469 237.33 128.214 236.639 129.825C233.377 137.542 230.33 145.497 226.896 153.25C226.56 152.976 226.182 152.756 225.778 152.598C223.652 151.749 220.993 152.233 218.783 152.387C217.044 152.51 215.305 152.682 213.575 152.884C212.872 150.955 211.918 149.125 210.74 147.443C210.358 145.815 209.586 144.304 208.49 143.041C206.452 140.773 203.3 139.616 200.214 138.682C199.836 138.27 199.321 138.011 198.765 137.952C198.237 137.886 197.705 137.842 197.172 137.784C196.789 137.67 196.406 137.551 196.04 137.428L195.939 137.397C194.158 137.288 192.364 137.233 190.56 137.23C181.94 137.23 173.342 137.921 164.722 137.96L164.577 138.04C164.41 138.119 164.234 138.189 164.062 138.264C163.897 138.424 163.702 138.55 163.488 138.633C163.274 138.716 163.046 138.756 162.816 138.748C162.059 139.013 161.284 139.246 160.509 139.475C159.343 139.796 158.185 140.144 157.036 140.531C155.035 141.167 153.085 141.953 151.203 142.882C149.022 143.789 146.863 144.744 144.727 145.748C144.446 145.872 144.197 146.057 143.996 146.29C140.329 148.416 139.845 152.765 139.787 156.635C139.73 160.505 139.347 164.559 139.853 168.394C134.161 160.527 129.763 151.929 127.536 142.204ZM206.721 156.67C206.148 160.778 204.136 163.767 200.733 166.637C197.33 169.508 193.58 172.708 189.287 174.218C184.308 175.979 178.871 175.129 173.707 175.169C168.953 175.209 163.78 175.825 159.343 173.69C155.068 171.634 153.549 167.223 153.104 162.776C152.933 160.949 152.867 159.113 152.906 157.278C153.36 155.44 153.994 153.651 154.799 151.938C155.777 149.939 157.26 149.578 159.268 148.856C163.113 147.509 167.046 146.426 171.04 145.616C177.937 144.236 184.976 143.695 192.003 144.005C193.066 144.219 194.117 144.48 195.156 144.788C200.113 146.276 204.141 148.751 205.884 153.84C206.175 154.777 206.461 155.719 206.703 156.67H206.721ZM222.102 200.729C217.929 203.959 213.423 206.735 208.662 209.01C198.925 213.703 188.321 216.326 177.52 216.714C167.038 217.088 155.693 215.692 146.563 210.19C144.326 208.847 140.941 206.91 139.875 204.396C139.175 202.745 140.144 200.923 140.681 199.373C143.206 192.216 143.372 184.438 141.152 177.181C141.76 177.907 142.376 178.629 142.988 179.347C147.751 184.889 153.03 190.163 159.387 193.875C165.74 197.536 172.943 199.468 180.276 199.479C194.896 199.531 207.526 191.731 216.401 180.5C221.772 173.707 225.778 166.021 229.309 158.145L230.225 170.533C230.665 176.322 231.889 182.759 230.788 188.521C229.776 193.716 226.122 197.568 222.085 200.729H222.102ZM268.723 215.094C269.542 217.942 269.758 220.865 270.37 223.705C260.644 222.54 250.832 222.281 241.059 222.93C236.089 223.269 230.933 223.471 226.69 226.395C223.361 228.693 220.205 231.299 217.053 233.879C217.462 233.247 217.835 232.593 218.171 231.92C220.707 226.751 221.552 221.015 223.599 215.675C225.677 210.251 229.573 205.704 230.801 199.937C230.901 199.495 230.863 199.034 230.691 198.616C231.633 197.482 232.457 196.257 233.152 194.957C236.467 188.697 235.437 181.574 234.94 174.804L234.821 173.21C234.948 173.295 235.082 173.368 235.221 173.43C240.218 175.631 243.198 180.324 246.667 184.304C250.416 188.55 254.565 192.426 259.056 195.878C260.455 196.969 261.886 198.022 263.335 199.043C263.242 199.419 263.253 199.813 263.365 200.183C264.123 202.873 264.88 205.567 265.875 208.182C266.742 210.498 268.019 212.699 268.705 215.094H268.723Z" fill="black" stroke="#898989" stroke-width="0.7"/>
</g>
<defs>
<clipPath id="clip0_58_3955">
<rect width="375" height="369.656" fill="white"/>
</clipPath>
</defs>
</svg>
