<svg width="133" height="133" viewBox="0 0 133 133" fill="none" xmlns="http://www.w3.org/2000/svg">
<path fill-rule="evenodd" clip-rule="evenodd" d="M66.0351 46.574C54.925 46.574 45.9184 55.5805 45.9184 66.6906C45.9184 77.8007 54.925 86.8072 66.0351 86.8072C77.1452 86.8072 86.1517 77.8007 86.1517 66.6906C86.1517 55.5805 77.1452 46.574 66.0351 46.574ZM46.7931 66.6906C46.7931 56.0635 55.408 47.4486 66.0351 47.4486C76.6622 47.4486 85.2771 56.0635 85.2771 66.6906C85.2771 77.3177 76.6622 85.9326 66.0351 85.9326C55.408 85.9326 46.7931 77.3177 46.7931 66.6906Z" fill="#2A7AB0"/>
<path fill-rule="evenodd" clip-rule="evenodd" d="M66.0351 43.2941C53.1135 43.2941 42.6385 53.769 42.6385 66.6906C42.6385 79.6122 53.1135 90.0871 66.0351 90.0871C78.9566 90.0871 89.4316 79.6122 89.4316 66.6906C89.4316 53.769 78.9566 43.2941 66.0351 43.2941ZM43.5132 66.6906C43.5132 54.2521 53.5966 44.1687 66.0351 44.1687C78.4736 44.1687 88.557 54.2521 88.557 66.6906C88.557 79.1291 78.4736 89.2125 66.0351 89.2125C53.5966 89.2125 43.5132 79.1291 43.5132 66.6906Z" fill="#2A7AB0"/>
<path fill-rule="evenodd" clip-rule="evenodd" d="M39.3587 66.6906C39.3587 51.9576 51.3021 40.0142 66.0351 40.0142C80.7681 40.0142 92.7115 51.9576 92.7115 66.6906C92.7115 81.4236 80.7681 93.367 66.0351 93.367C51.3021 93.367 39.3587 81.4236 39.3587 66.6906ZM66.0351 40.8888C51.7851 40.8888 40.2333 52.4407 40.2333 66.6906C40.2333 80.9405 51.7851 92.4924 66.0351 92.4924C80.285 92.4924 91.8369 80.9405 91.8369 66.6906C91.8369 52.4407 80.285 40.8888 66.0351 40.8888Z" fill="#2A7AB0"/>
<path fill-rule="evenodd" clip-rule="evenodd" d="M36.0788 66.6906C36.0788 50.1462 49.4907 36.7343 66.0351 36.7343C82.5795 36.7343 95.9914 50.1462 95.9914 66.6906C95.9914 83.235 82.5795 96.6469 66.0351 96.6469C49.4907 96.6469 36.0788 83.235 36.0788 66.6906ZM66.0351 37.6089C49.9737 37.6089 36.9534 50.6292 36.9534 66.6906C36.9534 82.752 49.9737 95.7723 66.0351 95.7723C82.0964 95.7723 95.1168 82.752 95.1168 66.6906C95.1168 50.6292 82.0964 37.6089 66.0351 37.6089Z" fill="#2A7AB0"/>
<path fill-rule="evenodd" clip-rule="evenodd" d="M32.7989 66.6906C32.7989 48.3348 47.6792 33.4544 66.0351 33.4544C84.3909 33.4544 99.2713 48.3348 99.2713 66.6906C99.2713 85.0464 84.3909 99.9268 66.0351 99.9268C47.6792 99.9268 32.7989 85.0464 32.7989 66.6906ZM66.0351 34.329C48.1623 34.329 33.6735 48.8178 33.6735 66.6906C33.6735 84.5634 48.1623 99.0522 66.0351 99.0522C83.9079 99.0522 98.3966 84.5634 98.3966 66.6906C98.3966 48.8178 83.9079 34.329 66.0351 34.329Z" fill="#2A7AB0"/>
<path fill-rule="evenodd" clip-rule="evenodd" d="M66.0351 30.1745C45.8678 30.1745 29.519 46.5233 29.519 66.6906C29.519 86.8579 45.8678 103.207 66.0351 103.207C86.2024 103.207 102.551 86.8579 102.551 66.6906C102.551 46.5233 86.2024 30.1745 66.0351 30.1745ZM30.3936 66.6906C30.3936 47.0064 46.3509 31.0491 66.0351 31.0491C85.7193 31.0491 101.677 47.0064 101.677 66.6906C101.677 86.3748 85.7193 102.332 66.0351 102.332C46.3509 102.332 30.3936 86.3748 30.3936 66.6906Z" fill="#2A7AB0"/>
<path fill-rule="evenodd" clip-rule="evenodd" d="M26.2391 66.6906C26.2391 44.7119 44.0564 26.8946 66.0351 26.8946C88.0138 26.8946 105.831 44.7119 105.831 66.6906C105.831 88.6693 88.0138 106.487 66.0351 106.487C44.0564 106.487 26.2391 88.6693 26.2391 66.6906ZM66.0351 27.7693C44.5394 27.7693 27.1137 45.1949 27.1137 66.6906C27.1137 88.1863 44.5394 105.612 66.0351 105.612C87.5307 105.612 104.956 88.1863 104.956 66.6906C104.956 45.1949 87.5307 27.7693 66.0351 27.7693Z" fill="#2A7AB0"/>
<path fill-rule="evenodd" clip-rule="evenodd" d="M66.0351 23.6147C42.2449 23.6147 22.9592 42.9005 22.9592 66.6906C22.9592 90.4807 42.2449 109.766 66.0351 109.766C89.8252 109.766 109.111 90.4807 109.111 66.6906C109.111 42.9005 89.8252 23.6147 66.0351 23.6147ZM23.8339 66.6906C23.8339 43.3835 42.728 24.4894 66.0351 24.4894C89.3422 24.4894 108.236 43.3835 108.236 66.6906C108.236 89.9977 89.3422 108.892 66.0351 108.892C42.728 108.892 23.8339 89.9977 23.8339 66.6906Z" fill="#2A7AB0"/>
<path fill-rule="evenodd" clip-rule="evenodd" d="M19.6793 66.6906C19.6793 41.089 40.4335 20.3348 66.0351 20.3348C91.6367 20.3348 112.391 41.089 112.391 66.6906C112.391 92.2922 91.6367 113.046 66.0351 113.046C40.4335 113.046 19.6793 92.2922 19.6793 66.6906ZM66.0351 21.2095C40.9166 21.2095 20.554 41.5721 20.554 66.6906C20.554 91.8091 40.9166 112.172 66.0351 112.172C91.1536 112.172 111.516 91.8091 111.516 66.6906C111.516 41.5721 91.1536 21.2095 66.0351 21.2095Z" fill="#2A7AB0"/>
<path fill-rule="evenodd" clip-rule="evenodd" d="M66.0351 17.055C38.6221 17.055 16.3994 39.2776 16.3994 66.6906C16.3994 94.1036 38.6221 116.326 66.0351 116.326C93.4481 116.326 115.671 94.1036 115.671 66.6906C115.671 39.2776 93.4481 17.055 66.0351 17.055ZM17.2741 66.6906C17.2741 39.7606 39.1051 17.9296 66.0351 17.9296C92.965 17.9296 114.796 39.7606 114.796 66.6906C114.796 93.6206 92.965 115.452 66.0351 115.452C39.1051 115.452 17.2741 93.6206 17.2741 66.6906Z" fill="#2A7AB0"/>
<path fill-rule="evenodd" clip-rule="evenodd" d="M13.1196 66.6906C13.1196 37.4662 36.8106 13.7751 66.0351 13.7751C95.2595 13.7751 118.951 37.4662 118.951 66.6906C118.951 95.915 95.2595 119.606 66.0351 119.606C36.8106 119.606 13.1196 95.915 13.1196 66.6906ZM66.0351 14.6497C37.2937 14.6497 13.9942 37.9492 13.9942 66.6906C13.9942 95.432 37.2937 118.731 66.0351 118.731C94.7765 118.731 118.076 95.432 118.076 66.6906C118.076 37.9492 94.7765 14.6497 66.0351 14.6497Z" fill="#2A7AB0"/>
<path fill-rule="evenodd" clip-rule="evenodd" d="M66.0351 10.4952C34.9992 10.4952 9.83966 35.6547 9.83966 66.6906C9.83966 97.7265 34.9992 122.886 66.0351 122.886C97.071 122.886 122.23 97.7265 122.23 66.6906C122.23 35.6547 97.071 10.4952 66.0351 10.4952ZM10.7143 66.6906C10.7143 36.1378 35.4823 11.3698 66.0351 11.3698C96.5879 11.3698 121.356 36.1378 121.356 66.6906C121.356 97.2434 96.5879 122.011 66.0351 122.011C35.4823 122.011 10.7143 97.2434 10.7143 66.6906Z" fill="#2A7AB0"/>
<path fill-rule="evenodd" clip-rule="evenodd" d="M6.55978 66.6906C6.55978 33.8433 33.1878 7.21529 66.0351 7.21529C98.8824 7.21529 125.51 33.8433 125.51 66.6906C125.51 99.5379 98.8824 126.166 66.0351 126.166C33.1878 126.166 6.55978 99.5379 6.55978 66.6906ZM66.0351 8.08993C33.6708 8.08993 7.43441 34.3263 7.43441 66.6906C7.43441 99.0549 33.6708 125.291 66.0351 125.291C98.3993 125.291 124.636 99.0549 124.636 66.6906C124.636 34.3263 98.3993 8.08993 66.0351 8.08993Z" fill="#2A7AB0"/>
<path fill-rule="evenodd" clip-rule="evenodd" d="M66.0351 3.93541C31.3763 3.93541 3.27989 32.0319 3.27989 66.6906C3.27989 101.349 31.3763 129.446 66.0351 129.446C100.694 129.446 128.79 101.349 128.79 66.6906C128.79 32.0319 100.694 3.93541 66.0351 3.93541ZM4.15452 66.6906C4.15452 32.5149 31.8594 4.81004 66.0351 4.81004C100.211 4.81004 127.916 32.5149 127.916 66.6906C127.916 100.866 100.211 128.571 66.0351 128.571C31.8594 128.571 4.15452 100.866 4.15452 66.6906Z" fill="#2A7AB0"/>
<path fill-rule="evenodd" clip-rule="evenodd" d="M0 66.6906C0 30.2204 29.5649 0.655518 66.0351 0.655518C102.505 0.655518 132.07 30.2204 132.07 66.6906C132.07 103.161 102.505 132.726 66.0351 132.726C29.5649 132.726 0 103.161 0 66.6906ZM66.0351 1.53015C30.048 1.53015 0.874637 30.7035 0.874637 66.6906C0.874637 102.678 30.048 131.851 66.0351 131.851C102.022 131.851 131.196 102.678 131.196 66.6906C131.196 30.7035 102.022 1.53015 66.0351 1.53015Z" fill="#2A7AB0"/>
</svg>
