<svg width="300" height="301" viewBox="0 0 300 301" fill="none" xmlns="http://www.w3.org/2000/svg">
<path fill-rule="evenodd" clip-rule="evenodd" d="M150 104.985C124.763 104.985 104.305 125.443 104.305 150.68C104.305 175.917 124.763 196.375 150 196.375C175.237 196.375 195.695 175.917 195.695 150.68C195.695 125.443 175.237 104.985 150 104.985ZM106.291 150.68C106.291 126.54 125.86 106.971 150 106.971C174.14 106.971 193.709 126.54 193.709 150.68C193.709 174.82 174.14 194.389 150 194.389C125.86 194.389 106.291 174.82 106.291 150.68Z" fill="#2A7AB0"/>
<path fill-rule="evenodd" clip-rule="evenodd" d="M150 97.5342C120.648 97.5342 96.8543 121.328 96.8543 150.68C96.8543 180.031 120.648 203.826 150 203.826C179.352 203.826 203.146 180.031 203.146 150.68C203.146 121.328 179.352 97.5342 150 97.5342ZM98.8411 150.68C98.8411 122.426 121.746 99.521 150 99.521C178.254 99.521 201.159 122.426 201.159 150.68C201.159 178.934 178.254 201.839 150 201.839C121.746 201.839 98.8411 178.934 98.8411 150.68Z" fill="#2A7AB0"/>
<path fill-rule="evenodd" clip-rule="evenodd" d="M89.404 150.68C89.404 117.214 116.534 90.0839 150 90.0839C183.466 90.0839 210.596 117.214 210.596 150.68C210.596 184.146 183.466 211.276 150 211.276C116.534 211.276 89.404 184.146 89.404 150.68ZM150 92.0707C117.631 92.0707 91.3907 118.311 91.3907 150.68C91.3907 183.049 117.631 209.289 150 209.289C182.369 209.289 208.609 183.049 208.609 150.68C208.609 118.311 182.369 92.0707 150 92.0707Z" fill="#2A7AB0"/>
<path fill-rule="evenodd" clip-rule="evenodd" d="M81.9536 150.68C81.9536 113.099 112.419 82.6336 150 82.6336C187.581 82.6336 218.046 113.099 218.046 150.68C218.046 188.261 187.581 218.726 150 218.726C112.419 218.726 81.9536 188.261 81.9536 150.68ZM150 84.6203C113.516 84.6203 83.9404 114.196 83.9404 150.68C83.9404 187.164 113.516 216.74 150 216.74C186.484 216.74 216.06 187.164 216.06 150.68C216.06 114.196 186.484 84.6203 150 84.6203Z" fill="#2A7AB0"/>
<path fill-rule="evenodd" clip-rule="evenodd" d="M74.5033 150.68C74.5033 108.984 108.304 75.1832 150 75.1832C191.696 75.1832 225.497 108.984 225.497 150.68C225.497 192.376 191.696 226.177 150 226.177C108.304 226.177 74.5033 192.376 74.5033 150.68ZM150 77.17C109.402 77.17 76.4901 110.082 76.4901 150.68C76.4901 191.278 109.402 224.19 150 224.19C190.598 224.19 223.51 191.278 223.51 150.68C223.51 110.082 190.598 77.17 150 77.17Z" fill="#2A7AB0"/>
<path fill-rule="evenodd" clip-rule="evenodd" d="M150 67.7329C104.19 67.7329 67.053 104.87 67.053 150.68C67.053 196.49 104.19 233.627 150 233.627C195.81 233.627 232.947 196.49 232.947 150.68C232.947 104.87 195.81 67.7329 150 67.7329ZM69.0397 150.68C69.0397 105.967 105.287 69.7197 150 69.7197C194.713 69.7197 230.96 105.967 230.96 150.68C230.96 195.393 194.713 231.64 150 231.64C105.287 231.64 69.0397 195.393 69.0397 150.68Z" fill="#2A7AB0"/>
<path fill-rule="evenodd" clip-rule="evenodd" d="M59.6027 150.68C59.6027 100.755 100.075 60.2826 150 60.2826C199.925 60.2826 240.397 100.755 240.397 150.68C240.397 200.605 199.925 241.077 150 241.077C100.075 241.077 59.6027 200.605 59.6027 150.68ZM150 62.2693C101.172 62.2693 61.5894 101.852 61.5894 150.68C61.5894 199.508 101.172 239.091 150 239.091C198.828 239.091 238.411 199.508 238.411 150.68C238.411 101.852 198.828 62.2693 150 62.2693Z" fill="#2A7AB0"/>
<path fill-rule="evenodd" clip-rule="evenodd" d="M150 52.8323C95.9602 52.8323 52.1523 96.6402 52.1523 150.68C52.1523 204.72 95.9602 248.528 150 248.528C204.04 248.528 247.848 204.72 247.848 150.68C247.848 96.6402 204.04 52.8323 150 52.8323ZM54.1391 150.68C54.1391 97.7374 97.0575 54.819 150 54.819C202.943 54.819 245.861 97.7374 245.861 150.68C245.861 203.622 202.943 246.541 150 246.541C97.0575 246.541 54.1391 203.622 54.1391 150.68Z" fill="#2A7AB0"/>
<path fill-rule="evenodd" clip-rule="evenodd" d="M44.702 150.68C44.702 92.5254 91.8455 45.3819 150 45.3819C208.154 45.3819 255.298 92.5254 255.298 150.68C255.298 208.834 208.154 255.978 150 255.978C91.8455 255.978 44.702 208.834 44.702 150.68ZM150 47.3687C92.9428 47.3687 46.6887 93.6227 46.6887 150.68C46.6887 207.737 92.9428 253.991 150 253.991C207.057 253.991 253.311 207.737 253.311 150.68C253.311 93.6227 207.057 47.3687 150 47.3687Z" fill="#2A7AB0"/>
<path fill-rule="evenodd" clip-rule="evenodd" d="M150 37.9316C87.7308 37.9316 37.2517 88.4107 37.2517 150.68C37.2517 212.949 87.7308 263.428 150 263.428C212.269 263.428 262.748 212.949 262.748 150.68C262.748 88.4107 212.269 37.9316 150 37.9316ZM39.2384 150.68C39.2384 89.508 88.8281 39.9183 150 39.9183C211.172 39.9183 260.762 89.508 260.762 150.68C260.762 211.852 211.172 261.442 150 261.442C88.8281 261.442 39.2384 211.852 39.2384 150.68Z" fill="#2A7AB0"/>
<path fill-rule="evenodd" clip-rule="evenodd" d="M29.8013 150.68C29.8013 84.296 83.6161 30.4813 150 30.4813C216.384 30.4813 270.199 84.296 270.199 150.68C270.199 217.064 216.384 270.879 150 270.879C83.6161 270.879 29.8013 217.064 29.8013 150.68ZM150 32.468C84.7134 32.468 31.7881 85.3933 31.7881 150.68C31.7881 215.967 84.7134 268.892 150 268.892C215.287 268.892 268.212 215.967 268.212 150.68C268.212 85.3933 215.287 32.468 150 32.468Z" fill="#2A7AB0"/>
<path fill-rule="evenodd" clip-rule="evenodd" d="M150 23.0309C79.5014 23.0309 22.351 80.1813 22.351 150.68C22.351 221.179 79.5014 278.329 150 278.329C220.499 278.329 277.649 221.179 277.649 150.68C277.649 80.1813 220.499 23.0309 150 23.0309ZM24.3377 150.68C24.3377 81.2786 80.5987 25.0177 150 25.0177C219.401 25.0177 275.662 81.2786 275.662 150.68C275.662 220.081 219.401 276.342 150 276.342C80.5987 276.342 24.3377 220.081 24.3377 150.68Z" fill="#2A7AB0"/>
<path fill-rule="evenodd" clip-rule="evenodd" d="M14.9007 150.68C14.9007 76.0666 75.3867 15.5806 150 15.5806C224.613 15.5806 285.099 76.0666 285.099 150.68C285.099 225.293 224.613 285.779 150 285.779C75.3867 285.779 14.9007 225.293 14.9007 150.68ZM150 17.5673C76.484 17.5673 16.8874 77.1639 16.8874 150.68C16.8874 224.196 76.484 283.793 150 283.793C223.516 283.793 283.113 224.196 283.113 150.68C283.113 77.1639 223.516 17.5673 150 17.5673Z" fill="#2A7AB0"/>
<path fill-rule="evenodd" clip-rule="evenodd" d="M150 8.13026C71.272 8.13026 7.45033 71.9519 7.45033 150.68C7.45033 229.408 71.272 293.23 150 293.23C228.728 293.23 292.55 229.408 292.55 150.68C292.55 71.9519 228.728 8.13026 150 8.13026ZM9.43709 150.68C9.43709 73.0492 72.3692 10.117 150 10.117C227.631 10.117 290.563 73.0492 290.563 150.68C290.563 228.311 227.631 291.243 150 291.243C72.3692 291.243 9.43709 228.311 9.43709 150.68Z" fill="#2A7AB0"/>
<path fill-rule="evenodd" clip-rule="evenodd" d="M0 150.68C0 67.8372 67.1573 0.679932 150 0.679932C232.843 0.679932 300 67.8372 300 150.68C300 233.523 232.843 300.68 150 300.68C67.1573 300.68 0 233.523 0 150.68ZM150 2.66669C68.2545 2.66669 1.98676 68.9345 1.98676 150.68C1.98676 232.425 68.2545 298.693 150 298.693C231.745 298.693 298.013 232.425 298.013 150.68C298.013 68.9345 231.745 2.66669 150 2.66669Z" fill="#2A7AB0"/>
</svg>
